<svg width="1920" height="450" viewBox="0 0 1920 450" fill="none" xmlns="http://www.w3.org/2000/svg">
<mask id="mask0_2_12132" style="mask-type:alpha" maskUnits="userSpaceOnUse" x="0" y="0" width="1920" height="450">
<rect width="1920" height="450" fill="#E3F1E9"/>
</mask>
<g mask="url(#mask0_2_12132)">
<path d="M662.721 354.308C656.499 352.167 648.786 348.353 648.717 340.724C648.677 335.547 651.647 330.773 653.074 325.916C655.817 316.572 652.273 306.338 646.303 299.038C640.176 291.537 631.195 286.241 621.617 284.648C616.912 283.858 612.048 283.995 607.435 285.222C602.803 286.451 598.373 288.744 594.278 291.205C585.166 296.702 577.07 304.064 570.538 312.458C564.125 320.707 558.936 330.288 557.005 340.649C556.121 345.433 555.921 350.439 556.777 355.251C557.813 361.035 560.658 366.367 564.388 370.853C572.024 380.026 583.427 386.156 594.974 388.795C606.493 391.407 618.334 388.417 626.685 379.928C631.048 375.494 633.96 370.045 636.786 364.57C638.222 361.799 639.924 358.841 643.068 357.82C646.166 356.809 649.355 357.798 652.222 359.031C654.689 360.109 657.034 361.453 659.501 362.512C659.939 362.704 660.358 362.569 660.627 362.165C661.819 360.314 663.242 358.643 663.984 356.533C664.329 355.526 662.71 355.154 662.366 356.161C661.693 358.1 660.258 359.687 659.165 361.394C659.547 361.279 659.91 361.164 660.291 361.048C655.691 359.081 651.141 355.739 645.936 355.755C639.462 355.783 636.794 360.933 634.2 366.024C631.429 371.441 628.105 376.65 623.467 380.679C619.039 384.523 613.555 387.047 607.743 387.805C595.838 389.369 583.095 384.259 573.647 377.249C568.818 373.662 564.544 369.231 561.644 363.939C558.933 358.988 557.785 353.556 557.9 347.923C558.103 337.579 562.274 327.626 567.841 319.056C573.678 310.084 581.343 302.19 590.039 295.973C597.824 290.415 606.825 285.561 616.635 285.822C626.407 286.084 635.929 290.648 642.742 297.573C649.353 304.307 653.974 314.441 651.821 324.01C650.724 328.904 647.996 333.323 647.213 338.31C646.368 343.75 648.955 348.639 653.403 351.739C656.112 353.626 659.196 354.862 662.302 355.919C663.365 356.28 663.728 354.652 662.721 354.308Z" fill="#D1D1D1"/>
<path d="M656.988 354.885C653.461 353.288 649.784 351.986 646.406 350.073C644.761 349.148 643.204 348.051 641.865 346.703C640.37 345.172 639.371 343.287 638.364 341.411C635.217 335.469 633.544 328.85 630.01 323.108C623.407 312.408 611.029 305.763 598.673 304.607C591.774 303.962 584.799 305.087 578.581 308.198C577.619 308.68 578.499 310.089 579.452 309.617C590.694 304.006 604.366 305.45 615.135 311.44C620.864 314.631 625.826 319.163 629.125 324.865C632.413 330.54 634.053 336.981 637.193 342.736C639.127 346.283 641.392 348.992 644.879 351.118C648.443 353.278 652.423 354.646 656.207 356.358C657.18 356.796 657.97 355.333 656.988 354.885Z" fill="#D1D1D1"/>
<path d="M638.165 350.082C619.052 347.12 598.669 346.811 581.097 337.842C575.997 335.242 571.354 331.903 567.373 327.801C566.634 327.035 565.498 328.246 566.236 329.012C580.625 343.796 601.874 347.122 621.431 349.553C626.893 350.234 632.363 350.849 637.802 351.691C638.841 351.864 639.213 350.245 638.165 350.082Z" fill="#D1D1D1"/>
<path d="M628.644 339.813C616.764 325.033 597.475 317.369 578.935 315.911C577.871 315.823 577.932 317.484 578.987 317.563C596.867 318.967 615.763 326.409 627.224 340.666C627.879 341.5 629.3 340.647 628.644 339.813Z" fill="#D1D1D1"/>
<path d="M612.348 336.178C604.646 335.108 597.446 331.757 590.981 327.547C590.088 326.964 589.307 328.436 590.2 329.019C596.771 333.292 604.142 336.713 611.976 337.797C613.023 337.942 613.414 336.323 612.348 336.178Z" fill="#D1D1D1"/>
<path d="M631.996 356.847C623.746 359.29 615.257 361.29 606.604 361.058C597.34 360.799 588.803 357.669 580.628 353.494C574.927 350.584 569.123 347.104 565.725 341.508C565.17 340.586 563.75 341.458 564.305 342.38C567.257 347.229 571.939 350.604 576.809 353.353C581.343 355.896 586.104 358.197 591.034 359.872C599.374 362.726 608.133 363.349 616.842 362.085C622.146 361.305 627.339 359.984 632.469 358.458C633.493 358.143 633.02 356.551 631.996 356.847Z" fill="#D1D1D1"/>
<path d="M629.316 363.426C623.342 370.101 615.493 374.852 606.644 376.46C596.58 378.275 586.368 375.959 578.17 369.849C573.224 366.154 569.012 361.58 564.529 357.353C563.754 356.626 562.608 357.828 563.392 358.564C571.729 366.427 579.612 375.376 591.351 377.83C600.365 379.714 609.801 378.548 618.015 374.359C622.769 371.933 626.977 368.538 630.536 364.571C631.244 363.759 630.034 362.623 629.316 363.426Z" fill="#D1D1D1"/>
<path d="M603.122 368.396C597.235 368.556 591.312 367.278 586.637 363.527C585.808 362.858 584.671 364.069 585.5 364.738C590.523 368.779 596.818 370.242 603.164 370.058C604.244 370.033 604.192 368.362 603.122 368.396Z" fill="#D1D1D1"/>
<path d="M618.031 354.454C610.857 354.354 603.797 353.047 596.838 351.399C595.796 351.15 595.424 352.769 596.466 353.017C603.557 354.699 610.769 356.02 618.073 356.116C619.154 356.128 619.103 354.476 618.031 354.454Z" fill="#D1D1D1"/>
<path d="M581.532 346.013C577.852 344.326 574.219 342.665 571.491 339.576C570.78 338.781 569.644 339.992 570.354 340.787C573.18 343.986 576.965 345.735 580.77 347.484C581.723 347.924 582.514 346.461 581.532 346.013Z" fill="#D1D1D1"/>
<path d="M579.366 326.977C575.919 325.527 572.648 323.733 569.192 322.292C568.211 321.882 567.43 323.354 568.411 323.765C571.859 325.215 575.129 327.009 578.585 328.449C579.575 328.85 580.356 327.397 579.366 326.977Z" fill="#D1D1D1"/>
<path d="M644.818 333.856C642.918 326.022 641.569 317.739 636.524 311.181C631.215 304.283 623.324 299.281 614.905 297.209C610.009 296.003 604.926 295.733 599.911 296.146C598.843 296.237 598.894 297.889 599.963 297.799C611.295 296.864 621.962 299.898 630.607 307.375C634.528 310.765 637.505 314.89 639.339 319.746C641.112 324.454 642.03 329.452 643.226 334.329C643.484 335.374 645.066 334.891 644.818 333.856Z" fill="#D1D1D1"/>
<path d="M645.299 311.709C643.139 307.86 640.987 303.944 638.063 300.597C635.08 297.178 631.321 294.76 626.984 293.423C625.969 293.108 625.597 294.727 626.612 295.042C630.816 296.346 634.36 298.779 637.2 302.138C639.883 305.294 641.859 308.99 643.879 312.582C644.406 313.514 645.817 312.652 645.299 311.709Z" fill="#D1D1D1"/>
<path d="M574.09 174.061C576.819 165.57 576.573 155.101 573.542 146.729C571.45 140.966 566.665 133.459 559.413 135.067C553.061 136.484 550.418 144.114 550.518 149.892C550.64 156.381 552.507 163.252 555.871 168.829C557.528 171.577 559.766 174.275 562.741 175.686C565.864 177.173 569.158 176.874 572.238 175.432C573.914 174.65 572.396 172.221 570.736 172.986C559.692 178.131 554.297 159.94 553.525 152.338C553.032 147.447 553.739 141.077 558.595 138.413C564.118 135.37 568.838 142.345 570.463 146.665C573.572 154.954 574.016 164.979 571.302 173.454C570.741 175.188 573.53 175.828 574.09 174.061Z" fill="#7DCAC9"/>
<path d="M571.901 173.484C568.401 167.718 566.784 161.05 564.979 154.614C564.486 152.832 561.727 153.665 562.236 155.43C564.112 162.09 565.851 168.998 569.47 174.971C570.41 176.544 572.873 175.057 571.901 173.484Z" fill="#7DCAC9"/>
<path d="M552.466 181.082C548.059 177.919 543.56 174.889 538.875 172.123C533.529 168.958 527.559 165.489 521.328 164.538C519.131 164.203 516.686 164.2 514.801 165.539C512.726 167.014 512.16 169.623 512.219 172.034C512.305 175.82 513.401 179.801 515.73 182.803C518.396 186.249 522.209 188.572 526.254 190.014C534.916 193.09 546.996 192.559 552.379 184.016C553.367 182.462 550.816 181.135 549.844 182.671C545.648 189.347 536.042 189.75 529.201 187.944C525.429 186.947 521.745 185.122 519.033 182.293C516.59 179.748 515.449 176.416 515.13 172.945C515.03 171.815 514.992 170.618 515.33 169.522C515.536 168.835 515.954 168.223 516.349 167.935C517.599 167.004 519.481 167.106 521.191 167.424C526.744 168.429 531.988 171.436 536.803 174.23C539.64 175.888 542.416 177.646 545.144 179.453C546.203 180.164 547.261 180.875 548.321 181.619C548.768 181.945 549.215 182.238 549.662 182.564C550.059 182.843 550.358 183.06 550.507 183.169C551.997 184.222 553.973 182.151 552.466 181.082Z" fill="#7DCAC9"/>
<path d="M550.256 182.399C544.086 181.349 538.234 179.091 532.284 177.305C530.519 176.778 529.878 179.568 531.643 180.094C537.593 181.88 543.444 184.139 549.614 185.189C551.421 185.504 552.078 182.698 550.256 182.399Z" fill="#7DCAC9"/>
<path d="M541.066 152.104C539.895 144.692 538.393 136.53 533.542 130.532C530.577 126.87 526.17 123.172 521.414 122.288C519.379 121.915 517.25 122.177 515.675 123.62C513.865 125.281 513.395 127.854 513.274 130.19C512.979 136.288 516.844 141.8 521.254 145.627C526.081 149.812 532.387 153.125 538.862 153.583C540.695 153.702 540.59 150.84 538.773 150.736C534.051 150.417 529.363 148.088 525.554 145.392C521.431 142.463 517.578 138.376 516.4 133.313C515.653 130.13 515.992 124.42 520.497 125.037C524.432 125.559 528.125 128.713 530.692 131.562C535.608 137.056 537.092 145.138 538.203 152.179C538.486 153.983 541.35 153.908 541.066 152.104Z" fill="#7DCAC9"/>
<path d="M539.346 149.924C535.442 146.259 531.963 142.209 528.06 138.544C526.725 137.291 524.749 139.362 526.101 140.63C530.005 144.295 533.483 148.346 537.387 152.01C538.738 153.279 540.697 151.192 539.346 149.924Z" fill="#7DCAC9"/>
<path d="M1330.37 343.265C1356.85 354.94 1394.43 358.314 1417.52 337.657C1418.15 337.097 1418.05 336.112 1417.53 335.505C1411.93 329.079 1403.17 325.648 1395.35 322.785C1386.01 319.351 1376.82 317.101 1366.81 317.009C1357.58 316.92 1349.41 318.733 1341.18 322.944C1337.05 325.044 1333.11 327.502 1329.24 330.031C1327.52 331.166 1325.78 332.323 1324.07 333.492C1322.87 334.311 1321.24 334.996 1320.5 336.278C1320.06 337.034 1320.38 337.89 1321.05 338.333C1323.98 340.358 1327.29 341.568 1330.37 343.265C1332.08 344.195 1333.61 341.58 1331.89 340.639C1328.8 338.942 1325.49 337.731 1322.58 335.739C1322.76 336.436 1322.95 337.132 1323.13 337.795C1323.63 336.933 1326.06 335.819 1327.03 335.171C1328.64 334.082 1330.27 333.007 1331.88 331.952C1335.38 329.683 1338.95 327.485 1342.67 325.6C1350.61 321.556 1358.44 319.94 1367.34 320.064C1376.64 320.189 1385.11 322.309 1393.79 325.441C1401.34 328.147 1409.95 331.438 1415.37 337.647C1415.37 336.918 1415.37 336.223 1415.38 335.494C1404.25 345.435 1389.18 349.115 1374.57 349.311C1360.02 349.51 1345.21 346.508 1331.87 340.627C1330.12 339.869 1328.58 342.483 1330.37 343.265Z" fill="#83C5C4"/>
<path d="M1325.66 338.165C1341.27 335.605 1357.12 334.864 1372.91 335.131C1379.72 335.248 1386.48 335.036 1393.29 334.957C1400.39 334.885 1407.74 335.034 1414.48 337.582C1416.3 338.268 1417.07 335.325 1415.25 334.639C1408.75 332.203 1401.65 331.884 1394.79 331.905C1387.5 331.922 1380.23 332.213 1372.93 332.088C1356.85 331.826 1340.79 332.641 1324.91 335.239C1322.96 335.567 1323.76 338.496 1325.66 338.165Z" fill="#83C5C4"/>
<path d="M1406.12 337.775C1389.83 341.229 1373.27 345.057 1356.5 343.416C1354.56 343.223 1354.58 346.258 1356.51 346.45C1373.52 348.117 1390.37 344.229 1406.89 340.713C1408.81 340.307 1408.03 337.389 1406.12 337.775Z" fill="#83C5C4"/>
<path d="M1382.01 325.927C1372.45 324.862 1363.07 326.112 1353.63 327.554C1351.7 327.84 1352.5 330.77 1354.41 330.472C1363.63 329.07 1372.74 327.912 1382.04 328.941C1383.97 329.188 1383.94 326.141 1382.01 325.927Z" fill="#83C5C4"/>
<path d="M1352.05 338.973C1347.97 338.52 1343.94 337.592 1339.81 337.506C1338.98 337.479 1338.3 338.231 1338.3 339.047C1338.3 339.883 1339.01 340.546 1339.84 340.553C1343.97 340.639 1348 341.567 1352.09 342.019C1352.91 342.102 1353.6 341.241 1353.59 340.479C1353.57 339.597 1352.86 339.076 1352.05 338.973Z" fill="#83C5C4"/>
<path d="M1303.69 315.672C1332.69 314.147 1367.55 300.147 1378.89 271.279C1379.22 270.462 1378.48 269.7 1377.8 269.42C1369.78 266.164 1360.2 267.13 1351.85 268.138C1342.63 269.257 1334.04 271.164 1325.59 275.166C1317.11 279.178 1310.35 284.326 1304.69 291.846C1301.78 295.715 1299.25 299.857 1296.82 304.06C1295.74 305.93 1294.67 307.833 1293.61 309.716C1292.87 311.052 1291.72 312.407 1291.64 313.957C1291.61 314.552 1292.14 315.335 1292.78 315.428C1296.43 315.963 1300.03 315.549 1303.69 315.672C1305.64 315.735 1305.63 312.701 1303.67 312.638C1300.3 312.511 1296.9 312.958 1293.55 312.506C1293.93 313.007 1294.3 313.476 1294.69 313.977C1294.75 313.002 1296.55 310.708 1297.14 309.678C1298.14 307.901 1299.14 306.124 1300.18 304.371C1302.38 300.6 1304.69 296.891 1307.33 293.397C1312.74 286.21 1319.43 281.416 1327.53 277.632C1335.62 273.868 1343.9 272.149 1352.71 271.125C1360.58 270.208 1369.52 269.345 1377.04 272.396C1376.67 271.765 1376.31 271.168 1375.95 270.537C1370.49 284.418 1358.63 294.467 1345.67 301.22C1332.77 307.944 1318.21 311.894 1303.7 312.65C1301.73 312.749 1301.75 315.783 1303.69 315.672Z" fill="#83C5C4"/>
<path d="M1296.85 313.433C1310.02 303.833 1324.2 295.827 1338.87 288.775C1344.92 285.877 1350.76 282.609 1356.7 279.543C1362.69 276.467 1369.02 273.457 1375.78 272.734C1377.69 272.523 1377.7 269.501 1375.76 269.699C1362.49 271.118 1351.13 279.576 1339.38 285.174C1324.01 292.467 1309.1 300.756 1295.34 310.799C1293.79 311.944 1295.29 314.579 1296.85 313.433Z" fill="#83C5C4"/>
<path d="M1368.68 276.676C1355.81 287.012 1342.84 297.875 1327.3 303.918C1325.49 304.614 1326.26 307.552 1328.08 306.835C1344.16 300.596 1357.5 289.528 1370.82 278.839C1372.34 277.615 1370.18 275.473 1368.68 276.676Z" fill="#83C5C4"/>
<path d="M1342.16 276.807C1333.13 280.166 1325.32 285.436 1317.52 290.989C1315.94 292.122 1317.45 294.757 1319.03 293.624C1326.59 288.241 1334.18 283.012 1342.95 279.725C1344.77 279.041 1343.99 276.123 1342.16 276.807Z" fill="#83C5C4"/>
<path d="M1321.31 301.948C1317.34 303.437 1313.21 304.472 1309.37 306.317C1308.66 306.665 1308.4 307.715 1308.79 308.391C1309.26 309.137 1310.1 309.318 1310.87 308.973C1311.81 308.507 1312.54 308.204 1313.44 307.856C1314.41 307.49 1315.39 307.158 1316.37 306.825C1318.27 306.19 1320.18 305.609 1322.07 304.908C1322.82 304.637 1323.42 303.891 1323.14 303.059C1322.96 302.308 1322.12 301.66 1321.31 301.948Z" fill="#83C5C4"/>
</g>
</svg>
