<svg width="1920" height="298" viewBox="0 0 1920 298" fill="none" xmlns="http://www.w3.org/2000/svg">
<rect x="0.00012207" width="1920" height="298" fill="#FAFAFA"/>
<mask id="mask0_4_2" style="mask-type:alpha" maskUnits="userSpaceOnUse" x="0" y="2" width="1920" height="296">
<rect y="2" width="1920" height="296" fill="#E3F1E9"/>
</mask>
<g mask="url(#mask0_4_2)">
<path d="M717.647 116.194C709.45 112.078 698.774 110.674 689.788 112.43C683.601 113.644 675.217 117.32 675.705 124.943C676.14 131.621 683.476 135.513 689.362 136.325C695.975 137.227 703.252 136.416 709.45 133.879C712.505 132.63 715.6 130.782 717.504 127.982C719.509 125.044 719.725 121.65 718.747 118.292C718.217 116.466 715.509 117.623 716.024 119.431C719.506 131.466 700.17 134.073 692.323 133.656C687.276 133.384 680.915 131.658 678.975 126.304C676.757 120.21 684.589 116.517 689.236 115.549C698.15 113.699 708.407 114.833 716.589 118.931C718.262 119.775 719.353 117.042 717.647 116.194Z" fill="#DDDDDD"/>
<path d="M716.714 118.324C710.302 120.969 703.27 121.558 696.446 122.374C694.557 122.594 694.967 125.529 696.841 125.291C703.905 124.437 711.199 123.763 717.84 121.029C719.587 120.322 718.465 117.584 716.714 118.324Z" fill="#DDDDDD"/>
<path d="M721.362 139.273C717.451 143.25 713.661 147.343 710.11 151.666C706.049 156.598 701.58 162.116 699.629 168.297C698.942 170.476 698.552 172.96 699.615 175.087C700.786 177.429 703.347 178.417 705.806 178.737C709.667 179.248 713.885 178.764 717.304 176.872C721.226 174.708 724.19 171.2 726.294 167.318C730.789 159.003 732.159 146.645 724.329 139.824C722.906 138.575 721.154 140.958 722.562 142.188C728.682 147.507 727.574 157.331 724.657 163.997C723.048 167.672 720.611 171.127 717.308 173.435C714.335 175.516 710.77 176.148 707.192 175.924C706.028 175.847 704.805 175.696 703.746 175.179C703.08 174.862 702.524 174.34 702.294 173.893C701.546 172.475 701.947 170.58 702.541 168.892C704.44 163.409 708.323 158.556 711.923 154.104C714.057 151.484 716.281 148.941 718.549 146.455C719.439 145.492 720.329 144.528 721.252 143.569C721.654 143.166 722.022 142.759 722.424 142.356C722.77 141.996 723.038 141.727 723.172 141.593C724.478 140.245 722.686 137.911 721.362 139.273Z" fill="#DDDDDD"/>
<path d="M722.352 141.729C720.31 147.833 717.09 153.421 714.335 159.185C713.52 160.895 716.253 161.988 717.068 160.277C719.823 154.514 723.043 148.925 725.085 142.822C725.69 141.035 722.943 139.924 722.352 141.729Z" fill="#DDDDDD"/>
<path d="M690.116 146.276C682.4 146.295 673.869 146.531 667.007 150.513C662.817 152.946 658.364 156.839 656.713 161.532C656.013 163.542 655.943 165.747 657.16 167.574C658.561 169.676 661.102 170.56 663.456 171.053C669.606 172.316 675.817 169.261 680.403 165.384C685.419 161.141 689.782 155.257 691.27 148.75C691.681 146.906 688.756 146.561 688.363 148.391C687.292 153.138 684.186 157.534 680.844 160.977C677.216 164.705 672.454 167.973 667.123 168.37C663.771 168.626 658.022 167.379 659.362 162.899C660.514 158.984 664.302 155.729 667.603 153.571C673.963 149.444 682.409 149.214 689.739 149.198C691.618 149.196 691.994 146.274 690.116 146.276Z" fill="#DDDDDD"/>
<path d="M687.628 147.683C683.287 151.071 678.621 153.965 674.28 157.353C672.796 158.511 674.588 160.845 676.091 159.673C680.432 156.285 685.098 153.391 689.438 150.003C690.941 148.831 689.13 146.511 687.628 147.683Z" fill="#DDDDDD"/>
<path d="M1176.93 157.742C1188.56 175.588 1211.81 192.267 1237.71 187.615C1238.42 187.492 1238.85 186.806 1238.82 186.208C1238.38 179.842 1234.32 174.223 1230.58 169.335C1226.13 163.487 1221.17 158.476 1214.57 154.562C1208.48 150.951 1202.13 148.995 1194.5 148.585C1190.68 148.372 1186.81 148.465 1182.94 148.632C1181.22 148.714 1179.47 148.805 1177.74 148.912C1176.52 148.986 1175.09 148.807 1173.94 149.363C1173.26 149.69 1173.04 150.374 1173.26 150.922C1174.16 153.375 1175.75 155.442 1176.93 157.742C1177.59 159.008 1179.95 157.887 1179.28 156.605C1178.1 154.305 1176.51 152.237 1175.6 149.81C1175.36 150.338 1175.13 150.866 1174.91 151.369C1175.68 150.996 1177.87 151.204 1178.84 151.15C1180.47 151.056 1182.1 150.979 1183.72 150.91C1187.2 150.77 1190.7 150.703 1194.13 150.901C1201.48 151.308 1207.51 153.263 1213.36 156.77C1219.47 160.429 1224.02 165.081 1228.19 170.474C1231.82 175.154 1235.86 180.627 1236.29 186.78C1236.66 186.303 1237.02 185.85 1237.39 185.373C1224.92 187.606 1213.02 184.214 1203.21 178.719C1193.44 173.247 1185.13 165.579 1179.27 156.589C1178.5 155.419 1176.14 156.54 1176.93 157.742Z" fill="#DDDDDD"/>
<path d="M1176.41 152.587C1188.09 156.917 1199 162.533 1209.36 168.789C1213.82 171.484 1218.43 173.95 1222.99 176.517C1227.75 179.205 1232.55 182.13 1235.73 186.396C1236.59 187.545 1238.61 185.915 1237.75 184.765C1234.68 180.666 1230.12 177.722 1225.55 175.098C1220.69 172.299 1215.72 169.695 1210.93 166.802C1200.38 160.439 1189.29 154.792 1177.4 150.38C1175.94 149.843 1174.97 152.072 1176.41 152.587Z" fill="#DDDDDD"/>
<path d="M1230.08 183.305C1217.49 179.296 1204.52 175.429 1194.22 167.897C1193.03 167.026 1191.49 169.02 1192.67 169.891C1203.13 177.531 1216.31 181.47 1229.09 185.527C1230.57 185.999 1231.55 183.785 1230.08 183.305Z" fill="#DDDDDD"/>
<path d="M1220.11 166.259C1214.3 161.88 1207.43 159.086 1200.42 156.398C1198.99 155.842 1198.02 158.071 1199.45 158.611C1206.29 161.242 1212.93 163.989 1218.59 168.244C1219.75 169.15 1221.28 167.14 1220.11 166.259Z" fill="#DDDDDD"/>
<path d="M1193.53 163.276C1191.05 161.407 1188.84 159.245 1186.14 157.6C1185.61 157.264 1184.77 157.493 1184.35 158.03C1183.92 158.576 1184.06 159.284 1184.61 159.61C1187.31 161.256 1189.51 163.417 1192 165.286C1192.5 165.656 1193.4 165.359 1193.78 164.856C1194.22 164.269 1194.02 163.655 1193.53 163.276Z" fill="#DDDDDD"/>
<path d="M1173.3 129.387C1193.35 139.552 1223.67 143.795 1245.97 129.242C1246.61 128.834 1246.51 128.05 1246.2 127.605C1242.54 122.385 1235.67 119.329 1229.61 116.776C1222.91 113.957 1216.22 111.902 1208.56 111.272C1200.87 110.635 1193.75 111.408 1186.14 114.157C1182.23 115.574 1178.43 117.314 1174.67 119.134C1173 119.944 1171.31 120.78 1169.65 121.606C1168.47 122.195 1167.02 122.642 1166.17 123.626C1165.84 124.003 1165.79 124.719 1166.18 125.029C1168.32 126.783 1170.93 127.899 1173.3 129.387C1174.56 130.181 1176.11 128.187 1174.84 127.393C1172.66 126.011 1170.18 124.996 1168.18 123.408C1168.17 123.884 1168.18 124.335 1168.18 124.811C1168.72 124.195 1171.09 123.384 1172.01 122.938C1173.58 122.158 1175.15 121.377 1176.74 120.629C1180.14 119.007 1183.57 117.465 1187.1 116.189C1194.37 113.562 1201.27 112.997 1208.59 113.635C1215.89 114.282 1222.27 116.344 1228.65 119.062C1234.35 121.493 1240.73 124.367 1244.17 129.261C1244.25 128.707 1244.32 128.179 1244.4 127.625C1233.67 134.619 1220.65 136.64 1208.59 136.079C1196.57 135.516 1184.88 132.5 1174.85 127.409C1173.49 126.718 1171.95 128.712 1173.3 129.387Z" fill="#DDDDDD"/>
<path d="M1169.9 125.289C1183.56 124.067 1197.08 124.28 1210.43 125.305C1215.93 125.733 1221.48 125.84 1227 126.12C1232.55 126.407 1238.3 126.873 1243.16 128.998C1244.54 129.598 1246.09 127.62 1244.7 127.004C1235.16 122.827 1223.28 123.997 1212.61 123.141C1198.67 122.004 1184.52 121.698 1170.25 122.982C1168.62 123.133 1168.28 125.44 1169.9 125.289Z" fill="#DDDDDD"/>
<path d="M1236.43 128.849C1222.59 130.671 1208.42 132.796 1195 130.773C1193.45 130.534 1192.46 132.757 1194.03 132.986C1207.9 135.086 1222.43 132.969 1236.75 131.092C1238.38 130.875 1238.04 128.641 1236.43 128.849Z" fill="#DDDDDD"/>
<path d="M1218.74 118.728C1211.02 117.452 1203.14 117.899 1195.11 118.534C1193.48 118.669 1193.14 120.976 1194.77 120.841C1202.55 120.226 1210.26 119.721 1217.77 120.941C1219.33 121.195 1220.3 118.982 1218.74 118.728Z" fill="#DDDDDD"/>
<path d="M1192.02 127.177C1188.62 126.624 1185.35 125.712 1181.85 125.442C1181.21 125.399 1180.49 125.983 1180.41 126.578C1180.34 127.247 1180.81 127.692 1181.49 127.758C1182.35 127.816 1183 127.9 1183.78 128.019C1184.61 128.152 1185.42 128.311 1186.24 128.469C1187.84 128.787 1189.4 129.14 1191.02 129.408C1191.65 129.518 1192.43 129.259 1192.67 128.607C1192.93 128.045 1192.71 127.3 1192.02 127.177Z" fill="#DDDDDD"/>
</g>
</svg>
