<svg width="1920" height="450" viewBox="0 0 1920 450" fill="none" xmlns="http://www.w3.org/2000/svg">
<mask id="mask0_2_14117" style="mask-type:alpha" maskUnits="userSpaceOnUse" x="0" y="0" width="1920" height="450">
<rect width="1920" height="450" fill="#E3F1E9"/>
</mask>
<g mask="url(#mask0_2_14117)">
<path d="M818.109 110.842C811.887 108.701 804.175 104.887 804.105 97.2581C804.065 92.0814 807.035 87.3067 808.462 82.4497C811.205 73.1057 807.661 62.872 801.691 55.5724C795.564 48.0711 786.584 42.7752 777.005 41.1823C772.3 40.3925 767.437 40.5287 762.823 41.7565C758.191 42.9848 753.762 45.278 749.666 47.7392C740.554 53.2359 732.458 60.5985 725.927 68.9919C719.513 77.2406 714.325 86.8223 712.394 97.1836C711.51 101.967 711.309 106.973 712.165 111.785C713.201 117.569 716.046 122.901 719.776 127.387C727.412 136.56 738.815 142.69 750.363 145.329C761.881 147.941 773.722 144.951 782.074 136.462C786.436 132.028 789.348 126.579 792.174 121.104C793.61 118.333 795.312 115.375 798.457 114.354C801.554 113.343 804.743 114.332 807.61 115.566C810.078 116.643 812.422 117.987 814.889 119.046C815.327 119.238 815.746 119.103 816.015 118.7C817.207 116.848 818.63 115.177 819.372 113.067C819.717 112.06 818.098 111.688 817.754 112.696C817.082 114.634 815.646 116.221 814.553 117.929C814.935 117.813 815.298 117.698 815.68 117.583C811.079 115.615 806.53 112.273 801.324 112.289C794.85 112.317 792.183 117.467 789.589 122.559C786.817 127.975 783.493 133.184 778.855 137.213C774.427 141.057 768.943 143.581 763.131 144.34C751.226 145.903 738.483 140.793 729.036 133.783C724.206 130.197 719.932 125.766 717.032 120.473C714.321 115.523 713.174 110.09 713.289 104.457C713.491 94.1132 717.662 84.1598 723.229 75.5904C729.066 66.6176 736.732 58.7237 745.427 52.5073C753.213 46.9495 762.214 42.0954 772.023 42.356C781.795 42.6177 791.317 47.1822 798.131 54.1071C804.741 60.8412 809.362 70.9748 807.209 80.5443C806.112 85.4378 803.385 89.857 802.601 94.8439C801.756 100.284 804.343 105.173 808.791 108.273C811.5 110.16 814.584 111.396 817.69 112.453C818.754 112.814 819.116 111.186 818.109 110.842Z" fill="#D1D1D1"/>
<path d="M812.376 111.42C808.849 109.822 805.171 108.52 801.794 106.607C800.149 105.682 798.592 104.585 797.253 103.237C795.758 101.706 794.759 99.8207 793.751 97.9451C790.605 92.0028 788.932 85.3839 785.397 79.6418C778.794 68.9418 766.417 62.2975 754.061 61.1408C747.161 60.4961 740.186 61.6206 733.969 64.732C733.006 65.2138 733.887 66.6236 734.84 66.1515C746.082 60.5399 759.754 61.9837 770.523 67.9743C776.251 71.1655 781.214 75.6967 784.513 81.3992C787.801 87.0739 789.44 93.5153 792.581 99.2699C794.515 102.817 796.78 105.526 800.267 107.652C803.83 109.812 807.811 111.18 811.595 112.892C812.567 113.331 813.358 111.868 812.376 111.42Z" fill="#D1D1D1"/>
<path d="M793.553 106.616C774.44 103.654 754.057 103.345 736.485 94.3759C731.385 91.7756 726.742 88.4371 722.761 84.3352C722.023 83.5693 720.886 84.7802 721.624 85.5461C736.014 100.33 757.262 103.656 776.819 106.087C782.281 106.768 787.751 107.383 793.19 108.225C794.229 108.398 794.601 106.78 793.553 106.616Z" fill="#D1D1D1"/>
<path d="M784.032 96.3468C772.151 81.5673 752.863 73.9029 734.323 72.4452C733.259 72.3569 733.32 74.0183 734.375 74.0975C752.255 75.501 771.151 82.943 782.611 97.2003C783.267 98.0346 784.687 97.1811 784.032 96.3468Z" fill="#D1D1D1"/>
<path d="M767.736 92.7125C760.034 91.6424 752.834 88.2914 746.368 84.0806C745.476 83.4982 744.695 84.9703 745.587 85.5527C752.158 89.8259 759.53 93.2466 767.363 94.3314C768.411 94.4765 768.802 92.8571 767.736 92.7125Z" fill="#D1D1D1"/>
<path d="M787.384 113.381C779.135 115.824 770.645 117.824 761.993 117.592C752.728 117.333 744.191 114.203 736.016 110.028C730.315 107.118 724.511 103.638 721.113 98.0422C720.558 97.1201 719.138 97.9923 719.693 98.9144C722.645 103.763 727.327 107.138 732.197 109.887C736.731 112.43 741.492 114.731 746.422 116.406C754.762 119.261 763.521 119.884 772.23 118.619C777.534 117.839 782.727 116.518 787.857 114.992C788.881 114.677 788.409 113.085 787.384 113.381Z" fill="#D1D1D1"/>
<path d="M784.705 119.96C778.73 126.635 770.882 131.386 762.033 132.994C751.969 134.809 741.757 132.493 733.559 126.383C728.613 122.688 724.401 118.114 719.917 113.887C719.143 113.16 717.996 114.362 718.781 115.098C727.118 122.961 735 131.91 746.739 134.364C755.754 136.248 765.19 135.083 773.404 130.893C778.158 128.467 782.365 125.072 785.925 121.105C786.632 120.293 785.422 119.157 784.705 119.96Z" fill="#D1D1D1"/>
<path d="M758.51 124.93C752.623 125.09 746.7 123.812 742.025 120.062C741.196 119.393 740.059 120.603 740.888 121.272C745.911 125.313 752.206 126.776 758.553 126.592C759.633 126.567 759.58 124.896 758.51 124.93Z" fill="#D1D1D1"/>
<path d="M773.419 110.988C766.246 110.888 759.185 109.581 752.227 107.933C751.185 107.684 750.813 109.303 751.854 109.552C758.946 111.233 766.157 112.554 773.462 112.65C774.543 112.662 774.491 111.01 773.419 110.988Z" fill="#D1D1D1"/>
<path d="M736.919 102.547C733.239 100.86 729.607 99.1995 726.879 96.1101C726.168 95.3151 725.031 96.5261 725.742 97.321C728.568 100.52 732.353 102.27 736.157 104.018C737.111 104.458 737.901 102.995 736.919 102.547Z" fill="#D1D1D1"/>
<path d="M734.754 83.5111C731.307 82.061 728.037 80.2669 724.58 78.8265C723.6 78.4161 722.819 79.8882 723.799 80.2986C727.247 81.7487 730.517 83.5428 733.973 84.9832C734.963 85.3839 735.744 83.9306 734.754 83.5111Z" fill="#D1D1D1"/>
<path d="M800.206 90.3897C798.307 82.5563 796.957 74.2731 791.912 67.7146C786.603 60.8169 778.712 55.8152 770.293 53.7436C765.397 52.537 760.314 52.2667 755.299 52.6803C754.231 52.7707 754.283 54.4231 755.351 54.3326C766.683 53.3982 777.35 56.4319 785.995 63.9093C789.916 67.299 792.893 71.4236 794.727 76.2801C796.5 80.9881 797.418 85.9865 798.614 90.8633C798.872 91.9076 800.454 91.4249 800.206 90.3897Z" fill="#D1D1D1"/>
<path d="M800.687 68.2436C798.527 64.3936 796.375 60.4777 793.451 57.1314C790.468 53.7118 786.709 51.2943 782.372 49.9571C781.357 49.6418 780.985 51.2606 782 51.5759C786.204 52.8798 789.748 55.3135 792.588 58.6719C795.271 61.8286 797.247 65.5246 799.267 69.1158C799.795 70.0482 801.205 69.1856 800.687 68.2436Z" fill="#D1D1D1"/>
<path d="M778.091 369.062C780.82 360.571 780.574 350.102 777.543 341.729C775.451 335.967 770.666 328.46 763.414 330.068C757.062 331.484 754.419 339.115 754.519 344.892C754.641 351.382 756.508 358.253 759.872 363.829C761.529 366.578 763.767 369.275 766.742 370.686C769.865 372.174 773.159 371.874 776.239 370.432C777.915 369.65 776.397 367.221 774.737 367.986C763.693 373.132 758.298 354.941 757.526 347.339C757.033 342.448 757.74 336.078 762.596 333.413C768.119 330.371 772.839 337.345 774.464 341.666C777.573 349.954 778.017 359.98 775.303 368.454C774.742 370.189 777.53 370.828 778.091 369.062Z" fill="#E1D4DB"/>
<path d="M775.903 368.485C772.403 362.719 770.785 356.05 768.981 349.614C768.488 347.833 765.729 348.665 766.237 350.43C768.114 357.091 769.852 363.998 773.472 369.971C774.412 371.544 776.875 370.057 775.903 368.485Z" fill="#E1D4DB"/>
<path d="M756.467 376.082C752.06 372.92 747.561 369.889 742.876 367.124C737.53 363.958 731.56 360.489 725.328 359.538C723.132 359.203 720.687 359.2 718.802 360.54C716.727 362.014 716.161 364.623 716.22 367.034C716.306 370.821 717.402 374.801 719.731 377.804C722.397 381.249 726.21 383.573 730.255 385.014C738.917 388.09 750.996 387.559 756.38 379.016C757.368 377.462 754.817 376.135 753.845 377.672C749.649 384.348 740.043 384.751 733.202 382.945C729.43 381.948 725.746 380.122 723.034 377.294C720.591 374.748 719.45 371.417 719.131 367.945C719.031 366.815 718.993 365.618 719.331 364.522C719.537 363.836 719.955 363.223 720.35 362.935C721.6 362.005 723.482 362.107 725.192 362.425C730.745 363.43 735.989 366.437 740.804 369.23C743.641 370.889 746.417 372.646 749.145 374.454C750.204 375.165 751.262 375.876 752.322 376.619C752.769 376.945 753.216 377.239 753.663 377.564C754.06 377.843 754.359 378.06 754.508 378.169C755.998 379.223 757.974 377.152 756.467 376.082Z" fill="#E1D4DB"/>
<path d="M754.257 377.4C748.087 376.35 742.236 374.091 736.286 372.305C734.52 371.779 733.879 374.568 735.644 375.095C741.594 376.881 747.446 379.139 753.616 380.189C755.423 380.504 756.08 377.698 754.257 377.4Z" fill="#E1D4DB"/>
<path d="M745.067 347.104C743.896 339.693 742.393 331.531 737.542 325.532C734.578 321.87 730.171 318.173 725.415 317.288C723.379 316.916 721.25 317.178 719.676 318.621C717.866 320.281 717.396 322.855 717.275 325.19C716.98 331.288 720.844 336.8 725.255 340.627C730.082 344.813 736.387 348.126 742.862 348.583C744.696 348.703 744.59 345.84 742.773 345.736C738.051 345.417 733.364 343.089 729.555 340.393C725.431 337.464 721.579 333.376 720.4 328.313C719.653 325.131 719.992 319.42 724.497 320.038C728.432 320.56 732.125 323.713 734.692 326.562C739.609 332.057 741.092 340.138 742.203 347.179C742.486 348.984 745.35 348.909 745.067 347.104Z" fill="#E1D4DB"/>
<path d="M743.347 344.924C739.443 341.26 735.964 337.209 732.061 333.544C730.726 332.291 728.75 334.362 730.102 335.631C734.006 339.296 737.484 343.346 741.388 347.011C742.739 348.279 744.698 346.193 743.347 344.924Z" fill="#E1D4DB"/>
<path d="M927.372 400.265C953.853 411.94 991.435 415.314 1014.52 394.657C1015.15 394.097 1015.05 393.112 1014.53 392.505C1008.93 386.079 1000.17 382.648 992.352 379.785C983.008 376.351 973.821 374.101 963.81 374.009C954.581 373.92 946.414 375.733 938.179 379.944C934.051 382.044 930.109 384.502 926.238 387.031C924.517 388.166 922.784 389.323 921.072 390.492C919.87 391.311 918.241 391.996 917.501 393.278C917.064 394.034 917.383 394.89 918.052 395.333C920.977 397.358 924.287 398.568 927.372 400.265C929.078 401.195 930.616 398.58 928.888 397.639C925.803 395.942 922.493 394.731 919.578 392.739C919.764 393.436 919.951 394.132 920.129 394.795C920.627 393.933 923.064 392.819 924.027 392.171C925.637 391.082 927.267 390.007 928.886 388.952C932.382 386.683 935.95 384.485 939.674 382.6C947.616 378.556 955.445 376.94 964.345 377.064C973.637 377.189 982.113 379.309 990.79 382.441C998.339 385.147 1006.95 388.438 1012.37 394.647C1012.37 393.918 1012.38 393.223 1012.38 392.494C1001.25 402.435 986.177 406.115 971.57 406.311C957.017 406.51 942.209 403.508 928.867 397.627C927.118 396.869 925.581 399.483 927.372 400.265Z" fill="#DDD9DA"/>
<path d="M922.663 395.165C938.271 392.605 954.118 391.864 969.916 392.131C976.717 392.248 983.484 392.036 990.286 391.957C997.393 391.885 1004.74 392.034 1011.48 394.582C1013.3 395.268 1014.07 392.325 1012.25 391.639C1005.75 389.203 998.649 388.884 991.796 388.905C984.497 388.922 977.236 389.213 969.935 389.088C953.854 388.826 937.796 389.641 921.913 392.239C919.958 392.567 920.762 395.496 922.663 395.165Z" fill="#DDD9DA"/>
<path d="M1003.13 394.775C986.833 398.229 970.269 402.057 953.498 400.416C951.563 400.223 951.577 403.258 953.512 403.45C970.521 405.117 987.372 401.229 1003.9 397.713C1005.81 397.307 1005.03 394.389 1003.13 394.775Z" fill="#DDD9DA"/>
<path d="M979.014 382.927C969.453 381.862 960.068 383.112 950.628 384.554C948.697 384.84 949.501 387.77 951.411 387.472C960.631 386.07 969.738 384.912 979.041 385.941C980.973 386.187 980.937 383.141 979.014 382.927Z" fill="#DDD9DA"/>
<path d="M949.054 395.973C944.97 395.52 940.936 394.592 936.809 394.506C935.984 394.479 935.297 395.231 935.303 396.047C935.296 396.883 936.007 397.546 936.844 397.553C940.972 397.639 945.006 398.567 949.09 399.019C949.911 399.102 950.605 398.241 950.596 397.479C950.572 396.597 949.864 396.076 949.054 395.973Z" fill="#DDD9DA"/>
<path d="M900.689 372.672C929.689 371.147 964.546 357.147 975.886 328.279C976.218 327.462 975.48 326.7 974.801 326.42C966.784 323.164 957.199 324.13 948.851 325.138C939.626 326.257 931.04 328.164 922.589 332.166C914.106 336.178 907.348 341.326 901.689 348.846C898.782 352.715 896.251 356.857 893.824 361.06C892.745 362.93 891.674 364.833 890.615 366.716C889.872 368.052 888.725 369.407 888.643 370.957C888.608 371.552 889.137 372.335 889.784 372.428C893.428 372.963 897.031 372.549 900.689 372.672C902.643 372.735 902.629 369.701 900.675 369.638C897.3 369.511 893.902 369.958 890.546 369.506C890.93 370.007 891.304 370.476 891.687 370.977C891.746 370.002 893.547 367.708 894.141 366.678C895.139 364.901 896.137 363.124 897.177 361.371C899.382 357.6 901.692 353.891 904.326 350.397C909.737 343.21 916.43 338.416 924.53 334.632C932.619 330.868 940.9 329.149 949.706 328.125C957.58 327.208 966.518 326.345 974.036 329.396C973.671 328.765 973.315 328.168 972.95 327.537C967.487 341.418 955.63 351.467 942.675 358.22C929.766 364.944 915.206 368.894 900.696 369.65C898.732 369.749 898.747 372.783 900.689 372.672Z" fill="#DDD9DA"/>
<path d="M893.852 370.433C907.02 360.833 921.202 352.827 935.872 345.775C941.918 342.877 947.758 339.609 953.705 336.543C959.686 333.467 966.022 330.457 972.776 329.734C974.692 329.523 974.698 326.501 972.761 326.699C959.495 328.118 948.135 336.576 936.38 342.174C921.012 349.467 906.105 357.756 892.345 367.799C890.787 368.944 892.293 371.579 893.852 370.433Z" fill="#DDD9DA"/>
<path d="M965.677 333.676C952.813 344.012 939.841 354.875 924.297 360.918C922.493 361.614 923.264 364.552 925.08 363.835C941.158 357.596 954.501 346.528 967.821 335.839C969.341 334.615 967.185 332.473 965.677 333.676Z" fill="#DDD9DA"/>
<path d="M939.164 333.807C930.132 337.166 922.323 342.436 914.52 347.989C912.94 349.122 914.447 351.757 916.026 350.624C923.591 345.241 931.18 340.012 939.947 336.725C941.771 336.041 940.989 333.123 939.164 333.807Z" fill="#DDD9DA"/>
<path d="M918.313 358.948C914.341 360.437 910.212 361.472 906.371 363.317C905.665 363.665 905.396 364.715 905.79 365.391C906.257 366.137 907.105 366.318 907.866 365.973C908.807 365.507 909.543 365.204 910.445 364.856C911.413 364.49 912.39 364.158 913.367 363.825C915.275 363.19 917.181 362.609 919.072 361.908C919.816 361.637 920.416 360.891 920.139 360.059C919.956 359.308 919.124 358.66 918.313 358.948Z" fill="#DDD9DA"/>
<path d="M1298.95 80.2855C1304.7 72.1359 1309.88 62.4138 1310.29 52.2673C1310.68 42.6435 1305.54 34.6662 1297.01 30.3103C1289.24 26.3441 1280.09 25.075 1271.44 24.7474C1261.77 24.382 1251.77 25.2447 1242.46 28.0649C1235.87 30.0732 1228.85 33.155 1225.75 39.7234C1223.04 45.4563 1224.13 52.0453 1226.17 57.7719C1228.65 64.7548 1232.68 71.1561 1237.04 77.106C1241.11 82.7003 1245.6 88.4359 1250.81 93.0229C1257.5 98.927 1266.18 102.123 1275.05 99.5534C1285.28 96.5932 1292.08 88.3892 1299.04 80.8935C1299.97 79.8849 1298.56 78.2607 1297.61 79.2769C1291.71 85.6494 1286.08 92.5928 1277.93 96.2206C1270.91 99.3562 1263.34 98.8282 1256.82 94.8244C1250.9 91.1628 1246.33 85.4652 1242.03 80.077C1237.85 74.8203 1233.96 69.2503 1230.92 63.2478C1228.16 57.8161 1225.74 51.5487 1226.4 45.3253C1227.1 38.8944 1231.68 34.712 1237.38 32.1825C1245.26 28.6682 1254.18 27.3369 1262.7 26.9256C1271.53 26.501 1280.65 27.0549 1289.13 29.5496C1298.56 32.32 1307.05 38.4747 1308.05 48.8921C1309.08 59.6712 1303.17 70.5339 1297.15 79.0816C1296.35 80.2372 1298.14 81.4257 1298.95 80.2855Z" fill="#D3CBCF"/>
<path d="M1299.05 80.9087C1300.78 78.9368 1302.9 77.1212 1305.54 76.6162C1307.73 76.2004 1309.94 76.7844 1311.9 77.7357C1316.49 79.9658 1320.19 83.7968 1324.1 86.9911C1326.12 88.6579 1328.23 90.2637 1330.68 91.303C1330.83 90.6197 1330.97 89.9209 1331.11 89.2222C1320.35 87.404 1306.47 89.4167 1299.56 79.113C1298.79 77.9776 1297.17 79.3967 1297.92 80.5398C1305.23 91.4151 1319.61 89.4442 1330.95 91.3662C1332.23 91.5825 1332.44 89.7232 1331.39 89.2779C1326.7 87.2701 1323 83.1316 1319.11 79.9912C1315.34 76.9593 1310.69 73.7062 1305.56 74.4327C1302.35 74.8877 1299.69 76.9457 1297.61 79.2997C1296.7 80.3316 1298.11 81.9558 1299.05 80.9087Z" fill="#D3CBCF"/>
<path d="M1298.33 82.0421C1303.78 87.861 1308.08 95.6559 1306.44 103.864C1307 103.591 1307.56 103.318 1308.12 103.045C1304.46 100.875 1301.92 97.075 1300.26 93.2425C1298.61 89.4099 1297.57 84.7973 1298.95 80.7084C1299.38 79.3889 1297.35 78.6985 1296.92 80.0181C1295.4 84.5596 1296.4 89.5872 1298.19 93.8897C1299.98 98.1537 1302.86 102.44 1306.93 104.829C1307.68 105.264 1308.45 104.816 1308.61 104.01C1310.36 95.2715 1305.77 86.798 1299.98 80.6078C1299.01 79.6094 1297.37 81.0361 1298.33 82.0421Z" fill="#D3CBCF"/>
<path d="M1299.07 80.04C1303.83 67.9393 1318.32 62.9243 1329.81 68.4535C1329.69 67.8452 1329.56 67.237 1329.46 66.6366C1327.31 68.698 1325.38 70.9762 1323.22 73.0222C1321.18 74.969 1318.83 77.0137 1315.93 77.34C1314.54 77.4998 1314.94 79.5939 1316.32 79.4572C1322.51 78.7686 1326.77 72.2081 1330.9 68.2456C1331.53 67.6347 1331.29 66.7796 1330.56 66.4287C1317.96 60.3846 1302.23 66.2599 1297.06 79.3575C1296.53 80.6456 1298.56 81.336 1299.07 80.04Z" fill="#D3CBCF"/>
<path d="M1302.94 48.4808C1301.45 47.3328 1299.59 47.0203 1297.79 46.6545C1297.54 46.6066 1297.19 46.758 1297 46.9259C1296.81 47.0938 1296.65 47.3848 1296.64 47.6539C1296.63 47.946 1296.7 48.2386 1296.91 48.44C1297.12 48.6644 1297.35 48.7428 1297.64 48.7909C1297.58 48.7828 1297.34 48.7274 1297.64 48.7909C1297.7 48.799 1297.77 48.8226 1297.83 48.8307C1297.94 48.8545 1298.06 48.8707 1298.17 48.8945C1298.39 48.9421 1298.62 48.9821 1298.84 49.0451C1299.23 49.14 1299.63 49.235 1300.01 49.3529C1300.19 49.4002 1300.36 49.4706 1300.53 49.5409C1300.6 49.5799 1300.7 49.6113 1300.77 49.6502C1300.82 49.6659 1300.87 49.6816 1300.9 49.7049C1301.07 49.7907 1300.64 49.5801 1300.82 49.6659C1301.16 49.845 1301.46 50.0393 1301.76 50.2566C1302.2 50.5979 1302.98 50.4264 1303.27 49.9439C1303.56 49.4384 1303.42 48.8377 1302.94 48.4808Z" fill="#D3CBCF"/>
<path d="M1293.07 66.9591C1292.05 66.7523 1291.07 66.3689 1290.13 65.9319C1290.07 65.9008 1290.03 65.8851 1289.97 65.854C1290.11 65.9241 1290.05 65.893 1289.95 65.8462C1289.83 65.7915 1289.72 65.7293 1289.6 65.6746C1289.37 65.5577 1289.13 65.4254 1288.92 65.3009C1288.44 65.0363 1287.96 64.7562 1287.47 64.4762C1286.99 64.1961 1286.29 64.2528 1285.97 64.7889C1285.68 65.2559 1285.74 65.9714 1286.28 66.2826C1288.2 67.3874 1290.17 68.5464 1292.37 68.9996C1292.68 69.0632 1292.91 69.0802 1293.19 68.9437C1293.43 68.8299 1293.67 68.5778 1293.74 68.3323C1293.88 67.8257 1293.65 67.0784 1293.07 66.9591Z" fill="#D3CBCF"/>
<path d="M1277.13 87.1039C1276.91 87.0947 1276.7 87.0856 1276.48 87.0764C1276.38 87.068 1276.28 87.0597 1276.17 87.0359C1276.11 87.0278 1276.07 87.0121 1276 87.004C1275.96 87.0037 1275.79 86.9564 1275.98 86.9961C1276.17 87.0359 1276 86.9885 1275.96 86.9883C1275.9 86.9802 1275.85 86.9645 1275.79 86.9564C1275.68 86.9326 1275.56 86.8934 1275.46 86.8696C1275.26 86.8144 1275.06 86.7362 1274.87 86.658C1274.77 86.6112 1274.68 86.5798 1274.58 86.533C1274.43 86.4551 1274.58 86.533 1274.65 86.5565C1274.6 86.5254 1274.55 86.5097 1274.5 86.4786C1274.31 86.3774 1274.12 86.2608 1273.93 86.1441C1273.74 86.0275 1273.55 85.8879 1273.38 85.7637C1273.28 85.6784 1273.19 85.6086 1273.09 85.5233C1273.02 85.4614 1272.91 85.3222 1273.09 85.5388C1273.05 85.4846 1272.99 85.4535 1272.95 85.3994C1272.74 85.198 1272.51 85.0581 1272.22 85.0485C1271.96 85.0236 1271.62 85.129 1271.43 85.3199C1271.05 85.6941 1270.89 86.4234 1271.32 86.8416C1272.15 87.6007 1273.06 88.2296 1274.1 88.675C1275 89.0578 1275.98 89.249 1276.95 89.2555C1277.51 89.267 1278.09 88.8711 1278.12 88.2639C1278.13 87.7027 1277.73 87.1156 1277.13 87.1039Z" fill="#D3CBCF"/>
<path d="M1285.83 52.3709C1284.14 51.6674 1282.39 50.9559 1280.51 50.9355C1279.94 50.924 1279.37 51.3199 1279.34 51.9271C1279.31 52.4728 1279.72 53.0753 1280.32 53.0871C1280.77 53.0824 1281.2 53.1391 1281.64 53.2113C1281.68 53.2116 1281.72 53.2273 1281.77 53.2429C1281.48 53.2103 1281.66 53.2192 1281.72 53.2273C1281.83 53.2511 1281.94 53.2749 1282.05 53.2987C1282.26 53.3462 1282.47 53.4169 1282.67 53.472C1283.51 53.7314 1284.31 54.0675 1285.11 54.4035C1285.62 54.63 1286.33 54.2657 1286.48 53.7362C1286.67 53.1454 1286.39 52.613 1285.83 52.3709Z" fill="#D3CBCF"/>
<path d="M1274.86 68.9275C1273.25 68.6014 1271.72 67.9144 1270.22 67.2738C1269.69 67.0549 1268.99 67.4116 1268.85 67.9411C1268.67 68.5243 1268.96 69.0721 1269.51 69.2988C1271.01 69.9241 1272.54 70.611 1274.15 70.9526C1274.45 71.0161 1274.69 71.0331 1274.97 70.8966C1275.2 70.7829 1275.44 70.5308 1275.52 70.2852C1275.6 70.0167 1275.6 69.7091 1275.47 69.4699C1275.35 69.2384 1275.13 68.9832 1274.86 68.9275Z" fill="#D3CBCF"/>
<path d="M1278.2 38.0638C1275.36 37.4833 1272.59 36.5803 1269.74 35.9998C1269.19 35.8884 1268.54 36.0685 1268.37 36.6671C1268.21 37.1658 1268.44 37.9132 1269.04 38.0248C1271.88 38.6054 1274.65 39.5083 1277.49 40.0889C1278.05 40.2003 1278.69 40.0201 1278.86 39.4215C1279.01 38.9304 1278.78 38.1831 1278.2 38.0638Z" fill="#D3CBCF"/>
<path d="M1266.95 54.5651C1265.46 54.2783 1263.93 54.2986 1262.44 54.0118C1262.19 53.9639 1261.84 54.1153 1261.65 54.2832C1261.46 54.4511 1261.3 54.7421 1261.29 55.0112C1261.28 55.3033 1261.35 55.5959 1261.56 55.7973C1261.77 56.0217 1262 56.1001 1262.29 56.1482C1263.78 56.4351 1265.31 56.4147 1266.8 56.7016C1267.05 56.7494 1267.4 56.598 1267.59 56.4302C1267.78 56.2623 1267.94 55.9712 1267.95 55.7021C1267.96 55.41 1267.89 55.1174 1267.68 54.9161C1267.46 54.6993 1267.24 54.6132 1266.95 54.5651Z" fill="#D3CBCF"/>
<path d="M1258.48 77.0052C1256.58 75.9082 1254.58 74.972 1252.77 73.7142C1252.31 73.3881 1251.57 73.5369 1251.27 74.027C1250.96 74.54 1251.06 75.1789 1251.57 75.5207C1253.4 76.7709 1255.38 77.7147 1257.28 78.8117C1257.76 79.0917 1258.47 79.035 1258.78 78.4989C1259.05 78.024 1258.99 77.3086 1258.48 77.0052Z" fill="#D3CBCF"/>
<path d="M1258.03 44.2475C1256.09 43.8576 1254.25 43.1301 1252.3 42.7248C1252 42.6612 1251.76 42.6442 1251.48 42.7807C1251.25 42.8945 1251.01 43.1466 1250.93 43.3921C1250.77 43.8908 1251 44.6382 1251.6 44.7498C1253.54 45.1397 1255.38 45.8672 1257.33 46.2726C1257.63 46.3361 1257.87 46.3531 1258.15 46.2166C1258.38 46.1029 1258.62 45.8508 1258.69 45.6052C1258.84 45.1141 1258.61 44.3667 1258.03 44.2475Z" fill="#D3CBCF"/>
<path d="M1251.69 62.4426C1249.85 61.6613 1248 60.9183 1246.11 60.2366C1245.58 60.0562 1244.89 60.3514 1244.74 60.9039C1244.57 61.4641 1244.84 62.0579 1245.4 62.2617C1247.29 62.928 1249.14 63.6863 1250.98 64.4677C1251.51 64.6866 1252.2 64.3299 1252.35 63.8003C1252.53 63.2172 1252.24 62.6694 1251.69 62.4426Z" fill="#D3CBCF"/>
<path d="M1240.23 45.9343C1238.59 45.2466 1236.97 44.5667 1235.34 43.8713C1234.81 43.6524 1234.12 44.0091 1233.97 44.5387C1233.79 45.1218 1234.08 45.6697 1234.63 45.8964C1236.26 46.5917 1237.9 47.264 1239.53 47.9594C1240.06 48.1783 1240.75 47.8216 1240.9 47.292C1241.08 46.7243 1240.8 46.1765 1240.23 45.9343Z" fill="#D3CBCF"/>
<path d="M1246.1 35.4401C1245.66 35.4448 1245.22 35.388 1244.78 35.3159C1244.74 35.3156 1244.7 35.2999 1244.65 35.2842C1244.94 35.3169 1244.76 35.308 1244.7 35.2999C1244.59 35.2761 1244.48 35.2523 1244.38 35.2285C1244.16 35.1809 1243.95 35.1103 1243.75 35.0551C1242.91 34.7957 1242.11 34.4597 1241.31 34.1237C1240.78 33.9048 1240.09 34.2615 1239.95 34.791C1239.77 35.3742 1240.05 35.922 1240.61 36.1487C1242.3 36.8522 1244.05 37.5637 1245.93 37.5841C1246.49 37.5956 1247.07 37.1997 1247.1 36.5925C1247.1 36.0389 1246.69 35.4364 1246.1 35.4401Z" fill="#D3CBCF"/>
<path d="M1239.38 61.7208C1238.8 61.6015 1238.23 61.4208 1237.7 61.1481C1237.77 61.187 1237.87 61.2184 1237.95 61.2728C1237.29 60.9454 1236.68 60.5184 1236.1 60.0531C1235.91 59.8981 1235.56 59.8419 1235.31 59.8863C1235.05 59.9384 1234.75 60.1209 1234.61 60.3429C1234.47 60.5803 1234.38 60.8565 1234.43 61.1337C1234.5 61.4263 1234.66 61.635 1234.89 61.8287C1236.01 62.7129 1237.26 63.444 1238.67 63.7304C1238.97 63.7939 1239.21 63.8109 1239.49 63.6744C1239.72 63.5607 1239.96 63.3086 1240.03 63.063C1240.12 62.7945 1240.12 62.487 1239.98 62.2477C1239.88 62.0317 1239.66 61.7765 1239.38 61.7208Z" fill="#D3CBCF"/>
<path d="M1264.77 91.3337C1262.93 90.5523 1261.17 89.5563 1259.19 89.1277C1258.89 89.0641 1258.65 89.0471 1258.37 89.1836C1258.14 89.2974 1257.89 89.5495 1257.82 89.795C1257.66 90.2937 1257.89 91.0411 1258.48 91.1527C1260.47 91.5583 1262.22 92.5774 1264.06 93.3588C1264.58 93.5852 1265.29 93.221 1265.43 92.6914C1265.63 92.1007 1265.33 91.5759 1264.77 91.3337Z" fill="#D3CBCF"/>
<path d="M1292.82 35.7869C1291.53 35.0401 1290.1 34.4614 1288.62 34.1515C1288.32 34.0879 1288.08 34.0709 1287.8 34.2074C1287.56 34.3212 1287.32 34.5733 1287.25 34.8188C1287.17 35.0874 1287.16 35.3949 1287.3 35.6342C1287.43 35.858 1287.65 36.1133 1287.91 36.1765C1289.07 36.415 1290.17 36.83 1291.22 37.3523C1291.14 37.3133 1291.05 37.2819 1290.96 37.2275C1291.19 37.329 1291.39 37.438 1291.61 37.5625C1291.85 37.7103 1292.12 37.7735 1292.4 37.7293C1292.67 37.6773 1292.96 37.4948 1293.1 37.2728C1293.4 36.8057 1293.34 36.0903 1292.82 35.7869Z" fill="#D3CBCF"/>
<path d="M1299.89 80.4376C1303.23 81.5058 1306.61 82.5128 1309.83 83.8802C1310.36 84.0991 1311.03 83.7346 1311.2 83.2129C1311.4 82.6376 1311.07 82.0741 1310.54 81.8552C1307.3 80.4954 1303.94 79.4962 1300.59 78.4201C1300.04 78.2472 1299.41 78.5351 1299.22 79.0874C1299.04 79.6321 1299.33 80.2723 1299.89 80.4376Z" fill="#D3CBCF"/>
<path d="M207.667 664.504C253.753 653.95 298.466 635.216 330.412 598.987C370.354 553.696 386.733 494.111 412.573 440.779C419.854 425.724 428.2 411.398 437.357 397.407C443.524 387.968 451.383 375.405 462.558 371.541C461.63 370.896 460.701 370.25 459.813 369.586C459.567 375.022 455.772 379.41 452.319 383.323C448.929 387.158 445.495 390.843 442.432 394.967C434.943 405.088 428.619 416.21 423.031 427.504C415.082 443.551 407.882 460.546 403.05 477.815C400.588 486.617 398.534 495.939 399.616 505.083C399.747 506.17 400.874 506.822 401.899 506.666C413.64 505.055 425.176 501.928 436.665 499.017C450.402 495.533 464.076 491.858 477.901 488.675C483.591 487.367 489.288 486.129 495.063 485.221C498.747 484.644 502.885 483.833 506.627 484.449C507.345 484.581 508.376 484.863 508.471 484.965C508.596 485.078 508.518 484.748 508.446 485.123C508.424 485.182 508.061 486.521 507.944 486.746C507.105 488.11 502.364 489.468 500.204 490.075C485.125 494.3 469.432 496.49 454.116 499.556C443.625 501.664 433.179 503.922 422.781 506.5C417.307 507.854 411.86 509.319 406.449 510.864C404.878 511.321 402.809 511.592 401.441 512.492C399.88 513.555 398.5 515.656 397.321 517.129C385.834 531.195 377.847 548.065 369.483 564.059C360.164 581.909 349.671 598.789 335.709 613.411C319.325 630.519 299.878 644.549 278.413 654.481C257.402 664.179 235.041 670.496 213.351 678.335C214.201 678.65 215.082 678.977 215.932 679.292C213.165 674.514 210.674 668.902 211.345 663.221C211.639 660.717 207.729 660.374 207.435 662.877C206.733 669.183 209.277 675.552 212.361 680.916C212.931 681.898 213.859 682.275 214.942 681.873C235.088 674.6 255.743 668.656 275.398 660.096C295.335 651.407 313.498 639.581 329.532 624.856C345.187 610.526 357.97 593.591 368.089 574.931C377.14 558.254 385.108 540.807 396.052 525.234C398.362 521.97 401.211 516.895 404.998 515.318C410.312 513.134 416.468 512.099 422.033 510.678C432.852 507.955 443.778 505.573 454.726 503.4C470.621 500.214 487.073 498.138 502.605 493.41C505.428 492.546 509.832 491.466 511.338 488.573C512.26 486.805 512.906 484.163 511.381 482.426C509.58 480.352 506.104 480.369 503.616 480.419C498.839 480.524 494.097 481.346 489.432 482.23C462.181 487.337 435.779 496.277 408.561 501.565C406.119 502.033 403.658 502.461 401.19 502.819C401.964 503.34 402.698 503.88 403.472 504.402C402.495 495.966 404.458 487.248 406.717 479.174C409.291 469.979 412.668 461.047 416.298 452.243C424.324 432.841 433.423 413.602 446.015 396.73C452.047 388.649 463.219 380.831 463.712 369.959C463.796 368.382 462.35 367.512 460.967 368.004C451.545 371.278 444.553 380.511 438.927 388.308C431.202 398.978 424.256 410.338 417.936 421.898C403.55 448.288 392.682 476.351 380.878 503.966C368.794 532.248 355.382 559.703 337.109 584.519C322.71 604.104 304.235 620.37 283.19 632.501C259.558 646.119 233.458 654.601 206.986 660.668C204.552 661.206 205.191 665.061 207.667 664.504Z" fill="#DBD0D3"/>
<path d="M423.346 499.843C422.608 484.461 430.608 469.807 440.714 458.746C451.148 447.338 465.305 437.947 480.715 435.351C488.903 433.964 496.907 435.055 504.55 438.29C514.349 442.458 523.046 447.892 534.106 446.498C543.972 445.264 553.264 441.439 562.96 439.405C570.371 437.864 578.116 437.854 585.484 439.58C598.981 442.773 610.853 452.064 614.708 465.787C619.278 482.085 613.47 500.635 598.497 509.255C591.627 513.207 583.851 515.282 576.099 516.663C568.098 518.086 559.767 518.147 552.125 521.21C537.907 526.894 531.935 541.028 520.788 550.396C505.134 563.554 480.668 562.86 462.574 555.953C452.985 552.298 443.555 546.324 437.894 537.56C432.271 528.877 430.434 518.348 425.466 509.338C424.244 507.143 420.672 508.767 421.924 510.972C426.539 519.316 428.479 528.845 433.145 537.14C437.848 545.515 445.202 551.691 453.596 556.142C470.247 564.96 490.955 567.242 508.924 561.341C517.047 558.69 523.673 553.776 529.328 547.431C534.53 541.588 538.832 534.841 544.974 529.882C552.634 523.71 561.453 522.691 570.836 521.412C579.204 520.259 587.64 518.563 595.413 515.146C611.632 508.026 620.434 493.099 620.03 475.464C619.677 460.393 611.504 447.247 598.268 440.197C583.223 432.176 567.262 433.831 551.469 438.361C545.948 439.933 540.395 441.593 534.711 442.434C528.042 443.413 522.13 441.992 516.034 439.263C506.894 435.206 498.314 430.719 488.052 430.768C472.146 430.835 456.9 438.751 445.089 449.012C433.124 459.417 423.184 473.453 420.194 489.261C419.482 492.984 419.305 496.703 419.483 500.454C419.621 503.051 423.488 502.34 423.346 499.843Z" fill="#DBD0D3"/>
<path d="M444.31 497.027C449.265 477.894 466.813 464.399 481.08 452.101C482.988 450.464 480.519 447.404 478.6 449.071C463.853 461.762 445.78 475.865 440.643 495.668C440.015 498.081 443.671 499.47 444.31 497.027Z" fill="#DBD0D3"/>
<path d="M509.773 486.854C537.203 478.832 567.217 484.094 593.515 471.565C595.791 470.466 594.17 466.917 591.894 468.016C565.947 480.408 536.182 475.104 509.092 483.018C506.713 483.677 507.342 487.561 509.773 486.854Z" fill="#DBD0D3"/>
<path d="M512.469 482.461C516.271 466.082 534.762 461.111 548.976 457.871C551.422 457.304 550.782 453.449 548.307 454.005C532.775 457.561 512.93 463.303 508.802 481.102C508.233 483.537 511.889 484.926 512.469 482.461Z" fill="#DBD0D3"/>
<path d="M402.629 456.355C396.692 451.039 393.696 442.827 391.706 435.323C389.679 427.738 388.468 419.752 388.342 411.901C388.179 403.968 388.811 395.962 390.052 388.114C391.245 380.483 393.086 372.456 397.41 365.919C401.107 360.355 405.561 356.982 412.264 356.451C418.52 355.956 424.9 356.746 431.029 355.065C442.667 351.842 448.315 341.373 452.927 331.091C458.57 318.477 464.216 305.763 478.276 300.958C491.863 296.347 507.31 298.421 519.484 305.814C531.27 312.996 540.905 325.98 541.186 340.254C541.417 351.695 532.848 358.97 524.985 365.871C516.172 373.625 508.369 382.256 508.8 394.777C509.082 402.117 511.824 408.761 514.424 415.52C515.442 418.175 516.641 421.332 515.523 424.168C513.856 428.306 508.568 430.601 504.883 432.35C502.618 433.42 504.228 436.998 506.504 435.899C512.081 433.276 519.351 429.505 519.879 422.499C520.3 416.592 516.468 410.817 514.754 405.358C512.601 398.564 511.674 391.253 514.441 384.507C516.615 379.183 520.74 374.984 524.922 371.174C532.977 363.842 542.646 356.84 544.694 345.373C547.097 331.96 539.44 317.599 529.9 308.77C519.324 298.955 504.675 293.827 490.287 294.657C475.254 295.517 463.095 302.668 455.757 315.893C449.696 326.845 446.542 342.827 434.762 349.314C423.245 355.63 408.543 348.305 398.505 358.285C392.435 364.31 389.393 372.427 387.527 380.613C385.309 390.376 384.386 400.519 384.448 410.524C384.507 419.457 385.772 428.467 388.19 437.068C390.5 445.327 393.877 453.68 400.373 459.471C402.224 461.229 404.483 458.013 402.629 456.355Z" fill="#DBD0D3"/>
<path d="M501.296 329.59C502.155 363.372 476.75 397.436 441.924 399.937C439.422 400.115 440.091 403.981 442.593 403.803C478.998 401.184 506.12 365.277 505.188 329.893C505.134 327.428 501.235 327.054 501.296 329.59Z" fill="#DBD0D3"/>
<path d="M481.18 327.962C476.637 342.558 469.386 356.452 460.173 368.614C458.658 370.632 461.818 372.908 463.363 370.902C472.802 358.489 480.254 344.234 484.887 329.303C485.573 326.911 481.906 325.551 481.18 327.962Z" fill="#DBD0D3"/>
<path d="M428.259 363.887C425.669 369.526 425.22 375.958 425.623 382.071C426.005 387.974 427.328 394.125 430.21 399.314C431.432 401.508 434.974 399.873 433.752 397.679C431.095 392.875 429.919 387.314 429.503 381.867C429.071 376.28 429.58 370.406 431.926 365.246C432.986 362.926 429.308 361.596 428.259 363.887Z" fill="#DBD0D3"/>
<path d="M402.595 377.856C401.297 387.391 401.256 397.224 402.632 406.745C403.933 415.836 406.621 425.508 413.02 432.369C414.739 434.212 417.767 431.716 416.047 429.873C409.935 423.32 407.589 414.076 406.402 405.395C405.166 396.395 405.286 387.161 406.487 378.16C406.839 375.677 402.929 375.334 402.595 377.856Z" fill="#DBD0D3"/>
<path d="M491.003 410.926C482.743 418.718 471.977 423.638 461.008 426.138C450.737 428.461 439.418 429.023 429.513 425.05C427.188 424.121 425.824 427.803 428.149 428.732C438.688 432.973 450.777 432.496 461.706 430.014C473.324 427.386 484.752 422.209 493.513 413.966C495.314 412.256 492.845 409.197 491.003 410.926Z" fill="#DBD0D3"/>
<path d="M467.631 408.628C461.022 413.046 457.31 419.91 453.785 426.811C453.296 427.769 454.047 428.985 454.927 429.311C456.012 429.713 456.974 429.098 457.422 428.159C460.66 421.855 464.08 415.687 470.082 411.647C470.963 411.069 470.993 409.64 470.375 408.875C469.663 408.008 468.523 408.021 467.631 408.628Z" fill="#DBD0D3"/>
<path d="M481.314 355.145C481.311 363.886 480.454 372.68 481.392 381.402C481.662 383.914 485.518 383.233 485.248 380.721C484.358 372.318 485.213 363.892 485.206 355.448C485.203 354.375 484.552 353.431 483.427 353.315C482.449 353.254 481.312 354.072 481.314 355.145Z" fill="#DBD0D3"/>
<path d="M460.42 334.639C462.317 343.114 464.215 351.588 466.112 360.063C466.671 362.515 470.516 361.863 469.968 359.382C468.071 350.907 466.173 342.432 464.276 333.958C463.746 331.517 459.872 332.158 460.42 334.639Z" fill="#DBD0D3"/>
</g>
</svg>
