<svg width="25" height="20" viewBox="0 0 25 20" fill="none" xmlns="http://www.w3.org/2000/svg">
<path d="M24.2561 3.01063C23.3586 3.40059 22.409 3.6575 21.4374 3.77325C22.4585 3.1753 23.2265 2.22535 23.5972 1.10157C22.6317 1.66611 21.5772 2.06221 20.4789 2.27292C20.0163 1.7882 19.4601 1.40258 18.8439 1.13952C18.2277 0.876461 17.5645 0.741446 16.8945 0.742684C14.182 0.742684 11.9868 2.90595 11.9868 5.57265C11.9849 5.94358 12.0274 6.3134 12.1134 6.67422C10.1683 6.58304 8.26364 6.08684 6.52129 5.21738C4.77894 4.34793 3.23726 3.12435 1.99489 1.62494C1.55903 2.35971 1.32853 3.19806 1.32746 4.05238C1.32746 5.72717 2.20124 7.20756 3.52064 8.07486C2.73894 8.05631 1.97325 7.84942 1.28859 7.47174V7.53155C1.28859 9.87426 2.98331 11.8232 5.22633 12.2668C4.80453 12.3793 4.36988 12.4362 3.93335 12.4363C3.62361 12.4368 3.31456 12.4068 3.01073 12.3466C3.63428 14.2656 5.44914 15.6613 7.59895 15.7011C5.85207 17.0474 3.70737 17.775 1.50192 17.7697C1.11045 17.7691 0.719339 17.7458 0.330566 17.6999C2.57417 19.1326 5.18219 19.8904 7.84418 19.8831C16.8841 19.8831 21.8227 12.521 21.8227 6.1359C21.8227 5.92655 21.8172 5.7172 21.8072 5.51284C22.7658 4.83099 23.5951 3.98365 24.2561 3.01063Z" fill="#274C5B"/>
</svg>
