<svg width="1920" height="450" viewBox="0 0 1920 450" fill="none" xmlns="http://www.w3.org/2000/svg">
<mask id="mask0_2_11714" style="mask-type:alpha" maskUnits="userSpaceOnUse" x="0" y="0" width="1920" height="450">
<rect width="1920" height="450" fill="#E3F1E9"/>
</mask>
<g mask="url(#mask0_2_11714)">
<path d="M1789.19 104.08C1784.01 102.298 1777.59 99.1239 1777.53 92.7752C1777.5 88.467 1779.97 84.4935 1781.16 80.4514C1783.44 72.6751 1780.49 64.1584 1775.52 58.0836C1770.42 51.8409 1762.95 47.4336 1754.98 46.1079C1751.06 45.4506 1747.02 45.5639 1743.18 46.5857C1739.32 47.608 1735.63 49.5164 1732.23 51.5646C1724.64 56.1391 1717.91 62.2664 1712.47 69.2516C1707.13 76.1163 1702.81 84.0904 1701.21 92.7132C1700.47 96.694 1700.31 100.86 1701.02 104.865C1701.88 109.679 1704.25 114.116 1707.35 117.849C1713.71 125.483 1723.2 130.585 1732.81 132.781C1742.39 134.955 1752.25 132.466 1759.2 125.401C1762.83 121.712 1765.25 117.177 1767.6 112.62C1768.8 110.314 1770.21 107.852 1772.83 107.003C1775.41 106.162 1778.06 106.984 1780.45 108.011C1782.5 108.908 1784.45 110.026 1786.51 110.907C1786.87 111.068 1787.22 110.955 1787.44 110.619C1788.44 109.078 1789.62 107.687 1790.24 105.932C1790.52 105.093 1789.18 104.784 1788.89 105.622C1788.33 107.236 1787.14 108.556 1786.23 109.978C1786.54 109.881 1786.85 109.786 1787.16 109.69C1783.34 108.052 1779.55 105.271 1775.22 105.284C1769.83 105.307 1767.61 109.593 1765.45 113.831C1763.14 118.339 1760.38 122.673 1756.52 126.026C1752.83 129.225 1748.27 131.326 1743.43 131.957C1733.52 133.258 1722.92 129.006 1715.06 123.172C1711.04 120.187 1707.48 116.5 1705.07 112.095C1702.81 107.975 1701.86 103.454 1701.95 98.7662C1702.12 90.158 1705.59 81.8746 1710.23 74.7429C1715.08 67.2756 1721.46 60.7061 1728.7 55.5327C1735.18 50.9075 1742.67 46.8678 1750.83 47.0846C1758.96 47.3025 1766.89 51.1011 1772.56 56.8642C1778.06 62.4684 1781.91 70.9017 1780.11 78.8657C1779.2 82.9381 1776.93 86.6159 1776.28 90.7661C1775.58 95.2933 1777.73 99.3618 1781.43 101.942C1783.69 103.513 1786.25 104.541 1788.84 105.421C1789.72 105.721 1790.02 104.366 1789.19 104.08Z" fill="#D1D1D1"/>
<path d="M1784.41 104.561C1781.48 103.231 1778.42 102.147 1775.61 100.556C1774.24 99.7858 1772.94 98.8729 1771.83 97.751C1770.58 96.4767 1769.75 94.9078 1768.91 93.3469C1766.29 88.4016 1764.9 82.8932 1761.96 78.1146C1756.46 69.2098 1746.16 63.6803 1735.88 62.7177C1730.14 62.1812 1724.33 63.117 1719.16 65.7064C1718.36 66.1073 1719.09 67.2805 1719.88 66.8877C1729.24 62.2176 1740.62 63.4191 1749.58 68.4047C1754.35 71.0604 1758.48 74.8313 1761.22 79.5771C1763.96 84.2997 1765.32 89.6604 1767.94 94.4494C1769.55 97.4013 1771.43 99.6562 1774.33 101.425C1777.3 103.223 1780.61 104.361 1783.76 105.786C1784.57 106.151 1785.23 104.933 1784.41 104.561Z" fill="#D1D1D1"/>
<path d="M1768.75 100.563C1752.84 98.0978 1735.88 97.8407 1721.25 90.3766C1717.01 88.2125 1713.15 85.4342 1709.83 82.0204C1709.22 81.3831 1708.27 82.3908 1708.89 83.0282C1720.86 95.3318 1738.55 98.0998 1754.82 100.123C1759.37 100.69 1763.92 101.201 1768.45 101.902C1769.31 102.046 1769.62 100.699 1768.75 100.563Z" fill="#D1D1D1"/>
<path d="M1760.82 92.0172C1750.94 79.7174 1734.88 73.3389 1719.45 72.1258C1718.57 72.0523 1718.62 73.435 1719.5 73.5008C1734.38 74.6689 1750.1 80.8622 1759.64 92.7274C1760.19 93.4217 1761.37 92.7115 1760.82 92.0172Z" fill="#D1D1D1"/>
<path d="M1747.27 88.9926C1740.86 88.102 1734.86 85.3132 1729.48 81.809C1728.74 81.3243 1728.09 82.5494 1728.83 83.0341C1734.3 86.5903 1740.44 89.4371 1746.96 90.3398C1747.83 90.4606 1748.15 89.1129 1747.27 88.9926Z" fill="#D1D1D1"/>
<path d="M1763.61 106.193C1756.75 108.227 1749.68 109.891 1742.48 109.698C1734.77 109.482 1727.67 106.878 1720.86 103.403C1716.12 100.981 1711.29 98.0851 1708.46 93.428C1708 92.6607 1706.82 93.3866 1707.28 94.1539C1709.74 98.1894 1713.63 100.998 1717.68 103.285C1721.46 105.402 1725.42 107.317 1729.52 108.711C1736.46 111.086 1743.75 111.605 1751 110.553C1755.42 109.904 1759.74 108.804 1764.01 107.534C1764.86 107.272 1764.47 105.947 1763.61 106.193Z" fill="#D1D1D1"/>
<path d="M1761.38 111.669C1756.41 117.224 1749.88 121.178 1742.52 122.516C1734.14 124.026 1725.64 122.099 1718.82 117.014C1714.7 113.939 1711.2 110.132 1707.47 106.615C1706.82 106.01 1705.87 107.01 1706.52 107.622C1713.46 114.166 1720.02 121.614 1729.79 123.656C1737.29 125.224 1745.14 124.254 1751.98 120.767C1755.94 118.748 1759.44 115.923 1762.4 112.622C1762.99 111.946 1761.98 111.001 1761.38 111.669Z" fill="#D1D1D1"/>
<path d="M1739.59 115.805C1734.69 115.937 1729.76 114.875 1725.87 111.753C1725.18 111.196 1724.23 112.204 1724.92 112.761C1729.1 116.123 1734.34 117.341 1739.62 117.188C1740.52 117.167 1740.48 115.776 1739.59 115.805Z" fill="#D1D1D1"/>
<path d="M1751.99 104.202C1746.02 104.119 1740.14 103.031 1734.35 101.659C1733.49 101.452 1733.18 102.8 1734.04 103.007C1739.94 104.406 1745.95 105.505 1752.03 105.585C1752.92 105.596 1752.88 104.221 1751.99 104.202Z" fill="#D1D1D1"/>
<path d="M1721.62 97.1769C1718.56 95.773 1715.53 94.3912 1713.26 91.8201C1712.67 91.1586 1711.73 92.1663 1712.32 92.8279C1714.67 95.4902 1717.82 96.9461 1720.98 98.4016C1721.78 98.7673 1722.44 97.5497 1721.62 97.1769Z" fill="#D1D1D1"/>
<path d="M1719.81 81.335C1716.94 80.1282 1714.22 78.6351 1711.35 77.4364C1710.53 77.0948 1709.88 78.3199 1710.7 78.6615C1713.57 79.8683 1716.29 81.3614 1719.16 82.5601C1719.99 82.8936 1720.64 81.6841 1719.81 81.335Z" fill="#D1D1D1"/>
<path d="M1774.28 87.0599C1772.7 80.5408 1771.58 73.6473 1767.38 68.1893C1762.96 62.4489 1756.4 58.2864 1749.39 56.5623C1745.31 55.5582 1741.08 55.3332 1736.91 55.6774C1736.02 55.7527 1736.07 57.1278 1736.95 57.0525C1746.39 56.2749 1755.26 58.7996 1762.46 65.0224C1765.72 67.8434 1768.2 71.276 1769.72 75.3176C1771.2 79.2357 1771.96 83.3955 1772.96 87.4541C1773.17 88.3231 1774.49 87.9214 1774.28 87.0599Z" fill="#D1D1D1"/>
<path d="M1774.69 68.6291C1772.89 65.4252 1771.1 62.1662 1768.67 59.3814C1766.18 56.5355 1763.06 54.5236 1759.45 53.4108C1758.6 53.1484 1758.29 54.4956 1759.14 54.758C1762.64 55.8431 1765.58 57.8685 1767.95 60.6634C1770.18 63.2904 1771.83 66.3663 1773.51 69.355C1773.95 70.1309 1775.12 69.4131 1774.69 68.6291Z" fill="#D1D1D1"/>
<path d="M574.09 174.061C576.819 165.57 576.573 155.101 573.542 146.729C571.45 140.966 566.665 133.459 559.413 135.067C553.061 136.484 550.418 144.114 550.518 149.892C550.64 156.381 552.507 163.252 555.871 168.829C557.528 171.577 559.766 174.275 562.741 175.686C565.864 177.173 569.158 176.874 572.238 175.432C573.914 174.65 572.396 172.221 570.736 172.986C559.692 178.131 554.297 159.94 553.525 152.338C553.032 147.447 553.739 141.077 558.595 138.413C564.118 135.37 568.838 142.345 570.463 146.665C573.572 154.954 574.016 164.979 571.302 173.454C570.741 175.188 573.53 175.828 574.09 174.061Z" fill="#DDAB84"/>
<path d="M571.9 173.484C568.4 167.718 566.783 161.05 564.978 154.614C564.485 152.832 561.726 153.665 562.235 155.43C564.111 162.09 565.85 168.998 569.469 174.971C570.409 176.544 572.872 175.057 571.9 173.484Z" fill="#DDAB84"/>
<path d="M552.466 181.082C548.059 177.919 543.56 174.889 538.875 172.123C533.529 168.958 527.559 165.489 521.328 164.538C519.131 164.203 516.686 164.2 514.801 165.539C512.726 167.014 512.16 169.623 512.219 172.034C512.305 175.82 513.401 179.801 515.73 182.803C518.396 186.249 522.209 188.572 526.254 190.014C534.916 193.09 546.996 192.559 552.379 184.016C553.367 182.462 550.816 181.135 549.844 182.671C545.648 189.347 536.042 189.75 529.201 187.944C525.429 186.947 521.745 185.122 519.033 182.293C516.59 179.748 515.449 176.416 515.13 172.945C515.03 171.815 514.992 170.618 515.33 169.522C515.536 168.835 515.954 168.223 516.349 167.935C517.599 167.004 519.481 167.106 521.191 167.424C526.744 168.429 531.988 171.436 536.803 174.23C539.64 175.888 542.416 177.646 545.144 179.453C546.203 180.164 547.261 180.875 548.321 181.619C548.768 181.945 549.215 182.238 549.662 182.564C550.059 182.843 550.358 183.06 550.507 183.169C551.997 184.222 553.973 182.151 552.466 181.082Z" fill="#DDAB84"/>
<path d="M550.256 182.399C544.086 181.349 538.234 179.091 532.284 177.305C530.519 176.778 529.878 179.568 531.643 180.094C537.593 181.88 543.444 184.139 549.614 185.189C551.421 185.504 552.078 182.698 550.256 182.399Z" fill="#DDAB84"/>
<path d="M541.066 152.104C539.895 144.692 538.393 136.53 533.542 130.532C530.577 126.87 526.17 123.172 521.414 122.288C519.379 121.915 517.25 122.177 515.675 123.62C513.865 125.281 513.395 127.854 513.274 130.19C512.979 136.288 516.844 141.8 521.254 145.627C526.081 149.812 532.387 153.125 538.862 153.583C540.695 153.702 540.59 150.84 538.773 150.736C534.051 150.417 529.363 148.088 525.554 145.392C521.431 142.463 517.578 138.376 516.4 133.313C515.653 130.13 515.992 124.42 520.497 125.037C524.432 125.559 528.125 128.713 530.692 131.562C535.608 137.056 537.092 145.138 538.203 152.179C538.486 153.983 541.35 153.908 541.066 152.104Z" fill="#DDAB84"/>
<path d="M539.345 149.924C535.441 146.259 531.962 142.209 528.059 138.544C526.724 137.291 524.748 139.362 526.1 140.63C530.004 144.295 533.482 148.346 537.386 152.01C538.737 153.279 540.696 151.192 539.345 149.924Z" fill="#DDAB84"/>
<path d="M1306.37 184.265C1332.85 195.94 1370.43 199.314 1393.52 178.657C1394.15 178.097 1394.05 177.112 1393.53 176.505C1387.93 170.079 1379.17 166.648 1371.35 163.785C1362.01 160.351 1352.82 158.101 1342.81 158.009C1333.58 157.92 1325.41 159.733 1317.18 163.944C1313.05 166.044 1309.11 168.502 1305.24 171.031C1303.52 172.166 1301.78 173.323 1300.07 174.492C1298.87 175.311 1297.24 175.996 1296.5 177.278C1296.06 178.034 1296.38 178.89 1297.05 179.333C1299.98 181.358 1303.29 182.568 1306.37 184.265C1308.08 185.195 1309.61 182.58 1307.89 181.639C1304.8 179.942 1301.49 178.731 1298.58 176.739C1298.76 177.436 1298.95 178.132 1299.13 178.795C1299.63 177.933 1302.06 176.819 1303.03 176.171C1304.64 175.082 1306.27 174.007 1307.88 172.952C1311.38 170.683 1314.95 168.485 1318.67 166.6C1326.61 162.556 1334.44 160.94 1343.34 161.064C1352.64 161.189 1361.11 163.309 1369.79 166.441C1377.34 169.147 1385.95 172.438 1391.37 178.647C1391.37 177.918 1391.37 177.223 1391.38 176.494C1380.25 186.435 1365.18 190.115 1350.57 190.311C1336.02 190.51 1321.21 187.508 1307.87 181.627C1306.12 180.869 1304.58 183.483 1306.37 184.265Z" fill="#DDAB84"/>
<path d="M1301.66 179.165C1317.27 176.605 1333.12 175.864 1348.91 176.131C1355.72 176.248 1362.48 176.036 1369.29 175.957C1376.39 175.885 1383.74 176.034 1390.48 178.582C1392.3 179.268 1393.07 176.325 1391.25 175.639C1384.75 173.203 1377.65 172.884 1370.79 172.905C1363.5 172.922 1356.23 173.213 1348.93 173.088C1332.85 172.826 1316.79 173.641 1300.91 176.239C1298.96 176.567 1299.76 179.496 1301.66 179.165Z" fill="#DDAB84"/>
<path d="M1382.12 178.775C1365.83 182.229 1349.27 186.057 1332.5 184.416C1330.56 184.223 1330.57 187.258 1332.51 187.45C1349.52 189.117 1366.37 185.229 1382.89 181.713C1384.81 181.307 1384.03 178.389 1382.12 178.775Z" fill="#DDAB84"/>
<path d="M1358.01 166.927C1348.45 165.862 1339.07 167.112 1329.63 168.554C1327.7 168.84 1328.5 171.77 1330.41 171.472C1339.63 170.07 1348.74 168.912 1358.04 169.941C1359.97 170.188 1359.94 167.141 1358.01 166.927Z" fill="#DDAB84"/>
<path d="M1328.05 179.973C1323.97 179.52 1319.93 178.592 1315.81 178.506C1314.98 178.479 1314.3 179.231 1314.3 180.047C1314.29 180.883 1315.01 181.546 1315.84 181.553C1319.97 181.639 1324 182.567 1328.09 183.019C1328.91 183.102 1329.6 182.241 1329.59 181.479C1329.57 180.597 1328.86 180.076 1328.05 179.973Z" fill="#DDAB84"/>
<path d="M1279.69 156.672C1308.69 155.147 1343.55 141.147 1354.89 112.279C1355.22 111.462 1354.48 110.7 1353.8 110.42C1345.78 107.164 1336.2 108.13 1327.85 109.138C1318.63 110.257 1310.04 112.164 1301.59 116.166C1293.11 120.178 1286.35 125.326 1280.69 132.846C1277.78 136.715 1275.25 140.857 1272.82 145.06C1271.74 146.93 1270.67 148.833 1269.61 150.716C1268.87 152.052 1267.72 153.407 1267.64 154.957C1267.61 155.552 1268.14 156.335 1268.78 156.428C1272.43 156.963 1276.03 156.549 1279.69 156.672C1281.64 156.735 1281.63 153.701 1279.67 153.638C1276.3 153.511 1272.9 153.958 1269.55 153.506C1269.93 154.007 1270.3 154.476 1270.69 154.977C1270.75 154.002 1272.55 151.708 1273.14 150.678C1274.14 148.901 1275.14 147.124 1276.18 145.371C1278.38 141.6 1280.69 137.891 1283.33 134.397C1288.74 127.21 1295.43 122.416 1303.53 118.632C1311.62 114.868 1319.9 113.149 1328.71 112.125C1336.58 111.208 1345.52 110.345 1353.04 113.396C1352.67 112.765 1352.31 112.168 1351.95 111.537C1346.49 125.418 1334.63 135.467 1321.67 142.22C1308.77 148.944 1294.21 152.894 1279.7 153.65C1277.73 153.749 1277.75 156.783 1279.69 156.672Z" fill="#DDAB84"/>
<path d="M1272.85 154.433C1286.02 144.833 1300.2 136.827 1314.87 129.775C1320.92 126.877 1326.76 123.609 1332.71 120.543C1338.69 117.467 1345.02 114.457 1351.78 113.734C1353.69 113.523 1353.7 110.501 1351.76 110.699C1338.5 112.118 1327.14 120.576 1315.38 126.174C1300.01 133.467 1285.11 141.756 1271.35 151.799C1269.79 152.944 1271.29 155.579 1272.85 154.433Z" fill="#DDAB84"/>
<path d="M1344.68 117.676C1331.81 128.012 1318.84 138.875 1303.3 144.918C1301.49 145.614 1302.26 148.552 1304.08 147.835C1320.16 141.596 1333.5 130.528 1346.82 119.839C1348.34 118.615 1346.19 116.473 1344.68 117.676Z" fill="#DDAB84"/>
<path d="M1318.16 117.807C1309.13 121.166 1301.32 126.436 1293.52 131.989C1291.94 133.122 1293.45 135.757 1295.03 134.624C1302.59 129.241 1310.18 124.012 1318.95 120.725C1320.77 120.041 1319.99 117.123 1318.16 117.807Z" fill="#DDAB84"/>
<path d="M1297.31 142.948C1293.34 144.437 1289.21 145.472 1285.37 147.317C1284.66 147.665 1284.39 148.715 1284.79 149.391C1285.26 150.137 1286.1 150.318 1286.86 149.973C1287.81 149.507 1288.54 149.204 1289.44 148.856C1290.41 148.49 1291.39 148.158 1292.37 147.825C1294.27 147.19 1296.18 146.609 1298.07 145.908C1298.81 145.637 1299.41 144.891 1299.14 144.059C1298.95 143.308 1298.12 142.66 1297.31 142.948Z" fill="#DDAB84"/>
<path d="M235.306 134.308C233.336 141.72 223.138 144.182 216.531 144.361C213.116 144.455 209.191 144.114 206.311 142.114C205.22 141.364 204.357 140.318 204.035 139.01C203.67 137.495 203.978 135.226 205.013 134.042C206.25 132.63 208.399 133.948 209.668 134.654C211.363 135.594 213.028 136.734 214.888 137.31C218.723 138.491 223.314 135.921 224.29 132.006C225.249 128.142 222.346 124.304 218.68 123.325C214.701 122.257 210.278 123.267 206.333 124.059C202.531 124.824 197.802 126.465 193.993 125.073C191.199 124.04 189.148 121.723 187.915 119.065C187.703 118.599 186.609 116.67 187.034 116.108C187.063 116.08 188.058 116.251 188.332 116.317C191.832 117.249 195.234 119.65 198.971 119.428C202.474 119.22 205.798 116.27 204.29 112.665C202.749 108.991 199.103 107.377 195.588 106.239C193.443 105.546 190.789 104.744 189.733 102.541C189.125 101.258 188.814 97.6548 190.581 96.9246C192.418 96.1609 194.523 98.7079 196.445 98.5002C199.898 98.132 198.174 92.0296 196.887 90.4932C195.295 88.6214 192.838 87.6672 190.591 86.824C187.98 85.8452 185.299 84.9 182.911 83.4143C180.325 81.8119 178.56 79.5262 177.875 76.5314C177.304 74.0357 177.714 71.4192 178.489 68.9955C179.204 66.7143 180.388 64.0777 182.557 62.8255C184.53 61.697 186.408 62.2785 187.427 64.2012C188.843 66.8551 189.081 71.7163 192.442 72.8007C193.994 73.2986 196 72.737 197.086 71.5415C198.282 70.2213 198.604 68.302 198.865 66.6109C199.202 64.3713 199.288 62.0545 199.973 59.8874C200.718 57.5493 202.528 56.1443 204.712 55.1555C209.124 53.1554 215.114 53.7309 216.936 58.8615C218.669 63.7507 214.867 67.7719 213.085 71.9928C211.268 76.2877 211.629 86.0376 218.581 83.4876C221.228 82.5154 223.569 80.7385 225.92 79.2136C228.137 77.7673 230.692 75.9299 233.399 75.6107C235.757 75.3334 237.833 77.4681 237.488 79.8678C237.112 82.4962 234.161 84.4551 232.185 85.8697C227.492 89.2573 219.627 92.9761 218.99 99.5274C218.577 103.781 221.636 107.5 225.473 108.979C229.835 110.658 235.237 109.172 236.546 104.299C237.158 102.04 237.016 99.6063 237.925 97.4302C238.775 95.3965 240.964 93.4807 243.169 93.0644C246.603 92.3927 248.089 96.3921 248.313 99.1129C248.638 102.979 247.138 106.58 244.073 108.949C241.749 110.732 237.107 113.199 237.973 116.802C238.938 120.842 243.197 120.139 246.276 119.91C248.34 119.761 249.837 120.499 250.125 122.734C250.381 124.699 249.065 126.419 247.698 127.68C245.027 130.129 241.344 131.959 237.822 132.83C236.828 133.071 237.112 134.654 238.118 134.407C241.783 133.509 245.524 131.679 248.401 129.216C251.099 126.911 253.298 122.757 250.455 119.601C247.816 116.659 243.691 120.013 240.787 118.138C236.439 115.343 243.989 111.152 245.829 109.604C248.66 107.249 250.012 103.521 249.947 99.8978C249.898 96.9214 248.873 93.1674 245.905 91.8356C242.521 90.3217 238.315 93.2168 236.778 96.1528C235.669 98.2694 235.663 100.661 235.228 102.963C234.658 105.955 232.605 108.004 229.442 108.118C224.703 108.272 219.605 104.021 220.693 98.9854C221.403 95.7255 224.439 93.3555 226.983 91.4664C229.845 89.352 232.972 87.5495 235.664 85.2042C237.575 83.5371 239.522 81.2695 239.028 78.5514C238.589 76.0915 236.563 74.0318 234.003 74.0093C231.242 73.9845 228.598 75.6664 226.347 77.0723C223.795 78.6808 221.343 80.5823 218.573 81.7993C216.304 82.7872 214.617 82.4824 214.019 79.872C213.546 77.8123 213.523 75.5629 214.2 73.556C214.962 71.281 216.344 69.2876 217.413 67.1476C219.474 63.0328 219.714 57.925 215.962 54.6559C212.596 51.7116 207.476 52.0499 203.661 53.902C201.725 54.8421 199.858 56.1892 198.917 58.1818C197.982 60.1573 197.771 62.4212 197.51 64.5529C197.281 66.4274 197.261 69.4088 195.652 70.7302C193.968 72.1308 192.106 71.2576 191.227 69.5654C189.772 66.7738 189.507 61.7977 185.882 60.8134C181.04 59.4952 177.947 65.1209 176.84 68.8858C175.418 73.7287 175.729 79.1516 179.538 82.862C181.452 84.7201 183.9 85.8917 186.345 86.9088C188.984 88.0023 191.948 88.739 194.311 90.3789C195.487 91.1873 196.418 92.2849 196.693 93.7301C196.811 94.3552 197.064 96.1092 196.576 96.6875C196.053 97.3112 194.979 96.5955 194.358 96.3139C192.153 95.3224 189.546 94.4696 188.28 97.2598C187.409 99.1902 187.383 101.719 188.432 103.585C189.485 105.491 191.506 106.515 193.473 107.252C195.543 108.024 197.812 108.416 199.624 109.712C201.038 110.718 202.663 112.246 203.013 114.024C203.467 116.278 200.814 117.708 198.893 117.859C196.961 118.015 194.91 117.105 193.154 116.422C191.649 115.845 186.016 112.778 185.41 115.93C185.018 117.969 186.777 120.712 187.887 122.264C189.334 124.306 191.376 125.931 193.778 126.713C197.652 127.974 202.206 126.531 206.043 125.749C210.074 124.93 215.195 123.51 219.179 125.202C221.207 126.066 222.83 128.264 222.831 130.496C222.838 133.18 220.538 135.278 218.056 135.857C213.949 136.813 210.931 132.591 207.107 131.902C203.403 131.226 201.928 135.667 202.286 138.664C202.645 141.633 205.027 143.605 207.66 144.658C214.614 147.453 224.061 145.995 230.408 142.288C233.293 140.603 235.878 138.154 236.76 134.839C237.082 133.829 235.576 133.309 235.306 134.308Z" fill="#DCD3D7"/>
</g>
</svg>
