<svg width="1920" height="225" viewBox="0 0 1920 225" fill="none" xmlns="http://www.w3.org/2000/svg">
<rect x="0.00012207" width="1920" height="225" fill="#FAFAFA"/>
<mask id="mask0_8_4" style="mask-type:alpha" maskUnits="userSpaceOnUse" x="0" y="2" width="1920" height="223">
<rect y="2" width="1920" height="223" fill="#E3F1E9"/>
</mask>
<g mask="url(#mask0_8_4)">
<path d="M792.647 83.1939C784.45 79.0779 773.774 77.674 764.788 79.4304C758.601 80.6444 750.217 84.32 750.705 91.9434C751.14 98.6214 758.476 102.513 764.362 103.325C770.975 104.227 778.252 103.416 784.45 100.879C787.505 99.6297 790.6 97.782 792.504 94.9821C794.509 92.0438 794.725 88.6495 793.747 85.2919C793.217 83.4656 790.509 84.6233 791.024 86.431C794.506 98.4663 775.17 101.073 767.323 100.656C762.276 100.384 755.915 98.6583 753.975 93.3036C751.757 87.2102 759.589 83.5168 764.236 82.5485C773.15 80.6992 783.407 81.8334 791.589 85.9307C793.262 86.7749 794.353 84.0421 792.647 83.1939Z" fill="#DDDDDD"/>
<path d="M791.714 85.3236C785.302 87.9685 778.27 88.558 771.446 89.3744C769.557 89.5937 769.967 92.5288 771.841 92.2909C778.905 91.4371 786.199 90.7626 792.84 88.0286C794.587 87.3223 793.465 84.5843 791.714 85.3236Z" fill="#DDDDDD"/>
<path d="M796.362 106.273C792.451 110.25 788.661 114.343 785.11 118.666C781.049 123.598 776.58 129.116 774.629 135.297C773.942 137.476 773.552 139.96 774.615 142.087C775.786 144.429 778.347 145.417 780.806 145.737C784.667 146.248 788.885 145.764 792.304 143.872C796.226 141.708 799.19 138.2 801.294 134.318C805.789 126.003 807.159 113.645 799.329 106.824C797.906 105.575 796.154 107.958 797.562 109.188C803.682 114.507 802.574 124.331 799.657 130.997C798.048 134.672 795.611 138.127 792.308 140.435C789.335 142.516 785.77 143.148 782.192 142.924C781.028 142.847 779.805 142.696 778.746 142.179C778.08 141.862 777.524 141.34 777.294 140.893C776.546 139.475 776.947 137.58 777.541 135.892C779.44 130.409 783.323 125.556 786.923 121.104C789.057 118.484 791.281 115.941 793.549 113.455C794.439 112.492 795.329 111.528 796.252 110.569C796.654 110.166 797.022 109.759 797.424 109.356C797.77 108.996 798.038 108.727 798.172 108.593C799.478 107.245 797.686 104.911 796.362 106.273Z" fill="#DDDDDD"/>
<path d="M797.352 108.729C795.31 114.833 792.09 120.421 789.335 126.185C788.52 127.895 791.253 128.988 792.068 127.277C794.823 121.514 798.043 115.925 800.085 109.822C800.69 108.035 797.943 106.924 797.352 108.729Z" fill="#DDDDDD"/>
<path d="M765.116 113.276C757.4 113.295 748.869 113.531 742.007 117.513C737.817 119.946 733.364 123.839 731.713 128.532C731.013 130.542 730.943 132.747 732.16 134.574C733.561 136.676 736.102 137.56 738.456 138.053C744.606 139.316 750.817 136.261 755.403 132.384C760.419 128.141 764.782 122.257 766.27 115.75C766.681 113.906 763.756 113.561 763.363 115.391C762.292 120.138 759.186 124.534 755.844 127.977C752.216 131.705 747.454 134.973 742.123 135.37C738.771 135.626 733.022 134.379 734.362 129.899C735.514 125.984 739.302 122.729 742.603 120.571C748.963 116.444 757.409 116.214 764.739 116.198C766.618 116.196 766.994 113.274 765.116 113.276Z" fill="#DDDDDD"/>
<path d="M762.628 114.683C758.287 118.071 753.621 120.965 749.28 124.353C747.796 125.511 749.588 127.845 751.091 126.673C755.432 123.285 760.098 120.391 764.438 117.003C765.941 115.831 764.13 113.511 762.628 114.683Z" fill="#DDDDDD"/>
<path d="M1141.93 120.054C1153.56 137.9 1176.81 154.579 1202.71 149.927C1203.42 149.804 1203.85 149.118 1203.82 148.52C1203.38 142.154 1199.32 136.535 1195.58 131.647C1191.13 125.799 1186.17 120.788 1179.57 116.874C1173.48 113.263 1167.13 111.307 1159.5 110.897C1155.68 110.684 1151.81 110.777 1147.94 110.944C1146.22 111.026 1144.47 111.117 1142.74 111.224C1141.52 111.298 1140.09 111.119 1138.94 111.675C1138.26 112.002 1138.04 112.686 1138.26 113.234C1139.16 115.687 1140.75 117.754 1141.93 120.054C1142.59 121.32 1144.95 120.199 1144.28 118.917C1143.1 116.617 1141.51 114.549 1140.6 112.122C1140.36 112.65 1140.13 113.178 1139.91 113.681C1140.68 113.308 1142.87 113.516 1143.84 113.462C1145.47 113.368 1147.1 113.291 1148.72 113.222C1152.2 113.082 1155.7 113.015 1159.13 113.213C1166.48 113.62 1172.51 115.575 1178.36 119.082C1184.47 122.741 1189.02 127.393 1193.19 132.786C1196.82 137.466 1200.86 142.939 1201.29 149.092C1201.66 148.615 1202.02 148.162 1202.39 147.685C1189.92 149.918 1178.02 146.526 1168.21 141.031C1158.44 135.559 1150.13 127.891 1144.27 118.901C1143.5 117.731 1141.14 118.852 1141.93 120.054Z" fill="#DDDDDD"/>
<path d="M1141.41 114.899C1153.09 119.229 1164 124.845 1174.36 131.101C1178.82 133.796 1183.43 136.262 1187.99 138.829C1192.75 141.517 1197.55 144.442 1200.73 148.708C1201.59 149.857 1203.61 148.227 1202.75 147.077C1199.68 142.978 1195.12 140.034 1190.55 137.41C1185.69 134.611 1180.72 132.007 1175.93 129.114C1165.38 122.751 1154.29 117.104 1142.4 112.692C1140.94 112.155 1139.97 114.384 1141.41 114.899Z" fill="#DDDDDD"/>
<path d="M1195.08 145.617C1182.49 141.608 1169.52 137.741 1159.22 130.209C1158.03 129.338 1156.49 131.332 1157.67 132.203C1168.13 139.843 1181.31 143.782 1194.09 147.839C1195.57 148.311 1196.55 146.097 1195.08 145.617Z" fill="#DDDDDD"/>
<path d="M1185.11 128.571C1179.3 124.192 1172.43 121.398 1165.42 118.71C1163.99 118.154 1163.02 120.383 1164.45 120.923C1171.29 123.554 1177.93 126.301 1183.59 130.556C1184.75 131.462 1186.28 129.452 1185.11 128.571Z" fill="#DDDDDD"/>
<path d="M1158.53 125.588C1156.05 123.719 1153.84 121.557 1151.14 119.912C1150.61 119.576 1149.77 119.805 1149.35 120.342C1148.92 120.888 1149.06 121.596 1149.61 121.922C1152.31 123.568 1154.51 125.729 1157 127.598C1157.5 127.968 1158.4 127.671 1158.78 127.168C1159.22 126.581 1159.02 125.967 1158.53 125.588Z" fill="#DDDDDD"/>
<path d="M1138.3 91.6994C1158.35 101.864 1188.67 106.107 1210.97 91.5536C1211.61 91.1457 1211.51 90.3623 1211.2 89.9172C1207.54 84.6974 1200.67 81.6406 1194.61 79.0877C1187.91 76.2695 1181.22 74.2138 1173.56 73.5838C1165.87 72.9469 1158.75 73.7198 1151.14 76.4693C1147.23 77.8862 1143.43 79.6261 1139.67 81.4464C1138 82.2564 1136.31 83.0915 1134.65 83.9176C1133.47 84.507 1132.02 84.9537 1131.17 85.9379C1130.84 86.3147 1130.79 87.0312 1131.18 87.3414C1133.32 89.0949 1135.93 90.2109 1138.3 91.6994C1139.56 92.4932 1141.11 90.4991 1139.84 89.7053C1137.66 88.3227 1135.18 87.3077 1133.18 85.7196C1133.17 86.1958 1133.18 86.6469 1133.18 87.1231C1133.72 86.5066 1136.09 85.6964 1137.01 85.2504C1138.58 84.4699 1140.15 83.6893 1141.74 82.9409C1145.14 81.3187 1148.57 79.7768 1152.1 78.5008C1159.37 75.8738 1166.27 75.3086 1173.59 75.9467C1180.89 76.5939 1187.27 78.6556 1193.65 81.3743C1199.35 83.8048 1205.73 86.6792 1209.17 91.5733C1209.25 91.0195 1209.32 90.4908 1209.4 89.9369C1198.67 96.9311 1185.65 98.9522 1173.59 98.3913C1161.57 97.8282 1149.88 94.8117 1139.85 89.7214C1138.49 89.0304 1136.95 91.0245 1138.3 91.6994Z" fill="#DDDDDD"/>
<path d="M1134.9 87.6012C1148.56 86.3788 1162.08 86.5916 1175.43 87.6166C1180.93 88.0454 1186.48 88.1515 1192 88.4316C1197.55 88.7186 1203.3 89.1848 1208.16 91.3105C1209.54 91.91 1211.09 89.9319 1209.7 89.3164C1200.16 85.1388 1188.28 86.3093 1177.61 85.4527C1163.67 84.316 1149.52 84.0098 1135.25 85.2944C1133.62 85.4452 1133.28 87.752 1134.9 87.6012Z" fill="#DDDDDD"/>
<path d="M1201.43 91.1613C1187.59 92.983 1173.42 95.1082 1160 93.0848C1158.45 92.8465 1157.46 95.0689 1159.03 95.2981C1172.9 97.3985 1187.43 95.2812 1201.75 93.4037C1203.38 93.1866 1203.04 90.9533 1201.43 91.1613Z" fill="#DDDDDD"/>
<path d="M1183.74 81.0395C1176.02 79.7637 1168.14 80.2115 1160.11 80.8465C1158.48 80.9812 1158.14 83.2881 1159.77 83.1533C1167.55 82.5381 1175.26 82.0327 1182.77 83.2529C1184.33 83.5072 1185.3 81.2938 1183.74 81.0395Z" fill="#DDDDDD"/>
<path d="M1157.02 89.4887C1153.62 88.9357 1150.35 88.0237 1146.85 87.7544C1146.21 87.7112 1145.49 88.2952 1145.41 88.8902C1145.34 89.5585 1145.81 90.0041 1146.49 90.0703C1147.35 90.1279 1148 90.2123 1148.78 90.3314C1149.61 90.4644 1150.42 90.6226 1151.24 90.7808C1152.84 91.0993 1154.4 91.452 1156.02 91.7202C1156.65 91.8298 1157.43 91.5711 1157.67 90.9193C1157.93 90.3569 1157.71 89.6121 1157.02 89.4887Z" fill="#DDDDDD"/>
</g>
</svg>
