<svg width="1920" height="225" viewBox="0 0 1920 225" fill="none" xmlns="http://www.w3.org/2000/svg">
<rect x="9.15527e-05" width="1920" height="225" fill="#FAFAFA"/>
<mask id="mask0_10_171" style="mask-type:alpha" maskUnits="userSpaceOnUse" x="0" y="2" width="1920" height="223">
<rect y="2" width="1920" height="223" fill="#E3F1E9"/>
</mask>
<g mask="url(#mask0_10_171)">
<path d="M792.647 83.1939C784.45 79.0779 773.774 77.674 764.788 79.4304C758.601 80.6444 750.217 84.32 750.705 91.9434C751.14 98.6214 758.476 102.513 764.362 103.325C770.975 104.227 778.252 103.416 784.45 100.879C787.505 99.6297 790.6 97.782 792.504 94.9821C794.509 92.0438 794.725 88.6495 793.747 85.2919C793.217 83.4656 790.509 84.6233 791.024 86.431C794.506 98.4663 775.17 101.073 767.323 100.656C762.276 100.384 755.915 98.6583 753.975 93.3036C751.757 87.2102 759.589 83.5168 764.236 82.5485C773.15 80.6992 783.407 81.8334 791.589 85.9307C793.262 86.7749 794.353 84.0421 792.647 83.1939Z" fill="#DDDDDD"/>
<path d="M791.714 85.3236C785.302 87.9685 778.27 88.558 771.446 89.3744C769.557 89.5937 769.967 92.5288 771.841 92.2909C778.905 91.4371 786.199 90.7626 792.84 88.0286C794.587 87.3223 793.465 84.5843 791.714 85.3236Z" fill="#DDDDDD"/>
<path d="M796.362 106.273C792.451 110.25 788.661 114.343 785.11 118.666C781.049 123.598 776.58 129.116 774.629 135.297C773.942 137.476 773.552 139.96 774.615 142.087C775.786 144.429 778.347 145.417 780.806 145.737C784.667 146.248 788.885 145.764 792.304 143.872C796.226 141.708 799.19 138.2 801.294 134.318C805.789 126.003 807.159 113.645 799.329 106.824C797.906 105.575 796.154 107.958 797.562 109.188C803.682 114.507 802.574 124.331 799.657 130.997C798.048 134.672 795.611 138.127 792.308 140.435C789.335 142.516 785.77 143.148 782.192 142.924C781.028 142.847 779.805 142.696 778.746 142.179C778.08 141.862 777.524 141.34 777.294 140.893C776.546 139.475 776.947 137.58 777.541 135.892C779.44 130.409 783.323 125.556 786.923 121.104C789.057 118.484 791.281 115.941 793.549 113.455C794.439 112.492 795.329 111.528 796.252 110.569C796.654 110.166 797.022 109.759 797.424 109.356C797.77 108.996 798.038 108.727 798.172 108.593C799.478 107.245 797.686 104.911 796.362 106.273Z" fill="#DDDDDD"/>
<path d="M797.352 108.729C795.31 114.833 792.09 120.421 789.335 126.185C788.52 127.895 791.253 128.988 792.068 127.277C794.823 121.514 798.043 115.925 800.085 109.822C800.69 108.035 797.943 106.924 797.352 108.729Z" fill="#DDDDDD"/>
<path d="M765.116 113.276C757.4 113.295 748.869 113.531 742.007 117.513C737.817 119.946 733.364 123.839 731.713 128.532C731.013 130.542 730.943 132.747 732.16 134.574C733.561 136.676 736.102 137.56 738.456 138.053C744.606 139.316 750.817 136.261 755.403 132.384C760.419 128.141 764.782 122.257 766.27 115.75C766.681 113.906 763.756 113.561 763.363 115.391C762.292 120.138 759.186 124.534 755.844 127.977C752.216 131.705 747.454 134.973 742.123 135.37C738.771 135.626 733.022 134.379 734.362 129.899C735.514 125.984 739.302 122.729 742.603 120.571C748.963 116.444 757.409 116.214 764.739 116.198C766.618 116.196 766.994 113.274 765.116 113.276Z" fill="#DDDDDD"/>
<path d="M762.628 114.683C758.287 118.071 753.621 120.965 749.28 124.353C747.796 125.511 749.588 127.845 751.091 126.673C755.432 123.285 760.098 120.391 764.438 117.003C765.941 115.831 764.13 113.511 762.628 114.683Z" fill="#DDDDDD"/>
<path d="M1141.93 120.054C1153.56 137.9 1176.81 154.579 1202.71 149.927C1203.42 149.804 1203.85 149.118 1203.82 148.52C1203.38 142.154 1199.32 136.535 1195.58 131.647C1191.13 125.799 1186.17 120.788 1179.57 116.874C1173.48 113.263 1167.13 111.307 1159.5 110.897C1155.68 110.684 1151.81 110.777 1147.94 110.944C1146.22 111.026 1144.47 111.117 1142.74 111.224C1141.52 111.298 1140.09 111.119 1138.94 111.675C1138.26 112.002 1138.04 112.686 1138.26 113.234C1139.16 115.687 1140.75 117.754 1141.93 120.054C1142.59 121.32 1144.95 120.199 1144.28 118.917C1143.1 116.617 1141.51 114.549 1140.6 112.122C1140.36 112.65 1140.13 113.178 1139.91 113.681C1140.68 113.308 1142.87 113.516 1143.84 113.462C1145.47 113.368 1147.1 113.291 1148.72 113.222C1152.2 113.082 1155.7 113.015 1159.13 113.213C1166.48 113.62 1172.51 115.575 1178.36 119.082C1184.47 122.741 1189.02 127.393 1193.19 132.786C1196.82 137.466 1200.86 142.939 1201.29 149.092C1201.66 148.615 1202.02 148.162 1202.39 147.685C1189.92 149.918 1178.02 146.526 1168.21 141.031C1158.44 135.559 1150.13 127.891 1144.27 118.901C1143.5 117.731 1141.14 118.852 1141.93 120.054Z" fill="#DDDDDD"/>
<path d="M1141.41 114.899C1153.09 119.229 1164 124.845 1174.36 131.101C1178.82 133.796 1183.43 136.262 1187.99 138.829C1192.75 141.517 1197.55 144.442 1200.73 148.708C1201.59 149.857 1203.61 148.227 1202.75 147.077C1199.68 142.978 1195.12 140.034 1190.55 137.41C1185.69 134.611 1180.72 132.007 1175.93 129.114C1165.38 122.751 1154.29 117.104 1142.4 112.692C1140.94 112.155 1139.97 114.384 1141.41 114.899Z" fill="#DDDDDD"/>
<path d="M1195.08 145.617C1182.49 141.608 1169.52 137.741 1159.22 130.209C1158.03 129.338 1156.49 131.332 1157.67 132.203C1168.13 139.843 1181.31 143.782 1194.09 147.839C1195.57 148.311 1196.55 146.097 1195.08 145.617Z" fill="#DDDDDD"/>
<path d="M1185.11 128.571C1179.3 124.192 1172.43 121.398 1165.42 118.71C1163.99 118.154 1163.02 120.383 1164.45 120.923C1171.29 123.554 1177.93 126.301 1183.59 130.556C1184.75 131.462 1186.28 129.452 1185.11 128.571Z" fill="#DDDDDD"/>
<path d="M1158.53 125.588C1156.05 123.719 1153.84 121.557 1151.14 119.912C1150.61 119.576 1149.77 119.805 1149.35 120.342C1148.92 120.888 1149.06 121.596 1149.61 121.922C1152.31 123.568 1154.51 125.729 1157 127.598C1157.5 127.968 1158.4 127.671 1158.78 127.168C1159.22 126.581 1159.02 125.967 1158.53 125.588Z" fill="#DDDDDD"/>
<path d="M1138.3 91.6994C1158.35 101.864 1188.67 106.107 1210.97 91.5536C1211.61 91.1457 1211.51 90.3623 1211.2 89.9172C1207.54 84.6974 1200.67 81.6406 1194.61 79.0877C1187.91 76.2695 1181.22 74.2138 1173.56 73.5838C1165.87 72.9469 1158.75 73.7198 1151.14 76.4693C1147.23 77.8862 1143.43 79.6261 1139.67 81.4464C1138 82.2564 1136.31 83.0915 1134.65 83.9176C1133.47 84.507 1132.02 84.9537 1131.17 85.9379C1130.84 86.3147 1130.79 87.0311 1131.18 87.3414C1133.32 89.0948 1135.93 90.2109 1138.3 91.6994C1139.56 92.4932 1141.11 90.4991 1139.84 89.7053C1137.66 88.3227 1135.18 87.3077 1133.18 85.7196C1133.17 86.1958 1133.18 86.6469 1133.18 87.1231C1133.72 86.5066 1136.09 85.6964 1137.01 85.2504C1138.58 84.4699 1140.15 83.6893 1141.74 82.9409C1145.14 81.3187 1148.57 79.7768 1152.1 78.5008C1159.37 75.8738 1166.27 75.3086 1173.59 75.9467C1180.89 76.5939 1187.27 78.6556 1193.65 81.3743C1199.35 83.8048 1205.73 86.6792 1209.17 91.5733C1209.25 91.0195 1209.32 90.4908 1209.4 89.9369C1198.67 96.931 1185.65 98.9522 1173.59 98.3913C1161.57 97.8282 1149.88 94.8117 1139.85 89.7214C1138.49 89.0304 1136.95 91.0245 1138.3 91.6994Z" fill="#DDDDDD"/>
<path d="M1134.9 87.6012C1148.56 86.3788 1162.08 86.5916 1175.43 87.6166C1180.93 88.0454 1186.48 88.1515 1192 88.4316C1197.55 88.7186 1203.3 89.1848 1208.16 91.3105C1209.54 91.91 1211.09 89.9319 1209.7 89.3164C1200.16 85.1388 1188.28 86.3093 1177.61 85.4527C1163.67 84.316 1149.52 84.0098 1135.25 85.2944C1133.62 85.4452 1133.28 87.752 1134.9 87.6012Z" fill="#DDDDDD"/>
<path d="M1201.43 91.1613C1187.59 92.983 1173.42 95.1082 1160 93.0848C1158.45 92.8465 1157.46 95.0689 1159.03 95.2981C1172.9 97.3985 1187.43 95.2812 1201.75 93.4037C1203.38 93.1866 1203.04 90.9533 1201.43 91.1613Z" fill="#DDDDDD"/>
<path d="M1183.74 81.0395C1176.02 79.7637 1168.14 80.2115 1160.11 80.8465C1158.48 80.9812 1158.14 83.288 1159.77 83.1533C1167.55 82.5381 1175.26 82.0327 1182.77 83.2529C1184.33 83.5072 1185.3 81.2938 1183.74 81.0395Z" fill="#DDDDDD"/>
<path d="M1157.02 89.4887C1153.62 88.9357 1150.35 88.0237 1146.85 87.7544C1146.21 87.7112 1145.49 88.2952 1145.41 88.8902C1145.34 89.5585 1145.81 90.0041 1146.49 90.0703C1147.35 90.1279 1148 90.2123 1148.78 90.3314C1149.61 90.4644 1150.42 90.6226 1151.24 90.7808C1152.84 91.0993 1154.4 91.452 1156.02 91.7202C1156.65 91.8298 1157.43 91.5711 1157.67 90.9193C1157.93 90.3569 1157.71 89.6121 1157.02 89.4887Z" fill="#DDDDDD"/>
</g>
<path d="M886.123 123.848V130H868.179V123.848H886.123ZM870.889 94.4531V130H862.93V94.4531H870.889ZM897.671 103.584V130H890.029V103.584H897.671ZM889.565 96.748C889.565 95.6413 889.956 94.738 890.737 94.0381C891.519 93.3219 892.544 92.9639 893.813 92.9639C895.083 92.9639 896.108 93.3219 896.89 94.0381C897.687 94.738 898.086 95.6413 898.086 96.748C898.086 97.8385 897.687 98.7419 896.89 99.458C896.108 100.158 895.083 100.508 893.813 100.508C892.544 100.508 891.519 100.158 890.737 99.458C889.956 98.7419 889.565 97.8385 889.565 96.748ZM914.199 124.556C915.013 124.556 915.721 124.401 916.323 124.092C916.925 123.783 917.389 123.351 917.715 122.798C918.057 122.228 918.228 121.545 918.228 120.747H925.405C925.405 122.668 924.909 124.36 923.916 125.825C922.939 127.29 921.621 128.438 919.961 129.268C918.301 130.081 916.429 130.488 914.346 130.488C912.295 130.488 910.505 130.155 908.975 129.487C907.445 128.804 906.167 127.852 905.142 126.631C904.116 125.41 903.343 123.994 902.822 122.383C902.318 120.755 902.065 118.997 902.065 117.109V116.475C902.065 114.603 902.318 112.853 902.822 111.226C903.343 109.598 904.116 108.174 905.142 106.953C906.167 105.732 907.437 104.788 908.95 104.121C910.48 103.438 912.271 103.096 914.321 103.096C916.486 103.096 918.398 103.511 920.059 104.341C921.735 105.171 923.045 106.367 923.989 107.93C924.933 109.476 925.405 111.34 925.405 113.521H918.228C918.228 112.674 918.073 111.917 917.764 111.25C917.471 110.566 917.015 110.029 916.396 109.639C915.794 109.232 915.046 109.028 914.15 109.028C913.223 109.028 912.458 109.232 911.855 109.639C911.27 110.029 910.822 110.575 910.513 111.274C910.203 111.974 909.992 112.772 909.878 113.667C909.764 114.546 909.707 115.482 909.707 116.475V117.109C909.707 118.118 909.764 119.079 909.878 119.99C909.992 120.885 910.203 121.675 910.513 122.358C910.838 123.042 911.294 123.579 911.88 123.97C912.466 124.36 913.239 124.556 914.199 124.556ZM941.641 130.488C939.541 130.488 937.661 130.155 936.001 129.487C934.341 128.82 932.933 127.9 931.777 126.729C930.638 125.54 929.767 124.173 929.165 122.627C928.563 121.081 928.262 119.429 928.262 117.671V116.743C928.262 114.774 928.538 112.959 929.092 111.299C929.645 109.639 930.451 108.198 931.509 106.978C932.583 105.741 933.901 104.788 935.464 104.121C937.026 103.438 938.809 103.096 940.811 103.096C942.682 103.096 944.351 103.405 945.815 104.023C947.28 104.626 948.517 105.496 949.526 106.636C950.535 107.759 951.3 109.118 951.821 110.713C952.358 112.292 952.627 114.066 952.627 116.035V119.16H931.338V114.253H945.156V113.667C945.156 112.739 944.985 111.925 944.644 111.226C944.318 110.526 943.83 109.989 943.179 109.614C942.544 109.224 941.738 109.028 940.762 109.028C939.834 109.028 939.061 109.224 938.442 109.614C937.824 110.005 937.327 110.558 936.953 111.274C936.595 111.974 936.335 112.796 936.172 113.74C936.009 114.668 935.928 115.669 935.928 116.743V117.671C935.928 118.696 936.066 119.632 936.343 120.479C936.619 121.325 937.026 122.049 937.563 122.651C938.101 123.254 938.752 123.726 939.517 124.067C940.282 124.409 941.152 124.58 942.129 124.58C943.333 124.58 944.481 124.352 945.571 123.896C946.662 123.424 947.606 122.692 948.403 121.699L951.968 125.776C951.431 126.558 950.674 127.314 949.697 128.047C948.737 128.763 947.581 129.349 946.23 129.805C944.88 130.26 943.35 130.488 941.641 130.488ZM963.809 109.224V130H956.167V103.584H963.345L963.809 109.224ZM962.808 115.864L960.903 115.913C960.903 113.927 961.147 112.145 961.636 110.566C962.124 108.988 962.816 107.645 963.711 106.538C964.622 105.415 965.705 104.561 966.958 103.975C968.228 103.389 969.627 103.096 971.157 103.096C972.394 103.096 973.525 103.275 974.551 103.633C975.576 103.991 976.455 104.569 977.188 105.366C977.936 106.147 978.506 107.189 978.896 108.491C979.287 109.777 979.482 111.364 979.482 113.252V130H971.816V113.228C971.816 112.121 971.662 111.266 971.353 110.664C971.043 110.062 970.588 109.639 969.985 109.395C969.399 109.15 968.683 109.028 967.837 109.028C966.942 109.028 966.177 109.207 965.542 109.565C964.907 109.907 964.386 110.387 963.979 111.006C963.573 111.624 963.271 112.349 963.076 113.179C962.897 114.009 962.808 114.904 962.808 115.864ZM998.525 122.651C998.525 122.163 998.371 121.732 998.062 121.357C997.769 120.983 997.231 120.641 996.45 120.332C995.685 120.023 994.603 119.714 993.203 119.404C991.885 119.128 990.656 118.77 989.517 118.33C988.377 117.874 987.384 117.329 986.538 116.694C985.692 116.043 985.033 115.278 984.561 114.399C984.089 113.504 983.853 112.487 983.853 111.348C983.853 110.241 984.089 109.191 984.561 108.198C985.049 107.205 985.749 106.326 986.66 105.562C987.588 104.797 988.711 104.194 990.029 103.755C991.364 103.315 992.878 103.096 994.57 103.096C996.898 103.096 998.908 103.462 1000.6 104.194C1002.29 104.91 1003.6 105.92 1004.51 107.222C1005.42 108.507 1005.87 109.98 1005.87 111.641H998.257C998.257 110.957 998.127 110.363 997.866 109.858C997.606 109.354 997.207 108.963 996.67 108.687C996.133 108.394 995.425 108.247 994.546 108.247C993.862 108.247 993.26 108.369 992.739 108.613C992.235 108.841 991.836 109.159 991.543 109.565C991.266 109.972 991.128 110.444 991.128 110.981C991.128 111.356 991.209 111.698 991.372 112.007C991.551 112.3 991.82 112.576 992.178 112.837C992.552 113.081 993.032 113.301 993.618 113.496C994.22 113.691 994.953 113.879 995.815 114.058C997.655 114.399 999.331 114.88 1000.84 115.498C1002.37 116.117 1003.6 116.971 1004.51 118.062C1005.43 119.152 1005.9 120.592 1005.9 122.383C1005.9 123.555 1005.63 124.629 1005.09 125.605C1004.57 126.582 1003.82 127.437 1002.82 128.169C1001.83 128.901 1000.64 129.471 999.258 129.878C997.874 130.285 996.312 130.488 994.57 130.488C992.08 130.488 989.972 130.041 988.247 129.146C986.522 128.25 985.22 127.127 984.341 125.776C983.478 124.409 983.047 123.009 983.047 121.577H990.2C990.233 122.456 990.452 123.172 990.859 123.726C991.283 124.279 991.828 124.686 992.495 124.946C993.162 125.19 993.911 125.312 994.741 125.312C995.571 125.312 996.263 125.199 996.816 124.971C997.37 124.743 997.793 124.434 998.086 124.043C998.379 123.636 998.525 123.172 998.525 122.651ZM1022.6 130.488C1020.5 130.488 1018.62 130.155 1016.96 129.487C1015.3 128.82 1013.89 127.9 1012.73 126.729C1011.6 125.54 1010.72 124.173 1010.12 122.627C1009.52 121.081 1009.22 119.429 1009.22 117.671V116.743C1009.22 114.774 1009.5 112.959 1010.05 111.299C1010.6 109.639 1011.41 108.198 1012.47 106.978C1013.54 105.741 1014.86 104.788 1016.42 104.121C1017.98 103.438 1019.77 103.096 1021.77 103.096C1023.64 103.096 1025.31 103.405 1026.77 104.023C1028.24 104.626 1029.47 105.496 1030.48 106.636C1031.49 107.759 1032.26 109.118 1032.78 110.713C1033.32 112.292 1033.58 114.066 1033.58 116.035V119.16H1012.29V114.253H1026.11V113.667C1026.11 112.739 1025.94 111.925 1025.6 111.226C1025.28 110.526 1024.79 109.989 1024.14 109.614C1023.5 109.224 1022.7 109.028 1021.72 109.028C1020.79 109.028 1020.02 109.224 1019.4 109.614C1018.78 110.005 1018.28 110.558 1017.91 111.274C1017.55 111.974 1017.29 112.796 1017.13 113.74C1016.97 114.668 1016.88 115.669 1016.88 116.743V117.671C1016.88 118.696 1017.02 119.632 1017.3 120.479C1017.58 121.325 1017.98 122.049 1018.52 122.651C1019.06 123.254 1019.71 123.726 1020.47 124.067C1021.24 124.409 1022.11 124.58 1023.09 124.58C1024.29 124.58 1025.44 124.352 1026.53 123.896C1027.62 123.424 1028.56 122.692 1029.36 121.699L1032.92 125.776C1032.39 126.558 1031.63 127.314 1030.65 128.047C1029.69 128.763 1028.54 129.349 1027.19 129.805C1025.84 130.26 1024.31 130.488 1022.6 130.488ZM1051.36 122.651C1051.36 122.163 1051.2 121.732 1050.89 121.357C1050.6 120.983 1050.06 120.641 1049.28 120.332C1048.52 120.023 1047.43 119.714 1046.04 119.404C1044.72 119.128 1043.49 118.77 1042.35 118.33C1041.21 117.874 1040.22 117.329 1039.37 116.694C1038.52 116.043 1037.86 115.278 1037.39 114.399C1036.92 113.504 1036.68 112.487 1036.68 111.348C1036.68 110.241 1036.92 109.191 1037.39 108.198C1037.88 107.205 1038.58 106.326 1039.49 105.562C1040.42 104.797 1041.54 104.194 1042.86 103.755C1044.2 103.315 1045.71 103.096 1047.4 103.096C1049.73 103.096 1051.74 103.462 1053.43 104.194C1055.13 104.91 1056.43 105.92 1057.34 107.222C1058.25 108.507 1058.71 109.98 1058.71 111.641H1051.09C1051.09 110.957 1050.96 110.363 1050.7 109.858C1050.44 109.354 1050.04 108.963 1049.5 108.687C1048.96 108.394 1048.26 108.247 1047.38 108.247C1046.69 108.247 1046.09 108.369 1045.57 108.613C1045.07 108.841 1044.67 109.159 1044.38 109.565C1044.1 109.972 1043.96 110.444 1043.96 110.981C1043.96 111.356 1044.04 111.698 1044.2 112.007C1044.38 112.3 1044.65 112.576 1045.01 112.837C1045.38 113.081 1045.86 113.301 1046.45 113.496C1047.05 113.691 1047.78 113.879 1048.65 114.058C1050.49 114.399 1052.16 114.88 1053.68 115.498C1055.21 116.117 1056.43 116.971 1057.34 118.062C1058.27 119.152 1058.73 120.592 1058.73 122.383C1058.73 123.555 1058.46 124.629 1057.92 125.605C1057.4 126.582 1056.65 127.437 1055.65 128.169C1054.66 128.901 1053.47 129.471 1052.09 129.878C1050.71 130.285 1049.14 130.488 1047.4 130.488C1044.91 130.488 1042.8 130.041 1041.08 129.146C1039.35 128.25 1038.05 127.127 1037.17 125.776C1036.31 124.409 1035.88 123.009 1035.88 121.577H1043.03C1043.06 122.456 1043.28 123.172 1043.69 123.726C1044.11 124.279 1044.66 124.686 1045.33 124.946C1045.99 125.19 1046.74 125.312 1047.57 125.312C1048.4 125.312 1049.1 125.199 1049.65 124.971C1050.2 124.743 1050.62 124.434 1050.92 124.043C1051.21 123.636 1051.36 123.172 1051.36 122.651Z" fill="#274C5B"/>
</svg>
