<svg width="1920" height="450" viewBox="0 0 1920 450" fill="none" xmlns="http://www.w3.org/2000/svg">
<mask id="mask0_2_13088" style="mask-type:alpha" maskUnits="userSpaceOnUse" x="0" y="0" width="1920" height="450">
<rect width="1920" height="450" fill="#E3F1E9"/>
</mask>
<g mask="url(#mask0_2_13088)">
<path d="M1367.72 140.308C1361.5 138.167 1353.79 134.353 1353.72 126.724C1353.68 121.547 1356.65 116.773 1358.07 111.916C1360.82 102.572 1357.27 92.3379 1351.3 85.0383C1345.18 77.537 1336.19 72.2412 1326.62 70.6482C1321.91 69.8584 1317.05 69.9946 1312.43 71.2224C1307.8 72.4507 1303.37 74.744 1299.28 77.2051C1290.17 82.7018 1282.07 90.0644 1275.54 98.4578C1269.12 106.707 1263.94 116.288 1262 126.649C1261.12 131.433 1260.92 136.439 1261.78 141.251C1262.81 147.035 1265.66 152.367 1269.39 156.853C1277.02 166.026 1288.43 172.156 1299.97 174.795C1311.49 177.407 1323.33 174.417 1331.68 165.928C1336.05 161.494 1338.96 156.045 1341.79 150.57C1343.22 147.799 1344.92 144.841 1348.07 143.82C1351.17 142.809 1354.35 143.798 1357.22 145.031C1359.69 146.109 1362.03 147.453 1364.5 148.512C1364.94 148.704 1365.36 148.569 1365.63 148.165C1366.82 146.314 1368.24 144.643 1368.98 142.533C1369.33 141.526 1367.71 141.154 1367.37 142.161C1366.69 144.1 1365.26 145.687 1364.16 147.394C1364.55 147.279 1364.91 147.164 1365.29 147.048C1360.69 145.081 1356.14 141.739 1350.94 141.755C1344.46 141.783 1341.79 146.933 1339.2 152.024C1336.43 157.441 1333.1 162.65 1328.47 166.679C1324.04 170.523 1318.55 173.047 1312.74 173.805C1300.84 175.369 1288.09 170.259 1278.65 163.249C1273.82 159.662 1269.54 155.231 1266.64 149.939C1263.93 144.988 1262.78 139.556 1262.9 133.923C1263.1 123.579 1267.27 113.626 1272.84 105.056C1278.68 96.0835 1286.34 88.1896 1295.04 81.9732C1302.82 76.4154 1311.82 71.5613 1321.63 71.8219C1331.41 72.0837 1340.93 76.6481 1347.74 83.573C1354.35 90.3071 1358.97 100.441 1356.82 110.01C1355.72 114.904 1353 119.323 1352.21 124.31C1351.37 129.75 1353.95 134.639 1358.4 137.739C1361.11 139.626 1364.2 140.862 1367.3 141.919C1368.36 142.28 1368.73 140.652 1367.72 140.308Z" fill="#D1D1D1"/>
<path d="M1361.99 140.885C1358.46 139.288 1354.78 137.986 1351.41 136.073C1349.76 135.148 1348.2 134.051 1346.86 132.703C1345.37 131.172 1344.37 129.287 1343.36 127.411C1340.22 121.469 1338.54 114.85 1335.01 109.108C1328.41 98.4077 1316.03 91.7635 1303.67 90.6067C1296.77 89.962 1289.8 91.0865 1283.58 94.1979C1282.62 94.6797 1283.5 96.0895 1284.45 95.6174C1295.69 90.0058 1309.36 91.4496 1320.13 97.4403C1325.86 100.631 1330.83 105.163 1334.12 110.865C1337.41 116.54 1339.05 122.981 1342.19 128.736C1344.13 132.283 1346.39 134.992 1349.88 137.118C1353.44 139.278 1357.42 140.646 1361.21 142.358C1362.18 142.796 1362.97 141.333 1361.99 140.885Z" fill="#D1D1D1"/>
<path d="M1343.16 136.082C1324.05 133.12 1303.67 132.811 1286.1 123.842C1281 121.242 1276.35 117.903 1272.37 113.801C1271.63 113.035 1270.5 114.246 1271.24 115.012C1285.62 129.796 1306.87 133.122 1326.43 135.553C1331.89 136.234 1337.36 136.849 1342.8 137.691C1343.84 137.864 1344.21 136.245 1343.16 136.082Z" fill="#D1D1D1"/>
<path d="M1333.64 125.813C1321.76 111.033 1302.47 103.369 1283.93 101.911C1282.87 101.823 1282.93 103.484 1283.99 103.563C1301.87 104.967 1320.76 112.409 1332.22 126.666C1332.88 127.5 1334.3 126.647 1333.64 125.813Z" fill="#D1D1D1"/>
<path d="M1317.35 122.178C1309.65 121.108 1302.45 117.757 1295.98 113.547C1295.09 112.964 1294.31 114.436 1295.2 115.019C1301.77 119.292 1309.14 122.713 1316.97 123.797C1318.02 123.942 1318.41 122.323 1317.35 122.178Z" fill="#D1D1D1"/>
<path d="M1337 142.847C1328.75 145.29 1320.26 147.29 1311.6 147.058C1302.34 146.799 1293.8 143.669 1285.63 139.494C1279.93 136.584 1274.12 133.104 1270.72 127.508C1270.17 126.586 1268.75 127.458 1269.3 128.38C1272.26 133.229 1276.94 136.604 1281.81 139.353C1286.34 141.896 1291.1 144.197 1296.03 145.872C1304.37 148.726 1313.13 149.349 1321.84 148.085C1327.15 147.305 1332.34 145.984 1337.47 144.458C1338.49 144.143 1338.02 142.551 1337 142.847Z" fill="#D1D1D1"/>
<path d="M1334.32 149.426C1328.34 156.101 1320.49 160.852 1311.64 162.46C1301.58 164.275 1291.37 161.959 1283.17 155.849C1278.22 152.154 1274.01 147.58 1269.53 143.353C1268.75 142.626 1267.61 143.828 1268.39 144.564C1276.73 152.427 1284.61 161.376 1296.35 163.83C1305.37 165.714 1314.8 164.548 1323.02 160.359C1327.77 157.933 1331.98 154.538 1335.54 150.571C1336.24 149.759 1335.03 148.623 1334.32 149.426Z" fill="#D1D1D1"/>
<path d="M1308.12 154.396C1302.23 154.556 1296.31 153.278 1291.64 149.527C1290.81 148.858 1289.67 150.069 1290.5 150.738C1295.52 154.779 1301.82 156.242 1308.16 156.058C1309.24 156.033 1309.19 154.362 1308.12 154.396Z" fill="#D1D1D1"/>
<path d="M1323.03 140.454C1315.86 140.354 1308.8 139.047 1301.84 137.399C1300.8 137.15 1300.42 138.769 1301.47 139.017C1308.56 140.699 1315.77 142.02 1323.07 142.116C1324.15 142.128 1324.1 140.476 1323.03 140.454Z" fill="#D1D1D1"/>
<path d="M1286.53 132.013C1282.85 130.326 1279.22 128.665 1276.49 125.576C1275.78 124.781 1274.64 125.992 1275.35 126.787C1278.18 129.986 1281.96 131.735 1285.77 133.484C1286.72 133.924 1287.51 132.461 1286.53 132.013Z" fill="#D1D1D1"/>
<path d="M1284.37 112.977C1280.92 111.527 1277.65 109.733 1274.19 108.292C1273.21 107.882 1272.43 109.354 1273.41 109.765C1276.86 111.215 1280.13 113.009 1283.58 114.449C1284.57 114.85 1285.36 113.397 1284.37 112.977Z" fill="#D1D1D1"/>
<path d="M1349.82 119.856C1347.92 112.022 1346.57 103.739 1341.52 97.1806C1336.21 90.2828 1328.32 85.2811 1319.9 83.2095C1315.01 82.0029 1309.93 81.7326 1304.91 82.1462C1303.84 82.2367 1303.89 83.889 1304.96 83.7985C1316.29 82.8641 1326.96 85.8978 1335.61 93.3752C1339.53 96.7649 1342.5 100.89 1344.34 105.746C1346.11 110.454 1347.03 115.452 1348.23 120.329C1348.48 121.374 1350.07 120.891 1349.82 119.856Z" fill="#D1D1D1"/>
<path d="M1350.3 97.7095C1348.14 93.8595 1345.99 89.9436 1343.06 86.5973C1340.08 83.1777 1336.32 80.7602 1331.98 79.423C1330.97 79.1077 1330.6 80.7265 1331.61 81.0419C1335.82 82.3457 1339.36 84.7795 1342.2 88.1378C1344.88 91.2945 1346.86 94.9905 1348.88 98.5817C1349.41 99.5141 1350.82 98.6515 1350.3 97.7095Z" fill="#D1D1D1"/>
<path d="M778.09 114.061C780.82 105.57 780.573 95.1012 777.542 86.7289C775.451 80.9662 770.666 73.4595 763.413 75.067C757.062 76.484 754.418 84.1141 754.518 89.8917C754.64 96.3812 756.507 103.252 759.872 108.829C761.528 111.577 763.766 114.275 766.741 115.686C769.864 117.173 773.158 116.874 776.238 115.432C777.914 114.65 776.397 112.221 774.737 112.986C763.693 118.131 758.298 99.9403 757.526 92.3381C757.032 87.4474 757.74 81.0773 762.595 78.4126C768.119 75.3704 772.839 82.3448 774.463 86.6651C777.573 94.9539 778.016 104.979 775.302 113.454C774.741 115.188 777.53 115.828 778.09 114.061Z" fill="#E1D4DB"/>
<path d="M775.902 113.484C772.402 107.718 770.785 101.05 768.98 94.6138C768.487 92.8321 765.728 93.6649 766.237 95.4299C768.113 102.09 769.851 108.998 773.471 114.971C774.411 116.544 776.874 115.057 775.902 113.484Z" fill="#E1D4DB"/>
<path d="M756.466 121.082C752.06 117.919 747.561 114.889 742.875 112.123C737.53 108.958 731.56 105.489 725.328 104.538C723.132 104.203 720.686 104.2 718.801 105.539C716.726 107.014 716.16 109.623 716.22 112.034C716.306 115.82 717.402 119.801 719.73 122.803C722.397 126.249 726.21 128.572 730.255 130.014C738.917 133.09 750.996 132.559 756.38 124.016C757.367 122.462 754.816 121.135 753.844 122.671C749.649 129.347 740.043 129.75 733.202 127.944C729.43 126.947 725.746 125.122 723.034 122.293C720.59 119.748 719.45 116.416 719.13 112.945C719.03 111.815 718.993 110.618 719.331 109.522C719.536 108.835 719.954 108.223 720.35 107.935C721.6 107.004 723.481 107.106 725.192 107.424C730.745 108.429 735.988 111.436 740.804 114.23C743.641 115.888 746.416 117.646 749.145 119.453C750.203 120.164 751.262 120.875 752.321 121.619C752.769 121.945 753.215 122.238 753.663 122.564C754.06 122.843 754.358 123.06 754.507 123.169C755.998 124.222 757.973 122.151 756.466 121.082Z" fill="#E1D4DB"/>
<path d="M754.256 122.4C748.087 121.349 742.235 119.091 736.285 117.305C734.52 116.778 733.879 119.568 735.644 120.094C741.594 121.88 747.445 124.139 753.615 125.189C755.422 125.504 756.079 122.698 754.256 122.4Z" fill="#E1D4DB"/>
<path d="M745.066 92.1037C743.895 84.6923 742.393 76.5304 737.542 70.5318C734.577 66.8695 730.17 63.1723 725.414 62.2875C723.379 61.9152 721.25 62.1774 719.675 63.6201C717.865 65.2809 717.395 67.8544 717.274 70.19C716.979 76.2879 720.844 81.7999 725.254 85.6265C730.081 89.8123 736.387 93.1252 742.862 93.5827C744.695 93.7024 744.59 90.8396 742.773 90.7356C738.051 90.4165 733.363 88.0885 729.554 85.3923C725.431 82.4633 721.578 78.3759 720.4 73.3128C719.653 70.1304 719.992 64.4197 724.497 65.0372C728.432 65.5595 732.125 68.7127 734.692 71.5618C739.608 77.0564 741.092 85.1379 742.203 92.1788C742.486 93.9833 745.35 93.9082 745.066 92.1037Z" fill="#E1D4DB"/>
<path d="M743.346 89.9239C739.442 86.2592 735.964 82.2085 732.06 78.5438C730.725 77.291 728.75 79.3618 730.101 80.6304C734.005 84.2951 737.484 88.3458 741.387 92.0104C742.739 93.279 744.697 91.1925 743.346 89.9239Z" fill="#E1D4DB"/>
<path d="M927.372 400.265C953.853 411.94 991.435 415.314 1014.52 394.657C1015.15 394.097 1015.05 393.112 1014.53 392.505C1008.93 386.079 1000.17 382.648 992.352 379.785C983.008 376.351 973.821 374.101 963.81 374.009C954.581 373.92 946.414 375.733 938.179 379.944C934.051 382.044 930.109 384.502 926.238 387.031C924.517 388.166 922.784 389.323 921.072 390.492C919.87 391.311 918.241 391.996 917.501 393.278C917.064 394.034 917.383 394.89 918.052 395.333C920.977 397.358 924.287 398.568 927.372 400.265C929.078 401.195 930.616 398.58 928.888 397.639C925.803 395.942 922.493 394.731 919.578 392.739C919.764 393.436 919.951 394.132 920.129 394.795C920.627 393.933 923.064 392.819 924.027 392.171C925.637 391.082 927.267 390.007 928.886 388.952C932.382 386.683 935.95 384.485 939.674 382.6C947.616 378.556 955.445 376.94 964.345 377.064C973.637 377.189 982.113 379.309 990.79 382.441C998.339 385.147 1006.95 388.438 1012.37 394.647C1012.37 393.918 1012.38 393.223 1012.38 392.494C1001.25 402.435 986.177 406.115 971.57 406.311C957.017 406.51 942.209 403.508 928.867 397.627C927.118 396.869 925.581 399.483 927.372 400.265Z" fill="#DDD9DA"/>
<path d="M922.663 395.165C938.271 392.605 954.118 391.864 969.916 392.131C976.717 392.248 983.484 392.036 990.286 391.957C997.393 391.885 1004.74 392.034 1011.48 394.582C1013.3 395.268 1014.07 392.325 1012.25 391.639C1005.75 389.203 998.649 388.884 991.796 388.905C984.497 388.922 977.236 389.213 969.935 389.088C953.854 388.826 937.796 389.641 921.913 392.239C919.958 392.567 920.762 395.496 922.663 395.165Z" fill="#DDD9DA"/>
<path d="M1003.13 394.775C986.833 398.229 970.269 402.057 953.498 400.416C951.563 400.223 951.577 403.258 953.512 403.45C970.521 405.117 987.372 401.229 1003.9 397.713C1005.81 397.307 1005.03 394.389 1003.13 394.775Z" fill="#DDD9DA"/>
<path d="M979.014 382.927C969.453 381.862 960.068 383.112 950.628 384.554C948.697 384.84 949.501 387.77 951.411 387.472C960.631 386.07 969.738 384.912 979.041 385.941C980.973 386.188 980.937 383.141 979.014 382.927Z" fill="#DDD9DA"/>
<path d="M949.054 395.973C944.97 395.52 940.936 394.592 936.808 394.506C935.984 394.479 935.297 395.231 935.303 396.047C935.296 396.883 936.007 397.546 936.844 397.553C940.972 397.639 945.006 398.567 949.09 399.019C949.911 399.102 950.604 398.241 950.596 397.479C950.572 396.597 949.864 396.076 949.054 395.973Z" fill="#DDD9DA"/>
<path d="M900.689 372.672C929.689 371.147 964.546 357.147 975.886 328.279C976.218 327.462 975.48 326.7 974.801 326.42C966.784 323.164 957.199 324.13 948.851 325.138C939.626 326.257 931.04 328.164 922.589 332.166C914.106 336.178 907.348 341.326 901.689 348.846C898.782 352.715 896.251 356.857 893.824 361.06C892.745 362.93 891.674 364.833 890.615 366.716C889.872 368.052 888.725 369.407 888.643 370.957C888.608 371.552 889.137 372.335 889.784 372.428C893.428 372.963 897.031 372.549 900.689 372.672C902.643 372.735 902.629 369.701 900.675 369.638C897.3 369.511 893.902 369.958 890.546 369.506C890.93 370.007 891.304 370.476 891.687 370.977C891.746 370.002 893.547 367.708 894.141 366.678C895.139 364.901 896.137 363.124 897.177 361.371C899.382 357.6 901.692 353.891 904.326 350.397C909.737 343.21 916.43 338.416 924.53 334.632C932.619 330.868 940.9 329.149 949.706 328.125C957.58 327.208 966.518 326.345 974.036 329.396C973.671 328.765 973.315 328.168 972.95 327.537C967.487 341.418 955.63 351.467 942.675 358.22C929.766 364.944 915.206 368.894 900.696 369.65C898.732 369.749 898.747 372.783 900.689 372.672Z" fill="#DDD9DA"/>
<path d="M893.852 370.433C907.02 360.833 921.202 352.827 935.872 345.775C941.918 342.877 947.758 339.609 953.705 336.543C959.686 333.467 966.022 330.457 972.776 329.734C974.692 329.523 974.698 326.501 972.761 326.699C959.495 328.118 948.135 336.576 936.38 342.174C921.012 349.467 906.105 357.756 892.345 367.799C890.787 368.944 892.293 371.579 893.852 370.433Z" fill="#DDD9DA"/>
<path d="M965.677 333.676C952.813 344.012 939.841 354.875 924.297 360.918C922.493 361.614 923.264 364.552 925.08 363.835C941.158 357.596 954.501 346.528 967.821 335.839C969.341 334.615 967.185 332.473 965.677 333.676Z" fill="#DDD9DA"/>
<path d="M939.164 333.807C930.132 337.166 922.323 342.436 914.52 347.989C912.94 349.122 914.447 351.757 916.026 350.624C923.591 345.241 931.18 340.012 939.947 336.725C941.771 336.041 940.989 333.123 939.164 333.807Z" fill="#DDD9DA"/>
<path d="M918.313 358.948C914.341 360.437 910.212 361.472 906.371 363.317C905.665 363.665 905.396 364.715 905.79 365.391C906.257 366.137 907.105 366.318 907.866 365.973C908.807 365.507 909.543 365.204 910.445 364.856C911.413 364.49 912.39 364.158 913.367 363.825C915.275 363.19 917.181 362.609 919.072 361.908C919.816 361.637 920.416 360.891 920.139 360.059C919.956 359.308 919.124 358.66 918.313 358.948Z" fill="#DDD9DA"/>
<path d="M1438.95 358.286C1444.7 350.136 1449.88 340.414 1450.29 330.268C1450.68 320.644 1445.54 312.667 1437.01 308.311C1429.24 304.345 1420.09 303.076 1411.44 302.748C1401.77 302.382 1391.77 303.245 1382.46 306.065C1375.87 308.074 1368.85 311.156 1365.75 317.724C1363.04 323.457 1364.13 330.046 1366.17 335.772C1368.65 342.755 1372.68 349.157 1377.04 355.107C1381.11 360.701 1385.6 366.436 1390.81 371.023C1397.5 376.928 1406.18 380.123 1415.05 377.554C1425.28 374.594 1432.08 366.39 1439.04 358.894C1439.97 357.885 1438.56 356.261 1437.61 357.277C1431.71 363.65 1426.08 370.593 1417.93 374.221C1410.91 377.357 1403.34 376.829 1396.82 372.825C1390.9 369.163 1386.33 363.466 1382.03 358.077C1377.85 352.821 1373.96 347.251 1370.92 341.248C1368.16 335.817 1365.74 329.549 1366.4 323.326C1367.1 316.895 1371.68 312.712 1377.38 310.183C1385.26 306.669 1394.18 305.337 1402.7 304.926C1411.53 304.501 1420.65 305.055 1429.13 307.55C1438.56 310.32 1447.05 316.475 1448.05 326.893C1449.08 337.672 1443.17 348.534 1437.15 357.082C1436.35 358.238 1438.14 359.426 1438.95 358.286Z" fill="#D3CBCF"/>
<path d="M1439.05 358.909C1440.78 356.937 1442.9 355.122 1445.54 354.617C1447.73 354.201 1449.94 354.785 1451.9 355.736C1456.49 357.966 1460.19 361.797 1464.1 364.992C1466.12 366.658 1468.23 368.264 1470.68 369.303C1470.83 368.62 1470.97 367.921 1471.11 367.223C1460.35 365.404 1446.47 367.417 1439.56 357.114C1438.79 355.978 1437.17 357.397 1437.92 358.54C1445.23 369.416 1459.61 367.445 1470.95 369.367C1472.23 369.583 1472.44 367.724 1471.39 367.278C1466.7 365.271 1463 361.132 1459.11 357.992C1455.34 354.96 1450.69 351.707 1445.56 352.433C1442.35 352.888 1439.69 354.946 1437.61 357.3C1436.7 358.332 1438.11 359.956 1439.05 358.909Z" fill="#D3CBCF"/>
<path d="M1438.33 360.043C1443.78 365.862 1448.08 373.656 1446.44 381.865C1447 381.592 1447.56 381.319 1448.12 381.046C1444.46 378.876 1441.92 375.076 1440.26 371.243C1438.61 367.41 1437.57 362.798 1438.95 358.709C1439.38 357.389 1437.35 356.699 1436.92 358.019C1435.39 362.56 1436.4 367.588 1438.19 371.89C1439.98 376.154 1442.86 380.441 1446.93 382.829C1447.68 383.265 1448.45 382.816 1448.61 382.01C1450.36 373.272 1445.77 364.799 1439.98 358.608C1439.01 357.61 1437.37 359.037 1438.33 360.043Z" fill="#D3CBCF"/>
<path d="M1439.07 358.04C1443.83 345.94 1458.32 340.925 1469.81 346.454C1469.69 345.846 1469.56 345.237 1469.46 344.637C1467.31 346.698 1465.38 348.977 1463.22 351.023C1461.18 352.97 1458.83 355.014 1455.93 355.341C1454.54 355.5 1454.94 357.594 1456.32 357.458C1462.51 356.769 1466.77 350.209 1470.9 346.246C1471.53 345.635 1471.29 344.78 1470.56 344.429C1457.96 338.385 1442.23 344.26 1437.06 357.358C1436.53 358.646 1438.56 359.336 1439.07 358.04Z" fill="#D3CBCF"/>
<path d="M1442.94 326.481C1441.45 325.333 1439.59 325.021 1437.79 324.655C1437.54 324.607 1437.19 324.758 1437 324.926C1436.81 325.094 1436.65 325.385 1436.64 325.654C1436.63 325.946 1436.7 326.239 1436.91 326.44C1437.12 326.665 1437.35 326.743 1437.64 326.791C1437.58 326.783 1437.34 326.728 1437.64 326.791C1437.7 326.8 1437.77 326.823 1437.83 326.831C1437.94 326.855 1438.06 326.871 1438.17 326.895C1438.39 326.943 1438.62 326.983 1438.84 327.046C1439.23 327.141 1439.63 327.235 1440.01 327.353C1440.19 327.401 1440.36 327.471 1440.53 327.541C1440.6 327.58 1440.7 327.612 1440.77 327.651C1440.82 327.666 1440.87 327.682 1440.9 327.705C1441.07 327.791 1440.64 327.581 1440.82 327.666C1441.16 327.846 1441.46 328.04 1441.76 328.257C1442.2 328.598 1442.98 328.427 1443.27 327.944C1443.56 327.439 1443.42 326.838 1442.94 326.481Z" fill="#D3CBCF"/>
<path d="M1433.07 344.96C1432.05 344.753 1431.07 344.369 1430.13 343.932C1430.07 343.901 1430.03 343.886 1429.97 343.854C1430.1 343.925 1430.05 343.893 1429.95 343.847C1429.83 343.792 1429.72 343.73 1429.6 343.675C1429.37 343.558 1429.13 343.426 1428.92 343.301C1428.44 343.037 1427.96 342.757 1427.47 342.477C1426.99 342.197 1426.29 342.253 1425.97 342.789C1425.68 343.256 1425.74 343.972 1426.27 344.283C1428.2 345.388 1430.17 346.547 1432.37 347C1432.67 347.064 1432.91 347.081 1433.19 346.944C1433.43 346.83 1433.67 346.578 1433.74 346.333C1433.88 345.826 1433.65 345.079 1433.07 344.96Z" fill="#D3CBCF"/>
<path d="M1417.13 365.104C1416.91 365.095 1416.7 365.086 1416.48 365.077C1416.38 365.069 1416.28 365.06 1416.17 365.036C1416.11 365.028 1416.07 365.013 1416 365.005C1415.96 365.004 1415.79 364.957 1415.98 364.997C1416.17 365.036 1416 364.989 1415.96 364.989C1415.9 364.981 1415.85 364.965 1415.79 364.957C1415.68 364.933 1415.56 364.894 1415.46 364.87C1415.26 364.815 1415.06 364.737 1414.87 364.659C1414.77 364.612 1414.68 364.58 1414.58 364.534C1414.43 364.456 1414.58 364.534 1414.65 364.557C1414.6 364.526 1414.55 364.51 1414.5 364.479C1414.31 364.378 1414.12 364.261 1413.93 364.145C1413.74 364.028 1413.55 363.888 1413.38 363.764C1413.28 363.679 1413.19 363.609 1413.09 363.524C1413.02 363.462 1412.91 363.323 1413.09 363.539C1413.05 363.485 1412.99 363.454 1412.95 363.4C1412.74 363.199 1412.51 363.059 1412.22 363.049C1411.96 363.024 1411.62 363.13 1411.43 363.32C1411.05 363.695 1410.89 364.424 1411.32 364.842C1412.15 365.601 1413.06 366.23 1414.1 366.675C1415 367.058 1415.98 367.249 1416.95 367.256C1417.51 367.268 1418.09 366.872 1418.12 366.264C1418.13 365.703 1417.73 365.116 1417.13 365.104Z" fill="#D3CBCF"/>
<path d="M1425.83 330.371C1424.14 329.668 1422.39 328.956 1420.51 328.936C1419.94 328.924 1419.37 329.32 1419.34 329.928C1419.31 330.473 1419.72 331.076 1420.32 331.088C1420.76 331.083 1421.2 331.14 1421.64 331.212C1421.67 331.212 1421.72 331.228 1421.77 331.243C1421.48 331.211 1421.66 331.22 1421.72 331.228C1421.83 331.252 1421.94 331.275 1422.04 331.299C1422.26 331.347 1422.47 331.417 1422.67 331.473C1423.51 331.732 1424.31 332.068 1425.11 332.404C1425.62 332.63 1426.33 332.266 1426.47 331.737C1426.67 331.146 1426.39 330.613 1425.83 330.371Z" fill="#D3CBCF"/>
<path d="M1414.85 346.928C1413.25 346.602 1411.72 345.915 1410.22 345.274C1409.69 345.055 1408.99 345.412 1408.85 345.942C1408.67 346.525 1408.96 347.073 1409.51 347.299C1411.01 347.925 1412.54 348.612 1414.15 348.953C1414.45 349.017 1414.69 349.034 1414.97 348.897C1415.2 348.783 1415.44 348.531 1415.52 348.286C1415.6 348.017 1415.6 347.71 1415.47 347.47C1415.35 347.239 1415.13 346.984 1414.85 346.928Z" fill="#D3CBCF"/>
<path d="M1418.2 316.064C1415.36 315.484 1412.59 314.581 1409.74 314C1409.19 313.889 1408.54 314.069 1408.37 314.668C1408.21 315.166 1408.44 315.914 1409.04 316.025C1411.88 316.606 1414.65 317.509 1417.49 318.089C1418.05 318.201 1418.69 318.021 1418.86 317.422C1419.01 316.931 1418.78 316.184 1418.2 316.064Z" fill="#D3CBCF"/>
<path d="M1406.95 332.566C1405.46 332.279 1403.93 332.299 1402.44 332.012C1402.19 331.964 1401.84 332.116 1401.65 332.284C1401.46 332.452 1401.3 332.743 1401.29 333.012C1401.28 333.304 1401.35 333.596 1401.56 333.798C1401.77 334.022 1402 334.101 1402.29 334.149C1403.78 334.436 1405.31 334.415 1406.8 334.702C1407.05 334.75 1407.4 334.599 1407.59 334.431C1407.78 334.263 1407.94 333.972 1407.95 333.703C1407.96 333.411 1407.89 333.118 1407.68 332.917C1407.46 332.7 1407.24 332.614 1406.95 332.566Z" fill="#D3CBCF"/>
<path d="M1398.48 355.006C1396.58 353.909 1394.58 352.973 1392.77 351.715C1392.31 351.389 1391.57 351.537 1391.27 352.027C1390.96 352.541 1391.06 353.179 1391.57 353.521C1393.4 354.771 1395.38 355.715 1397.28 356.812C1397.76 357.092 1398.47 357.035 1398.78 356.499C1399.05 356.025 1398.99 355.309 1398.48 355.006Z" fill="#D3CBCF"/>
<path d="M1398.03 322.248C1396.09 321.858 1394.25 321.131 1392.3 320.725C1392 320.662 1391.76 320.645 1391.48 320.781C1391.25 320.895 1391.01 321.147 1390.93 321.393C1390.77 321.891 1391 322.639 1391.6 322.75C1393.54 323.14 1395.38 323.868 1397.33 324.273C1397.63 324.337 1397.87 324.354 1398.15 324.217C1398.38 324.103 1398.62 323.851 1398.69 323.606C1398.84 323.115 1398.61 322.367 1398.03 322.248Z" fill="#D3CBCF"/>
<path d="M1391.69 340.443C1389.85 339.662 1388 338.919 1386.11 338.237C1385.58 338.057 1384.89 338.352 1384.74 338.904C1384.57 339.465 1384.84 340.058 1385.4 340.262C1387.29 340.928 1389.14 341.687 1390.98 342.468C1391.51 342.687 1392.2 342.33 1392.35 341.801C1392.53 341.218 1392.24 340.67 1391.69 340.443Z" fill="#D3CBCF"/>
<path d="M1380.23 323.935C1378.59 323.247 1376.97 322.567 1375.34 321.872C1374.81 321.653 1374.12 322.01 1373.97 322.539C1373.79 323.122 1374.08 323.67 1374.63 323.897C1376.26 324.592 1377.9 325.265 1379.53 325.96C1380.06 326.179 1380.75 325.822 1380.9 325.293C1381.08 324.725 1380.8 324.177 1380.23 323.935Z" fill="#D3CBCF"/>
<path d="M1386.1 313.441C1385.66 313.445 1385.22 313.389 1384.78 313.316C1384.74 313.316 1384.7 313.3 1384.65 313.285C1384.94 313.317 1384.76 313.308 1384.7 313.3C1384.59 313.277 1384.48 313.253 1384.38 313.229C1384.16 313.181 1383.95 313.111 1383.75 313.056C1382.91 312.796 1382.11 312.46 1381.31 312.124C1380.78 311.905 1380.09 312.262 1379.95 312.791C1379.77 313.375 1380.05 313.922 1380.61 314.149C1382.3 314.853 1384.05 315.564 1385.93 315.585C1386.49 315.596 1387.07 315.2 1387.1 314.593C1387.1 314.039 1386.69 313.437 1386.1 313.441Z" fill="#D3CBCF"/>
<path d="M1379.38 339.721C1378.8 339.602 1378.23 339.421 1377.7 339.149C1377.77 339.188 1377.86 339.219 1377.95 339.273C1377.29 338.946 1376.68 338.519 1376.1 338.054C1375.91 337.899 1375.56 337.842 1375.31 337.887C1375.05 337.939 1374.75 338.121 1374.61 338.343C1374.47 338.581 1374.38 338.857 1374.43 339.134C1374.5 339.427 1374.66 339.635 1374.89 339.829C1376.01 340.713 1377.26 341.445 1378.67 341.731C1378.97 341.794 1379.21 341.811 1379.49 341.675C1379.72 341.561 1379.96 341.309 1380.03 341.064C1380.12 340.795 1380.12 340.487 1379.98 340.248C1379.88 340.032 1379.66 339.777 1379.38 339.721Z" fill="#D3CBCF"/>
<path d="M1404.77 369.334C1402.93 368.553 1401.17 367.557 1399.19 367.128C1398.89 367.065 1398.65 367.048 1398.37 367.184C1398.14 367.298 1397.89 367.55 1397.82 367.795C1397.66 368.294 1397.89 369.042 1398.48 369.153C1400.47 369.559 1402.22 370.578 1404.06 371.359C1404.58 371.586 1405.29 371.221 1405.43 370.692C1405.63 370.101 1405.33 369.576 1404.77 369.334Z" fill="#D3CBCF"/>
<path d="M1432.82 313.787C1431.53 313.041 1430.1 312.462 1428.62 312.152C1428.32 312.089 1428.08 312.072 1427.8 312.208C1427.56 312.322 1427.32 312.574 1427.25 312.819C1427.17 313.088 1427.16 313.395 1427.3 313.635C1427.43 313.859 1427.65 314.114 1427.91 314.177C1429.07 314.416 1430.17 314.831 1431.22 315.353C1431.14 315.314 1431.05 315.282 1430.96 315.228C1431.19 315.33 1431.39 315.439 1431.61 315.563C1431.85 315.711 1432.12 315.774 1432.4 315.73C1432.67 315.678 1432.96 315.495 1433.1 315.273C1433.4 314.806 1433.34 314.091 1432.82 313.787Z" fill="#D3CBCF"/>
<path d="M1439.89 358.438C1443.23 359.506 1446.61 360.513 1449.83 361.881C1450.36 362.1 1451.03 361.735 1451.2 361.213C1451.4 360.638 1451.07 360.075 1450.54 359.856C1447.3 358.496 1443.94 357.497 1440.59 356.421C1440.04 356.248 1439.41 356.536 1439.22 357.088C1439.04 357.633 1439.33 358.273 1439.89 358.438Z" fill="#D3CBCF"/>
</g>
</svg>
