<svg width="1920" height="298" viewBox="0 0 1920 298" fill="none" xmlns="http://www.w3.org/2000/svg">
<rect x="9.15527e-05" width="1920" height="298" fill="#FAFAFA"/>
<mask id="mask0_10_55" style="mask-type:alpha" maskUnits="userSpaceOnUse" x="0" y="2" width="1920" height="296">
<rect y="2" width="1920" height="296" fill="#E3F1E9"/>
</mask>
<g mask="url(#mask0_10_55)">
<path d="M717.647 116.194C709.45 112.078 698.774 110.674 689.788 112.43C683.601 113.644 675.217 117.32 675.705 124.943C676.14 131.621 683.476 135.513 689.362 136.325C695.975 137.227 703.252 136.416 709.45 133.879C712.505 132.63 715.6 130.782 717.504 127.982C719.509 125.044 719.725 121.65 718.747 118.292C718.217 116.466 715.509 117.623 716.024 119.431C719.506 131.466 700.17 134.073 692.323 133.656C687.276 133.384 680.915 131.658 678.975 126.304C676.757 120.21 684.589 116.517 689.236 115.549C698.15 113.699 708.407 114.833 716.589 118.931C718.262 119.775 719.353 117.042 717.647 116.194Z" fill="#DDDDDD"/>
<path d="M716.714 118.324C710.302 120.969 703.27 121.558 696.446 122.374C694.557 122.594 694.967 125.529 696.841 125.291C703.905 124.437 711.199 123.763 717.84 121.029C719.587 120.322 718.465 117.584 716.714 118.324Z" fill="#DDDDDD"/>
<path d="M721.362 139.273C717.451 143.25 713.661 147.343 710.11 151.666C706.049 156.598 701.58 162.116 699.629 168.297C698.942 170.476 698.552 172.96 699.615 175.087C700.786 177.429 703.347 178.417 705.806 178.737C709.667 179.248 713.885 178.764 717.304 176.872C721.226 174.708 724.19 171.2 726.294 167.318C730.789 159.003 732.159 146.645 724.329 139.824C722.906 138.575 721.154 140.958 722.562 142.188C728.682 147.507 727.574 157.331 724.657 163.997C723.048 167.672 720.611 171.127 717.308 173.435C714.335 175.516 710.77 176.148 707.192 175.924C706.028 175.847 704.805 175.696 703.746 175.179C703.08 174.862 702.524 174.34 702.294 173.893C701.546 172.475 701.947 170.58 702.541 168.892C704.44 163.409 708.323 158.556 711.923 154.104C714.057 151.484 716.281 148.941 718.549 146.455C719.439 145.492 720.329 144.528 721.252 143.569C721.654 143.166 722.022 142.759 722.424 142.356C722.77 141.996 723.038 141.727 723.172 141.593C724.478 140.245 722.686 137.911 721.362 139.273Z" fill="#DDDDDD"/>
<path d="M722.352 141.729C720.31 147.833 717.09 153.421 714.335 159.185C713.52 160.895 716.253 161.988 717.068 160.277C719.823 154.514 723.043 148.925 725.085 142.822C725.69 141.035 722.943 139.924 722.352 141.729Z" fill="#DDDDDD"/>
<path d="M690.116 146.276C682.4 146.295 673.869 146.531 667.007 150.513C662.817 152.946 658.364 156.839 656.713 161.532C656.013 163.542 655.943 165.747 657.16 167.574C658.561 169.676 661.102 170.56 663.456 171.053C669.606 172.316 675.817 169.261 680.403 165.384C685.419 161.141 689.782 155.257 691.27 148.75C691.681 146.906 688.756 146.561 688.363 148.391C687.292 153.138 684.186 157.534 680.844 160.977C677.216 164.705 672.454 167.973 667.123 168.37C663.771 168.626 658.022 167.379 659.362 162.899C660.514 158.984 664.302 155.729 667.603 153.571C673.963 149.444 682.409 149.214 689.739 149.198C691.618 149.196 691.994 146.274 690.116 146.276Z" fill="#DDDDDD"/>
<path d="M687.628 147.683C683.287 151.071 678.621 153.965 674.28 157.353C672.796 158.511 674.588 160.845 676.091 159.673C680.432 156.285 685.098 153.391 689.438 150.003C690.941 148.831 689.13 146.511 687.628 147.683Z" fill="#DDDDDD"/>
<path d="M1176.93 157.742C1188.56 175.588 1211.81 192.267 1237.71 187.615C1238.42 187.492 1238.85 186.806 1238.82 186.208C1238.38 179.842 1234.32 174.223 1230.58 169.335C1226.13 163.487 1221.17 158.476 1214.57 154.562C1208.48 150.951 1202.13 148.995 1194.5 148.585C1190.68 148.372 1186.81 148.465 1182.94 148.632C1181.22 148.714 1179.47 148.805 1177.74 148.912C1176.52 148.986 1175.09 148.807 1173.94 149.363C1173.26 149.69 1173.04 150.374 1173.26 150.922C1174.16 153.375 1175.75 155.442 1176.93 157.742C1177.59 159.008 1179.95 157.887 1179.28 156.605C1178.1 154.305 1176.51 152.237 1175.6 149.81C1175.36 150.338 1175.13 150.866 1174.91 151.369C1175.68 150.996 1177.87 151.204 1178.84 151.15C1180.47 151.056 1182.1 150.979 1183.72 150.91C1187.2 150.77 1190.7 150.703 1194.13 150.901C1201.48 151.308 1207.51 153.263 1213.36 156.77C1219.47 160.429 1224.02 165.081 1228.19 170.474C1231.82 175.154 1235.86 180.627 1236.29 186.78C1236.66 186.303 1237.02 185.85 1237.39 185.373C1224.92 187.606 1213.02 184.214 1203.21 178.719C1193.44 173.247 1185.13 165.579 1179.27 156.589C1178.5 155.419 1176.14 156.54 1176.93 157.742Z" fill="#DDDDDD"/>
<path d="M1176.41 152.587C1188.09 156.917 1199 162.533 1209.36 168.789C1213.82 171.484 1218.43 173.95 1222.99 176.517C1227.75 179.205 1232.55 182.13 1235.73 186.396C1236.59 187.545 1238.61 185.915 1237.75 184.765C1234.68 180.666 1230.12 177.722 1225.55 175.098C1220.69 172.299 1215.72 169.695 1210.93 166.802C1200.38 160.439 1189.29 154.792 1177.4 150.38C1175.94 149.843 1174.97 152.072 1176.41 152.587Z" fill="#DDDDDD"/>
<path d="M1230.08 183.305C1217.49 179.296 1204.52 175.429 1194.22 167.897C1193.03 167.026 1191.49 169.02 1192.67 169.891C1203.13 177.531 1216.31 181.47 1229.09 185.527C1230.57 185.999 1231.55 183.785 1230.08 183.305Z" fill="#DDDDDD"/>
<path d="M1220.11 166.259C1214.3 161.88 1207.43 159.086 1200.42 156.398C1198.99 155.842 1198.02 158.071 1199.45 158.611C1206.29 161.242 1212.93 163.989 1218.59 168.244C1219.75 169.15 1221.28 167.14 1220.11 166.259Z" fill="#DDDDDD"/>
<path d="M1193.53 163.276C1191.05 161.407 1188.84 159.245 1186.14 157.6C1185.61 157.264 1184.77 157.493 1184.35 158.03C1183.92 158.576 1184.06 159.284 1184.61 159.61C1187.31 161.256 1189.51 163.417 1192 165.286C1192.5 165.656 1193.4 165.359 1193.78 164.856C1194.22 164.269 1194.02 163.655 1193.53 163.276Z" fill="#DDDDDD"/>
<path d="M1173.3 129.387C1193.35 139.552 1223.67 143.795 1245.97 129.242C1246.61 128.834 1246.51 128.05 1246.2 127.605C1242.54 122.385 1235.67 119.329 1229.61 116.776C1222.91 113.957 1216.22 111.902 1208.56 111.272C1200.87 110.635 1193.75 111.408 1186.14 114.157C1182.23 115.574 1178.43 117.314 1174.67 119.134C1173 119.944 1171.31 120.78 1169.65 121.606C1168.47 122.195 1167.02 122.642 1166.17 123.626C1165.84 124.003 1165.79 124.719 1166.18 125.029C1168.32 126.783 1170.93 127.899 1173.3 129.387C1174.56 130.181 1176.11 128.187 1174.84 127.393C1172.66 126.011 1170.18 124.996 1168.18 123.408C1168.17 123.884 1168.18 124.335 1168.18 124.811C1168.72 124.195 1171.09 123.384 1172.01 122.938C1173.58 122.158 1175.15 121.377 1176.74 120.629C1180.14 119.007 1183.57 117.465 1187.1 116.189C1194.37 113.562 1201.27 112.997 1208.59 113.635C1215.89 114.282 1222.27 116.344 1228.65 119.062C1234.35 121.493 1240.73 124.367 1244.17 129.261C1244.25 128.707 1244.32 128.179 1244.4 127.625C1233.67 134.619 1220.65 136.64 1208.59 136.079C1196.57 135.516 1184.88 132.5 1174.85 127.409C1173.49 126.718 1171.95 128.712 1173.3 129.387Z" fill="#DDDDDD"/>
<path d="M1169.9 125.289C1183.56 124.067 1197.08 124.28 1210.43 125.305C1215.93 125.733 1221.48 125.84 1227 126.12C1232.55 126.407 1238.3 126.873 1243.16 128.998C1244.54 129.598 1246.09 127.62 1244.7 127.004C1235.16 122.827 1223.28 123.997 1212.61 123.141C1198.67 122.004 1184.52 121.698 1170.25 122.982C1168.62 123.133 1168.28 125.44 1169.9 125.289Z" fill="#DDDDDD"/>
<path d="M1236.43 128.849C1222.59 130.671 1208.42 132.796 1195 130.773C1193.45 130.534 1192.46 132.757 1194.03 132.986C1207.9 135.086 1222.43 132.969 1236.75 131.092C1238.38 130.875 1238.04 128.641 1236.43 128.849Z" fill="#DDDDDD"/>
<path d="M1218.74 118.728C1211.02 117.452 1203.14 117.899 1195.11 118.534C1193.48 118.669 1193.14 120.976 1194.77 120.841C1202.55 120.226 1210.26 119.721 1217.77 120.941C1219.33 121.195 1220.3 118.982 1218.74 118.728Z" fill="#DDDDDD"/>
<path d="M1192.02 127.177C1188.62 126.624 1185.35 125.712 1181.85 125.442C1181.21 125.399 1180.49 125.983 1180.41 126.578C1180.34 127.247 1180.81 127.692 1181.49 127.758C1182.35 127.816 1183 127.9 1183.78 128.019C1184.61 128.152 1185.42 128.311 1186.24 128.469C1187.84 128.787 1189.4 129.14 1191.02 129.408C1191.65 129.518 1192.43 129.259 1192.67 128.607C1192.93 128.045 1192.71 127.3 1192.02 127.177Z" fill="#DDDDDD"/>
</g>
<path d="M863.364 156.086H871.274C871.144 158.527 870.477 160.684 869.272 162.556C868.084 164.411 866.432 165.868 864.316 166.926C862.201 167.967 859.686 168.488 856.772 168.488C854.445 168.488 852.362 168.09 850.522 167.292C848.683 166.494 847.121 165.355 845.835 163.874C844.565 162.377 843.589 160.578 842.905 158.479C842.238 156.363 841.904 153.978 841.904 151.325V149.152C841.904 146.499 842.254 144.115 842.954 141.999C843.654 139.883 844.655 138.076 845.957 136.579C847.259 135.082 848.822 133.934 850.645 133.137C852.467 132.339 854.502 131.94 856.748 131.94C859.775 131.94 862.331 132.486 864.414 133.576C866.497 134.667 868.109 136.164 869.248 138.068C870.404 139.973 871.095 142.146 871.323 144.587H863.389C863.324 143.203 863.063 142.04 862.607 141.096C862.152 140.135 861.452 139.411 860.508 138.923C859.564 138.435 858.311 138.19 856.748 138.19C855.609 138.19 854.608 138.402 853.745 138.825C852.899 139.248 852.191 139.908 851.621 140.803C851.068 141.698 850.653 142.837 850.376 144.221C850.099 145.588 849.961 147.215 849.961 149.104V151.325C849.961 153.197 850.083 154.816 850.327 156.184C850.571 157.551 850.962 158.682 851.499 159.577C852.052 160.472 852.76 161.14 853.623 161.579C854.486 162.019 855.535 162.238 856.772 162.238C858.188 162.238 859.368 162.019 860.312 161.579C861.257 161.123 861.981 160.44 862.485 159.528C862.99 158.617 863.283 157.469 863.364 156.086ZM882.749 130.5V168H875.132V130.5H882.749ZM881.748 153.864L879.844 153.913C879.844 152.058 880.072 150.357 880.527 148.811C880.999 147.248 881.667 145.889 882.529 144.733C883.392 143.578 884.425 142.683 885.63 142.048C886.851 141.413 888.193 141.096 889.658 141.096C890.96 141.096 892.148 141.283 893.223 141.657C894.297 142.032 895.225 142.626 896.006 143.439C896.787 144.253 897.389 145.319 897.812 146.638C898.236 147.956 898.447 149.559 898.447 151.447V168H890.781V151.398C890.781 150.275 890.618 149.396 890.293 148.762C889.984 148.127 889.528 147.679 888.926 147.419C888.34 147.159 887.624 147.028 886.777 147.028C885.785 147.028 884.963 147.207 884.312 147.565C883.66 147.907 883.148 148.387 882.773 149.006C882.399 149.624 882.131 150.349 881.968 151.179C881.821 152.009 881.748 152.904 881.748 153.864ZM917.417 161.701V150.373C917.417 149.576 917.295 148.892 917.051 148.322C916.807 147.753 916.424 147.305 915.903 146.979C915.382 146.654 914.707 146.491 913.877 146.491C913.177 146.491 912.567 146.613 912.046 146.857C911.541 147.102 911.151 147.451 910.874 147.907C910.614 148.363 910.483 148.924 910.483 149.592H902.866C902.866 148.404 903.135 147.297 903.672 146.271C904.209 145.246 904.974 144.343 905.967 143.562C906.976 142.78 908.18 142.178 909.58 141.755C910.98 141.315 912.55 141.096 914.292 141.096C916.359 141.096 918.198 141.446 919.81 142.146C921.437 142.829 922.723 143.863 923.667 145.246C924.611 146.613 925.083 148.339 925.083 150.422V161.481C925.083 163.076 925.173 164.33 925.352 165.241C925.547 166.136 925.824 166.918 926.182 167.585V168H918.491C918.133 167.235 917.865 166.291 917.686 165.168C917.507 164.029 917.417 162.873 917.417 161.701ZM918.369 151.887L918.418 156.086H914.634C913.787 156.086 913.055 156.192 912.437 156.403C911.834 156.615 911.346 156.908 910.972 157.282C910.597 157.64 910.321 158.063 910.142 158.552C909.979 159.024 909.897 159.545 909.897 160.114C909.897 160.651 910.028 161.14 910.288 161.579C910.549 162.002 910.907 162.336 911.362 162.58C911.818 162.824 912.347 162.946 912.949 162.946C913.942 162.946 914.788 162.751 915.488 162.36C916.204 161.97 916.758 161.498 917.148 160.944C917.539 160.375 917.734 159.846 917.734 159.357L919.565 162.531C919.272 163.182 918.914 163.858 918.491 164.558C918.068 165.241 917.531 165.884 916.88 166.486C916.229 167.072 915.439 167.552 914.512 167.927C913.6 168.301 912.502 168.488 911.216 168.488C909.556 168.488 908.05 168.155 906.699 167.487C905.348 166.804 904.266 165.868 903.452 164.68C902.655 163.492 902.256 162.124 902.256 160.578C902.256 159.195 902.508 157.966 903.013 156.892C903.517 155.817 904.274 154.906 905.283 154.157C906.309 153.409 907.594 152.847 909.141 152.473C910.687 152.082 912.493 151.887 914.561 151.887H918.369ZM937.559 147.224V168H929.917V141.584H937.095L937.559 147.224ZM936.558 153.864L934.653 153.913C934.653 151.927 934.897 150.145 935.386 148.566C935.874 146.988 936.566 145.645 937.461 144.538C938.372 143.415 939.455 142.561 940.708 141.975C941.978 141.389 943.377 141.096 944.907 141.096C946.144 141.096 947.275 141.275 948.301 141.633C949.326 141.991 950.205 142.569 950.938 143.366C951.686 144.147 952.256 145.189 952.646 146.491C953.037 147.777 953.232 149.364 953.232 151.252V168H945.566V151.228C945.566 150.121 945.412 149.266 945.103 148.664C944.793 148.062 944.338 147.639 943.735 147.395C943.149 147.15 942.433 147.028 941.587 147.028C940.692 147.028 939.927 147.207 939.292 147.565C938.657 147.907 938.136 148.387 937.729 149.006C937.323 149.624 937.021 150.349 936.826 151.179C936.647 152.009 936.558 152.904 936.558 153.864ZM974.863 141.584H981.797V167.048C981.797 169.473 981.243 171.532 980.137 173.225C979.046 174.917 977.524 176.203 975.571 177.082C973.618 177.961 971.331 178.4 968.711 178.4C967.572 178.4 966.383 178.246 965.146 177.937C963.91 177.644 962.746 177.196 961.655 176.594C960.565 176.008 959.653 175.259 958.921 174.348L962.168 169.855C962.917 170.702 963.812 171.385 964.854 171.906C965.895 172.443 967.083 172.712 968.418 172.712C969.639 172.712 970.672 172.492 971.519 172.053C972.365 171.613 973.008 170.97 973.447 170.124C973.903 169.278 974.131 168.252 974.131 167.048V147.761L974.863 141.584ZM957.212 155.109V154.597C957.212 152.595 957.456 150.772 957.944 149.128C958.433 147.468 959.141 146.044 960.068 144.855C961.012 143.651 962.144 142.723 963.462 142.072C964.797 141.421 966.294 141.096 967.954 141.096C969.744 141.096 971.226 141.438 972.397 142.121C973.569 142.788 974.521 143.732 975.254 144.953C975.986 146.158 976.564 147.582 976.987 149.226C977.41 150.853 977.752 152.619 978.013 154.523V155.402C977.752 157.225 977.378 158.926 976.89 160.505C976.401 162.084 975.767 163.475 974.985 164.68C974.204 165.868 973.228 166.804 972.056 167.487C970.9 168.155 969.517 168.488 967.905 168.488C966.261 168.488 964.78 168.155 963.462 167.487C962.144 166.82 961.012 165.884 960.068 164.68C959.141 163.475 958.433 162.059 957.944 160.432C957.456 158.804 957.212 157.03 957.212 155.109ZM964.829 154.597V155.109C964.829 156.151 964.927 157.119 965.122 158.015C965.334 158.91 965.643 159.699 966.05 160.383C966.473 161.066 966.994 161.604 967.612 161.994C968.247 162.368 968.988 162.556 969.834 162.556C971.071 162.556 972.072 162.295 972.837 161.774C973.618 161.237 974.188 160.497 974.546 159.553C974.92 158.609 975.116 157.51 975.132 156.257V153.693C975.132 152.652 975.026 151.716 974.814 150.886C974.603 150.056 974.285 149.356 973.862 148.786C973.455 148.216 972.918 147.785 972.251 147.492C971.6 147.183 970.811 147.028 969.883 147.028C969.053 147.028 968.32 147.224 967.686 147.614C967.051 147.989 966.522 148.518 966.099 149.201C965.675 149.885 965.358 150.69 965.146 151.618C964.935 152.53 964.829 153.522 964.829 154.597ZM999.326 168.488C997.227 168.488 995.347 168.155 993.687 167.487C992.026 166.82 990.618 165.9 989.463 164.729C988.324 163.54 987.453 162.173 986.851 160.627C986.248 159.081 985.947 157.429 985.947 155.671V154.743C985.947 152.774 986.224 150.959 986.777 149.299C987.331 147.639 988.136 146.198 989.194 144.978C990.269 143.741 991.587 142.788 993.149 142.121C994.712 141.438 996.494 141.096 998.496 141.096C1000.37 141.096 1002.04 141.405 1003.5 142.023C1004.97 142.626 1006.2 143.496 1007.21 144.636C1008.22 145.759 1008.99 147.118 1009.51 148.713C1010.04 150.292 1010.31 152.066 1010.31 154.035V157.16H989.023V152.253H1002.84V151.667C1002.84 150.739 1002.67 149.925 1002.33 149.226C1002 148.526 1001.52 147.989 1000.86 147.614C1000.23 147.224 999.424 147.028 998.447 147.028C997.52 147.028 996.746 147.224 996.128 147.614C995.509 148.005 995.013 148.558 994.639 149.274C994.281 149.974 994.02 150.796 993.857 151.74C993.695 152.668 993.613 153.669 993.613 154.743V155.671C993.613 156.696 993.752 157.632 994.028 158.479C994.305 159.325 994.712 160.049 995.249 160.651C995.786 161.254 996.437 161.726 997.202 162.067C997.967 162.409 998.838 162.58 999.814 162.58C1001.02 162.58 1002.17 162.352 1003.26 161.896C1004.35 161.424 1005.29 160.692 1006.09 159.699L1009.65 163.776C1009.12 164.558 1008.36 165.314 1007.38 166.047C1006.42 166.763 1005.27 167.349 1003.92 167.805C1002.57 168.26 1001.04 168.488 999.326 168.488ZM1022.06 130.5V168H1014.41V130.5H1022.06ZM1026.45 155.061V154.548C1026.45 152.611 1026.73 150.829 1027.28 149.201C1027.83 147.557 1028.65 146.133 1029.72 144.929C1030.8 143.724 1032.11 142.788 1033.68 142.121C1035.24 141.438 1037.03 141.096 1039.05 141.096C1041.1 141.096 1042.91 141.438 1044.47 142.121C1046.05 142.788 1047.37 143.724 1048.45 144.929C1049.52 146.133 1050.34 147.557 1050.89 149.201C1051.44 150.829 1051.72 152.611 1051.72 154.548V155.061C1051.72 156.981 1051.44 158.763 1050.89 160.407C1050.34 162.035 1049.52 163.459 1048.45 164.68C1047.37 165.884 1046.05 166.82 1044.49 167.487C1042.93 168.155 1041.13 168.488 1039.1 168.488C1037.08 168.488 1035.28 168.155 1033.7 167.487C1032.12 166.82 1030.8 165.884 1029.72 164.68C1028.65 163.459 1027.83 162.035 1027.28 160.407C1026.73 158.763 1026.45 156.981 1026.45 155.061ZM1034.09 154.548V155.061C1034.09 156.102 1034.17 157.079 1034.34 157.99C1034.51 158.902 1034.8 159.699 1035.19 160.383C1035.58 161.066 1036.09 161.604 1036.73 161.994C1037.38 162.368 1038.17 162.556 1039.1 162.556C1040.02 162.556 1040.81 162.368 1041.44 161.994C1042.08 161.604 1042.59 161.066 1042.98 160.383C1043.37 159.699 1043.65 158.902 1043.81 157.99C1043.99 157.079 1044.08 156.102 1044.08 155.061V154.548C1044.08 153.522 1043.99 152.562 1043.81 151.667C1043.65 150.756 1043.37 149.95 1042.98 149.25C1042.59 148.55 1042.07 148.005 1041.42 147.614C1040.78 147.224 1039.99 147.028 1039.05 147.028C1038.14 147.028 1037.36 147.224 1036.73 147.614C1036.09 148.005 1035.58 148.55 1035.19 149.25C1034.8 149.95 1034.51 150.756 1034.34 151.667C1034.17 152.562 1034.09 153.522 1034.09 154.548ZM1072.37 141.584H1079.31V167.048C1079.31 169.473 1078.75 171.532 1077.65 173.225C1076.56 174.917 1075.03 176.203 1073.08 177.082C1071.13 177.961 1068.84 178.4 1066.22 178.4C1065.08 178.4 1063.89 178.246 1062.66 177.937C1061.42 177.644 1060.26 177.196 1059.17 176.594C1058.07 176.008 1057.16 175.259 1056.43 174.348L1059.68 169.855C1060.43 170.702 1061.32 171.385 1062.36 171.906C1063.4 172.443 1064.59 172.712 1065.93 172.712C1067.15 172.712 1068.18 172.492 1069.03 172.053C1069.87 171.613 1070.52 170.97 1070.96 170.124C1071.41 169.278 1071.64 168.252 1071.64 167.048V147.761L1072.37 141.584ZM1054.72 155.109V154.597C1054.72 152.595 1054.97 150.772 1055.45 149.128C1055.94 147.468 1056.65 146.044 1057.58 144.855C1058.52 143.651 1059.65 142.723 1060.97 142.072C1062.31 141.421 1063.8 141.096 1065.46 141.096C1067.25 141.096 1068.74 141.438 1069.91 142.121C1071.08 142.788 1072.03 143.732 1072.76 144.953C1073.5 146.158 1074.07 147.582 1074.5 149.226C1074.92 150.853 1075.26 152.619 1075.52 154.523V155.402C1075.26 157.225 1074.89 158.926 1074.4 160.505C1073.91 162.084 1073.28 163.475 1072.5 164.68C1071.71 165.868 1070.74 166.804 1069.57 167.487C1068.41 168.155 1067.03 168.488 1065.42 168.488C1063.77 168.488 1062.29 168.155 1060.97 167.487C1059.65 166.82 1058.52 165.884 1057.58 164.68C1056.65 163.475 1055.94 162.059 1055.45 160.432C1054.97 158.804 1054.72 157.03 1054.72 155.109ZM1062.34 154.597V155.109C1062.34 156.151 1062.44 157.119 1062.63 158.015C1062.84 158.91 1063.15 159.699 1063.56 160.383C1063.98 161.066 1064.5 161.604 1065.12 161.994C1065.76 162.368 1066.5 162.556 1067.34 162.556C1068.58 162.556 1069.58 162.295 1070.35 161.774C1071.13 161.237 1071.7 160.497 1072.06 159.553C1072.43 158.609 1072.63 157.51 1072.64 156.257V153.693C1072.64 152.652 1072.54 151.716 1072.32 150.886C1072.11 150.056 1071.8 149.356 1071.37 148.786C1070.97 148.216 1070.43 147.785 1069.76 147.492C1069.11 147.183 1068.32 147.028 1067.39 147.028C1066.56 147.028 1065.83 147.224 1065.2 147.614C1064.56 147.989 1064.03 148.518 1063.61 149.201C1063.19 149.885 1062.87 150.69 1062.66 151.618C1062.44 152.53 1062.34 153.522 1062.34 154.597Z" fill="#274C5B"/>
</svg>
