<svg width="1920" height="298" viewBox="0 0 1920 298" fill="none" xmlns="http://www.w3.org/2000/svg">
<rect x="9.15527e-05" width="1920" height="298" fill="#FAFAFA"/>
<mask id="mask0_10_113" style="mask-type:alpha" maskUnits="userSpaceOnUse" x="0" y="2" width="1920" height="296">
<rect y="2" width="1920" height="296" fill="#E3F1E9"/>
</mask>
<g mask="url(#mask0_10_113)">
<path d="M717.647 116.194C709.45 112.078 698.774 110.674 689.788 112.43C683.601 113.644 675.217 117.32 675.705 124.943C676.14 131.621 683.476 135.513 689.362 136.325C695.975 137.227 703.252 136.416 709.45 133.879C712.505 132.63 715.6 130.782 717.504 127.982C719.509 125.044 719.725 121.65 718.747 118.292C718.217 116.466 715.509 117.623 716.024 119.431C719.506 131.466 700.17 134.073 692.323 133.656C687.276 133.384 680.915 131.658 678.975 126.304C676.757 120.21 684.589 116.517 689.236 115.549C698.15 113.699 708.407 114.833 716.589 118.931C718.262 119.775 719.353 117.042 717.647 116.194Z" fill="#DDDDDD"/>
<path d="M716.714 118.324C710.302 120.969 703.27 121.558 696.446 122.374C694.557 122.594 694.967 125.529 696.841 125.291C703.905 124.437 711.199 123.763 717.84 121.029C719.587 120.322 718.465 117.584 716.714 118.324Z" fill="#DDDDDD"/>
<path d="M721.362 139.273C717.451 143.25 713.661 147.343 710.11 151.666C706.049 156.598 701.58 162.116 699.629 168.297C698.942 170.476 698.552 172.96 699.615 175.087C700.786 177.429 703.347 178.417 705.806 178.737C709.667 179.248 713.885 178.764 717.304 176.872C721.226 174.708 724.19 171.2 726.294 167.318C730.789 159.003 732.159 146.645 724.329 139.824C722.906 138.575 721.154 140.958 722.562 142.188C728.682 147.507 727.574 157.331 724.657 163.997C723.048 167.672 720.611 171.127 717.308 173.435C714.335 175.516 710.77 176.148 707.192 175.924C706.028 175.847 704.805 175.696 703.746 175.179C703.08 174.862 702.524 174.34 702.294 173.893C701.546 172.475 701.947 170.58 702.541 168.892C704.44 163.409 708.323 158.556 711.923 154.104C714.057 151.484 716.281 148.941 718.549 146.455C719.439 145.492 720.329 144.528 721.252 143.569C721.654 143.166 722.022 142.759 722.424 142.356C722.77 141.996 723.038 141.727 723.172 141.593C724.478 140.245 722.686 137.911 721.362 139.273Z" fill="#DDDDDD"/>
<path d="M722.352 141.729C720.31 147.833 717.09 153.421 714.335 159.185C713.52 160.895 716.253 161.988 717.068 160.277C719.823 154.514 723.043 148.925 725.085 142.822C725.69 141.035 722.943 139.924 722.352 141.729Z" fill="#DDDDDD"/>
<path d="M690.116 146.276C682.4 146.295 673.869 146.531 667.007 150.513C662.817 152.946 658.364 156.839 656.713 161.532C656.013 163.542 655.943 165.747 657.16 167.574C658.561 169.676 661.102 170.56 663.456 171.053C669.606 172.316 675.817 169.261 680.403 165.384C685.419 161.141 689.782 155.257 691.27 148.75C691.681 146.906 688.756 146.561 688.363 148.391C687.292 153.138 684.186 157.534 680.844 160.977C677.216 164.705 672.454 167.973 667.123 168.37C663.771 168.626 658.022 167.379 659.362 162.899C660.514 158.984 664.302 155.729 667.603 153.571C673.963 149.444 682.409 149.214 689.739 149.198C691.618 149.196 691.994 146.274 690.116 146.276Z" fill="#DDDDDD"/>
<path d="M687.628 147.683C683.287 151.071 678.621 153.965 674.28 157.353C672.796 158.511 674.588 160.845 676.091 159.673C680.432 156.285 685.098 153.391 689.438 150.003C690.941 148.831 689.13 146.511 687.628 147.683Z" fill="#DDDDDD"/>
<path d="M1176.93 157.742C1188.56 175.588 1211.81 192.267 1237.71 187.615C1238.42 187.492 1238.85 186.806 1238.82 186.208C1238.38 179.842 1234.32 174.223 1230.58 169.335C1226.13 163.487 1221.17 158.476 1214.57 154.562C1208.48 150.951 1202.13 148.995 1194.5 148.585C1190.68 148.372 1186.81 148.465 1182.94 148.632C1181.22 148.714 1179.47 148.805 1177.74 148.912C1176.52 148.986 1175.09 148.807 1173.94 149.363C1173.26 149.69 1173.04 150.374 1173.26 150.922C1174.16 153.375 1175.75 155.442 1176.93 157.742C1177.59 159.008 1179.95 157.887 1179.28 156.605C1178.1 154.305 1176.51 152.237 1175.6 149.81C1175.36 150.338 1175.13 150.866 1174.91 151.369C1175.68 150.996 1177.87 151.204 1178.84 151.15C1180.47 151.056 1182.1 150.979 1183.72 150.91C1187.2 150.77 1190.7 150.703 1194.13 150.901C1201.48 151.308 1207.51 153.263 1213.36 156.77C1219.47 160.429 1224.02 165.081 1228.19 170.474C1231.82 175.154 1235.86 180.627 1236.29 186.78C1236.66 186.303 1237.02 185.85 1237.39 185.373C1224.92 187.606 1213.02 184.214 1203.21 178.719C1193.44 173.247 1185.13 165.579 1179.27 156.589C1178.5 155.419 1176.14 156.54 1176.93 157.742Z" fill="#DDDDDD"/>
<path d="M1176.41 152.587C1188.09 156.917 1199 162.533 1209.36 168.789C1213.82 171.484 1218.43 173.95 1222.99 176.517C1227.75 179.205 1232.55 182.13 1235.73 186.396C1236.59 187.545 1238.61 185.915 1237.75 184.765C1234.68 180.666 1230.12 177.722 1225.55 175.098C1220.69 172.299 1215.72 169.695 1210.93 166.802C1200.38 160.439 1189.29 154.792 1177.4 150.38C1175.94 149.843 1174.97 152.072 1176.41 152.587Z" fill="#DDDDDD"/>
<path d="M1230.08 183.305C1217.49 179.296 1204.52 175.429 1194.22 167.897C1193.03 167.026 1191.49 169.02 1192.67 169.891C1203.13 177.531 1216.31 181.47 1229.09 185.527C1230.57 185.999 1231.55 183.785 1230.08 183.305Z" fill="#DDDDDD"/>
<path d="M1220.11 166.259C1214.3 161.88 1207.43 159.086 1200.42 156.398C1198.99 155.842 1198.02 158.071 1199.45 158.611C1206.29 161.242 1212.93 163.989 1218.59 168.244C1219.75 169.15 1221.28 167.14 1220.11 166.259Z" fill="#DDDDDD"/>
<path d="M1193.53 163.276C1191.05 161.407 1188.84 159.245 1186.14 157.6C1185.61 157.264 1184.77 157.493 1184.35 158.03C1183.92 158.576 1184.06 159.284 1184.61 159.61C1187.31 161.256 1189.51 163.417 1192 165.286C1192.5 165.656 1193.4 165.359 1193.78 164.856C1194.22 164.269 1194.02 163.655 1193.53 163.276Z" fill="#DDDDDD"/>
<path d="M1173.3 129.387C1193.35 139.552 1223.67 143.795 1245.97 129.242C1246.61 128.834 1246.51 128.05 1246.2 127.605C1242.54 122.385 1235.67 119.329 1229.61 116.776C1222.91 113.957 1216.22 111.902 1208.56 111.272C1200.87 110.635 1193.75 111.408 1186.14 114.157C1182.23 115.574 1178.43 117.314 1174.67 119.134C1173 119.944 1171.31 120.78 1169.65 121.606C1168.47 122.195 1167.02 122.642 1166.17 123.626C1165.84 124.003 1165.79 124.719 1166.18 125.029C1168.32 126.783 1170.93 127.899 1173.3 129.387C1174.56 130.181 1176.11 128.187 1174.84 127.393C1172.66 126.011 1170.18 124.996 1168.18 123.408C1168.17 123.884 1168.18 124.335 1168.18 124.811C1168.72 124.195 1171.09 123.384 1172.01 122.938C1173.58 122.158 1175.15 121.377 1176.74 120.629C1180.14 119.007 1183.57 117.465 1187.1 116.189C1194.37 113.562 1201.27 112.997 1208.59 113.635C1215.89 114.282 1222.27 116.344 1228.65 119.062C1234.35 121.493 1240.73 124.367 1244.17 129.261C1244.25 128.707 1244.32 128.179 1244.4 127.625C1233.67 134.619 1220.65 136.64 1208.59 136.079C1196.57 135.516 1184.88 132.5 1174.85 127.409C1173.49 126.718 1171.95 128.712 1173.3 129.387Z" fill="#DDDDDD"/>
<path d="M1169.9 125.289C1183.56 124.067 1197.08 124.28 1210.43 125.305C1215.93 125.733 1221.48 125.84 1227 126.12C1232.55 126.407 1238.3 126.873 1243.16 128.998C1244.54 129.598 1246.09 127.62 1244.7 127.004C1235.16 122.827 1223.28 123.997 1212.61 123.141C1198.67 122.004 1184.52 121.698 1170.25 122.982C1168.62 123.133 1168.28 125.44 1169.9 125.289Z" fill="#DDDDDD"/>
<path d="M1236.43 128.849C1222.59 130.671 1208.42 132.796 1195 130.773C1193.45 130.534 1192.46 132.757 1194.03 132.986C1207.9 135.086 1222.43 132.969 1236.75 131.092C1238.38 130.875 1238.04 128.641 1236.43 128.849Z" fill="#DDDDDD"/>
<path d="M1218.74 118.728C1211.02 117.452 1203.14 117.899 1195.11 118.534C1193.48 118.669 1193.14 120.976 1194.77 120.841C1202.55 120.226 1210.26 119.721 1217.77 120.941C1219.33 121.195 1220.3 118.982 1218.74 118.728Z" fill="#DDDDDD"/>
<path d="M1192.02 127.177C1188.62 126.624 1185.35 125.712 1181.85 125.442C1181.21 125.399 1180.49 125.983 1180.41 126.578C1180.34 127.247 1180.81 127.692 1181.49 127.758C1182.35 127.816 1183 127.9 1183.78 128.019C1184.61 128.152 1185.42 128.311 1186.24 128.469C1187.84 128.787 1189.4 129.14 1191.02 129.408C1191.65 129.518 1192.43 129.259 1192.67 128.607C1192.93 128.045 1192.71 127.3 1192.02 127.177Z" fill="#DDDDDD"/>
</g>
<path d="M802.943 155.646H794.008V149.47H802.943C804.262 149.47 805.32 149.25 806.117 148.811C806.931 148.371 807.525 147.769 807.899 147.004C808.29 146.223 808.485 145.344 808.485 144.367C808.485 143.358 808.29 142.422 807.899 141.56C807.525 140.681 806.931 139.973 806.117 139.436C805.32 138.898 804.262 138.63 802.943 138.63H796.889V168H788.93V132.453H802.943C805.775 132.453 808.201 132.966 810.219 133.991C812.253 135.017 813.808 136.424 814.882 138.215C815.972 139.989 816.518 142.023 816.518 144.318C816.518 146.613 815.972 148.607 814.882 150.3C813.808 151.993 812.253 153.311 810.219 154.255C808.201 155.183 805.775 155.646 802.943 155.646ZM828.603 147.736V168H820.985V141.584H828.139L828.603 147.736ZM836.488 141.389L836.366 148.493C836.041 148.444 835.618 148.404 835.097 148.371C834.576 148.322 834.128 148.298 833.754 148.298C832.777 148.298 831.931 148.42 831.215 148.664C830.515 148.892 829.929 149.234 829.457 149.689C829.001 150.145 828.66 150.715 828.432 151.398C828.204 152.066 828.09 152.839 828.09 153.718L826.649 153.01C826.649 151.268 826.82 149.673 827.162 148.225C827.504 146.776 828 145.523 828.651 144.465C829.302 143.391 830.1 142.561 831.044 141.975C831.988 141.389 833.062 141.096 834.267 141.096C834.657 141.096 835.056 141.12 835.463 141.169C835.87 141.218 836.212 141.291 836.488 141.389ZM837.685 155.061V154.548C837.685 152.611 837.961 150.829 838.515 149.201C839.068 147.557 839.882 146.133 840.956 144.929C842.03 143.724 843.349 142.788 844.911 142.121C846.474 141.438 848.264 141.096 850.282 141.096C852.333 141.096 854.14 141.438 855.702 142.121C857.281 142.788 858.607 143.724 859.682 144.929C860.756 146.133 861.57 147.557 862.123 149.201C862.676 150.829 862.953 152.611 862.953 154.548V155.061C862.953 156.981 862.676 158.763 862.123 160.407C861.57 162.035 860.756 163.459 859.682 164.68C858.607 165.884 857.289 166.82 855.727 167.487C854.164 168.155 852.366 168.488 850.331 168.488C848.313 168.488 846.514 168.155 844.936 167.487C843.357 166.82 842.03 165.884 840.956 164.68C839.882 163.459 839.068 162.035 838.515 160.407C837.961 158.763 837.685 156.981 837.685 155.061ZM845.326 154.548V155.061C845.326 156.102 845.408 157.079 845.57 157.99C845.749 158.902 846.034 159.699 846.425 160.383C846.815 161.066 847.328 161.604 847.963 161.994C848.614 162.368 849.403 162.556 850.331 162.556C851.259 162.556 852.04 162.368 852.675 161.994C853.31 161.604 853.822 161.066 854.213 160.383C854.604 159.699 854.88 158.902 855.043 157.99C855.222 157.079 855.312 156.102 855.312 155.061V154.548C855.312 153.522 855.222 152.562 855.043 151.667C854.88 150.756 854.604 149.95 854.213 149.25C853.822 148.55 853.301 148.005 852.65 147.614C852.016 147.224 851.226 147.028 850.282 147.028C849.371 147.028 848.598 147.224 847.963 147.614C847.328 148.005 846.815 148.55 846.425 149.25C846.034 149.95 845.749 150.756 845.57 151.667C845.408 152.562 845.326 153.522 845.326 154.548ZM880.385 141.584V146.931H864.711V141.584H880.385ZM868.3 135.041H875.941V159.724C875.941 160.456 876.031 161.018 876.21 161.408C876.389 161.799 876.682 162.076 877.089 162.238C877.496 162.385 878.017 162.458 878.651 162.458C879.107 162.458 879.498 162.442 879.823 162.409C880.149 162.377 880.45 162.336 880.727 162.287V167.805C880.076 168.016 879.384 168.179 878.651 168.293C877.919 168.423 877.121 168.488 876.259 168.488C874.615 168.488 873.191 168.22 871.986 167.683C870.798 167.146 869.887 166.299 869.252 165.144C868.617 163.972 868.3 162.45 868.3 160.578V135.041ZM896.498 168.488C894.398 168.488 892.519 168.155 890.858 167.487C889.198 166.82 887.79 165.9 886.635 164.729C885.495 163.54 884.625 162.173 884.022 160.627C883.42 159.081 883.119 157.429 883.119 155.671V154.743C883.119 152.774 883.396 150.959 883.949 149.299C884.503 147.639 885.308 146.198 886.366 144.978C887.44 143.741 888.759 142.788 890.321 142.121C891.884 141.438 893.666 141.096 895.668 141.096C897.54 141.096 899.208 141.405 900.673 142.023C902.138 142.626 903.375 143.496 904.384 144.636C905.393 145.759 906.158 147.118 906.679 148.713C907.216 150.292 907.484 152.066 907.484 154.035V157.16H886.195V152.253H900.014V151.667C900.014 150.739 899.843 149.925 899.501 149.226C899.175 148.526 898.687 147.989 898.036 147.614C897.401 147.224 896.596 147.028 895.619 147.028C894.691 147.028 893.918 147.224 893.3 147.614C892.681 148.005 892.185 148.558 891.811 149.274C891.452 149.974 891.192 150.796 891.029 151.74C890.867 152.668 890.785 153.669 890.785 154.743V155.671C890.785 156.696 890.924 157.632 891.2 158.479C891.477 159.325 891.884 160.049 892.421 160.651C892.958 161.254 893.609 161.726 894.374 162.067C895.139 162.409 896.01 162.58 896.986 162.58C898.191 162.58 899.338 162.352 900.429 161.896C901.519 161.424 902.463 160.692 903.261 159.699L906.825 163.776C906.288 164.558 905.531 165.314 904.555 166.047C903.594 166.763 902.439 167.349 901.088 167.805C899.737 168.26 898.207 168.488 896.498 168.488ZM922.23 162.556C923.044 162.556 923.752 162.401 924.354 162.092C924.957 161.783 925.421 161.351 925.746 160.798C926.088 160.228 926.259 159.545 926.259 158.747H933.437C933.437 160.668 932.94 162.36 931.947 163.825C930.971 165.29 929.652 166.438 927.992 167.268C926.332 168.081 924.46 168.488 922.377 168.488C920.326 168.488 918.536 168.155 917.006 167.487C915.476 166.804 914.198 165.852 913.173 164.631C912.147 163.41 911.374 161.994 910.854 160.383C910.349 158.755 910.097 156.997 910.097 155.109V154.475C910.097 152.603 910.349 150.853 910.854 149.226C911.374 147.598 912.147 146.174 913.173 144.953C914.198 143.732 915.468 142.788 916.981 142.121C918.511 141.438 920.302 141.096 922.353 141.096C924.517 141.096 926.43 141.511 928.09 142.341C929.766 143.171 931.076 144.367 932.021 145.93C932.965 147.476 933.437 149.34 933.437 151.521H926.259C926.259 150.674 926.104 149.917 925.795 149.25C925.502 148.566 925.046 148.029 924.428 147.639C923.826 147.232 923.077 147.028 922.182 147.028C921.254 147.028 920.489 147.232 919.887 147.639C919.301 148.029 918.853 148.575 918.544 149.274C918.235 149.974 918.023 150.772 917.909 151.667C917.795 152.546 917.738 153.482 917.738 154.475V155.109C917.738 156.118 917.795 157.079 917.909 157.99C918.023 158.885 918.235 159.675 918.544 160.358C918.869 161.042 919.325 161.579 919.911 161.97C920.497 162.36 921.27 162.556 922.23 162.556ZM950.648 141.584V146.931H934.975V141.584H950.648ZM938.563 135.041H946.205V159.724C946.205 160.456 946.295 161.018 946.474 161.408C946.653 161.799 946.946 162.076 947.353 162.238C947.759 162.385 948.28 162.458 948.915 162.458C949.371 162.458 949.761 162.442 950.087 162.409C950.412 162.377 950.714 162.336 950.99 162.287V167.805C950.339 168.016 949.647 168.179 948.915 168.293C948.183 168.423 947.385 168.488 946.522 168.488C944.879 168.488 943.454 168.22 942.25 167.683C941.062 167.146 940.15 166.299 939.516 165.144C938.881 163.972 938.563 162.45 938.563 160.578V135.041ZM966.762 168.488C964.662 168.488 962.782 168.155 961.122 167.487C959.462 166.82 958.054 165.9 956.898 164.729C955.759 163.54 954.888 162.173 954.286 160.627C953.684 159.081 953.383 157.429 953.383 155.671V154.743C953.383 152.774 953.66 150.959 954.213 149.299C954.766 147.639 955.572 146.198 956.63 144.978C957.704 143.741 959.022 142.788 960.585 142.121C962.147 141.438 963.93 141.096 965.932 141.096C967.803 141.096 969.472 141.405 970.937 142.023C972.401 142.626 973.638 143.496 974.647 144.636C975.657 145.759 976.422 147.118 976.942 148.713C977.479 150.292 977.748 152.066 977.748 154.035V157.16H956.459V152.253H970.277V151.667C970.277 150.739 970.106 149.925 969.765 149.226C969.439 148.526 968.951 147.989 968.3 147.614C967.665 147.224 966.859 147.028 965.883 147.028C964.955 147.028 964.182 147.224 963.563 147.614C962.945 148.005 962.449 148.558 962.074 149.274C961.716 149.974 961.456 150.796 961.293 151.74C961.13 152.668 961.049 153.669 961.049 154.743V155.671C961.049 156.696 961.187 157.632 961.464 158.479C961.741 159.325 962.147 160.049 962.685 160.651C963.222 161.254 963.873 161.726 964.638 162.067C965.403 162.409 966.273 162.58 967.25 162.58C968.454 162.58 969.602 162.352 970.692 161.896C971.783 161.424 972.727 160.692 973.524 159.699L977.089 163.776C976.552 164.558 975.795 165.314 974.818 166.047C973.858 166.763 972.702 167.349 971.352 167.805C970.001 168.26 968.471 168.488 966.762 168.488ZM996.84 162.092V130.5H1004.51V168H997.621L996.84 162.092ZM980.385 155.109V154.597C980.385 152.595 980.604 150.772 981.044 149.128C981.5 147.468 982.159 146.044 983.021 144.855C983.9 143.651 984.983 142.723 986.269 142.072C987.554 141.421 989.027 141.096 990.688 141.096C992.217 141.096 993.552 141.438 994.691 142.121C995.831 142.788 996.799 143.732 997.597 144.953C998.41 146.158 999.07 147.582 999.574 149.226C1000.08 150.853 1000.46 152.619 1000.72 154.523V155.402C1000.48 157.225 1000.1 158.926 999.574 160.505C999.07 162.084 998.41 163.475 997.597 164.68C996.799 165.868 995.823 166.804 994.667 167.487C993.528 168.155 992.185 168.488 990.639 168.488C988.979 168.488 987.506 168.155 986.22 167.487C984.95 166.82 983.884 165.884 983.021 164.68C982.159 163.475 981.5 162.059 981.044 160.432C980.604 158.804 980.385 157.03 980.385 155.109ZM988.002 154.597V155.109C988.002 156.151 988.075 157.119 988.222 158.015C988.384 158.91 988.645 159.699 989.003 160.383C989.361 161.066 989.833 161.604 990.419 161.994C991.005 162.368 991.721 162.556 992.567 162.556C993.707 162.556 994.643 162.295 995.375 161.774C996.107 161.237 996.661 160.497 997.035 159.553C997.41 158.609 997.605 157.51 997.621 156.257V153.693C997.621 152.652 997.515 151.716 997.304 150.886C997.092 150.056 996.775 149.356 996.352 148.786C995.945 148.216 995.432 147.785 994.813 147.492C994.195 147.183 993.463 147.028 992.616 147.028C991.786 147.028 991.078 147.224 990.492 147.614C989.906 147.989 989.426 148.518 989.052 149.201C988.694 149.885 988.425 150.69 988.246 151.618C988.083 152.53 988.002 153.522 988.002 154.597ZM1036.44 155.646H1027.5V149.47H1036.44C1037.76 149.47 1038.82 149.25 1039.61 148.811C1040.43 148.371 1041.02 147.769 1041.4 147.004C1041.79 146.223 1041.98 145.344 1041.98 144.367C1041.98 143.358 1041.79 142.422 1041.4 141.56C1041.02 140.681 1040.43 139.973 1039.61 139.436C1038.82 138.898 1037.76 138.63 1036.44 138.63H1030.38V168H1022.43V132.453H1036.44C1039.27 132.453 1041.7 132.966 1043.71 133.991C1045.75 135.017 1047.3 136.424 1048.38 138.215C1049.47 139.989 1050.01 142.023 1050.01 144.318C1050.01 146.613 1049.47 148.607 1048.38 150.3C1047.3 151.993 1045.75 153.311 1043.71 154.255C1041.7 155.183 1039.27 155.646 1036.44 155.646ZM1068.15 161.701V150.373C1068.15 149.576 1068.03 148.892 1067.79 148.322C1067.54 147.753 1067.16 147.305 1066.64 146.979C1066.12 146.654 1065.44 146.491 1064.61 146.491C1063.91 146.491 1063.3 146.613 1062.78 146.857C1062.28 147.102 1061.89 147.451 1061.61 147.907C1061.35 148.363 1061.22 148.924 1061.22 149.592H1053.6C1053.6 148.404 1053.87 147.297 1054.41 146.271C1054.95 145.246 1055.71 144.343 1056.7 143.562C1057.71 142.78 1058.92 142.178 1060.32 141.755C1061.72 141.315 1063.29 141.096 1065.03 141.096C1067.1 141.096 1068.93 141.446 1070.55 142.146C1072.17 142.829 1073.46 143.863 1074.4 145.246C1075.35 146.613 1075.82 148.339 1075.82 150.422V161.481C1075.82 163.076 1075.91 164.33 1076.09 165.241C1076.28 166.136 1076.56 166.918 1076.92 167.585V168H1069.23C1068.87 167.235 1068.6 166.291 1068.42 165.168C1068.24 164.029 1068.15 162.873 1068.15 161.701ZM1069.11 151.887L1069.15 156.086H1065.37C1064.52 156.086 1063.79 156.192 1063.17 156.403C1062.57 156.615 1062.08 156.908 1061.71 157.282C1061.33 157.64 1061.06 158.063 1060.88 158.552C1060.72 159.024 1060.63 159.545 1060.63 160.114C1060.63 160.651 1060.76 161.14 1061.02 161.579C1061.28 162.002 1061.64 162.336 1062.1 162.58C1062.55 162.824 1063.08 162.946 1063.69 162.946C1064.68 162.946 1065.52 162.751 1066.22 162.36C1066.94 161.97 1067.49 161.498 1067.88 160.944C1068.28 160.375 1068.47 159.846 1068.47 159.357L1070.3 162.531C1070.01 163.182 1069.65 163.858 1069.23 164.558C1068.8 165.241 1068.27 165.884 1067.62 166.486C1066.97 167.072 1066.18 167.552 1065.25 167.927C1064.34 168.301 1063.24 168.488 1061.95 168.488C1060.29 168.488 1058.79 168.155 1057.44 167.487C1056.08 166.804 1055 165.868 1054.19 164.68C1053.39 163.492 1052.99 162.124 1052.99 160.578C1052.99 159.195 1053.24 157.966 1053.75 156.892C1054.25 155.817 1055.01 154.906 1056.02 154.157C1057.04 153.409 1058.33 152.847 1059.88 152.473C1061.42 152.082 1063.23 151.887 1065.3 151.887H1069.11ZM1097.47 141.584H1104.41V167.048C1104.41 169.473 1103.85 171.532 1102.75 173.225C1101.66 174.917 1100.14 176.203 1098.18 177.082C1096.23 177.961 1093.94 178.4 1091.32 178.4C1090.18 178.4 1088.99 178.246 1087.76 177.937C1086.52 177.644 1085.36 177.196 1084.27 176.594C1083.18 176.008 1082.26 175.259 1081.53 174.348L1084.78 169.855C1085.53 170.702 1086.42 171.385 1087.46 171.906C1088.51 172.443 1089.69 172.712 1091.03 172.712C1092.25 172.712 1093.28 172.492 1094.13 172.053C1094.98 171.613 1095.62 170.97 1096.06 170.124C1096.51 169.278 1096.74 168.252 1096.74 167.048V147.761L1097.47 141.584ZM1079.82 155.109V154.597C1079.82 152.595 1080.07 150.772 1080.56 149.128C1081.04 147.468 1081.75 146.044 1082.68 144.855C1083.62 143.651 1084.75 142.723 1086.07 142.072C1087.41 141.421 1088.91 141.096 1090.57 141.096C1092.36 141.096 1093.84 141.438 1095.01 142.121C1096.18 142.788 1097.13 143.732 1097.87 144.953C1098.6 146.158 1099.18 147.582 1099.6 149.226C1100.02 150.853 1100.36 152.619 1100.62 154.523V155.402C1100.36 157.225 1099.99 158.926 1099.5 160.505C1099.01 162.084 1098.38 163.475 1097.6 164.68C1096.82 165.868 1095.84 166.804 1094.67 167.487C1093.51 168.155 1092.13 168.488 1090.52 168.488C1088.87 168.488 1087.39 168.155 1086.07 167.487C1084.75 166.82 1083.62 165.884 1082.68 164.68C1081.75 163.475 1081.04 162.059 1080.56 160.432C1080.07 158.804 1079.82 157.03 1079.82 155.109ZM1087.44 154.597V155.109C1087.44 156.151 1087.54 157.119 1087.73 158.015C1087.94 158.91 1088.25 159.699 1088.66 160.383C1089.08 161.066 1089.61 161.604 1090.22 161.994C1090.86 162.368 1091.6 162.556 1092.45 162.556C1093.68 162.556 1094.68 162.295 1095.45 161.774C1096.23 161.237 1096.8 160.497 1097.16 159.553C1097.53 158.609 1097.73 157.51 1097.74 156.257V153.693C1097.74 152.652 1097.64 151.716 1097.43 150.886C1097.21 150.056 1096.9 149.356 1096.47 148.786C1096.07 148.216 1095.53 147.785 1094.86 147.492C1094.21 147.183 1093.42 147.028 1092.49 147.028C1091.66 147.028 1090.93 147.224 1090.3 147.614C1089.66 147.989 1089.13 148.518 1088.71 149.201C1088.29 149.885 1087.97 150.69 1087.76 151.618C1087.55 152.53 1087.44 153.522 1087.44 154.597ZM1121.94 168.488C1119.84 168.488 1117.96 168.155 1116.3 167.487C1114.64 166.82 1113.23 165.9 1112.07 164.729C1110.93 163.54 1110.06 162.173 1109.46 160.627C1108.86 159.081 1108.56 157.429 1108.56 155.671V154.743C1108.56 152.774 1108.84 150.959 1109.39 149.299C1109.94 147.639 1110.75 146.198 1111.81 144.978C1112.88 143.741 1114.2 142.788 1115.76 142.121C1117.32 141.438 1119.11 141.096 1121.11 141.096C1122.98 141.096 1124.65 141.405 1126.11 142.023C1127.58 142.626 1128.81 143.496 1129.82 144.636C1130.83 145.759 1131.6 147.118 1132.12 148.713C1132.66 150.292 1132.92 152.066 1132.92 154.035V157.16H1111.63V152.253H1125.45V151.667C1125.45 150.739 1125.28 149.925 1124.94 149.226C1124.61 148.526 1124.13 147.989 1123.48 147.614C1122.84 147.224 1122.04 147.028 1121.06 147.028C1120.13 147.028 1119.36 147.224 1118.74 147.614C1118.12 148.005 1117.62 148.558 1117.25 149.274C1116.89 149.974 1116.63 150.796 1116.47 151.74C1116.31 152.668 1116.22 153.669 1116.22 154.743V155.671C1116.22 156.696 1116.36 157.632 1116.64 158.479C1116.92 159.325 1117.32 160.049 1117.86 160.651C1118.4 161.254 1119.05 161.726 1119.81 162.067C1120.58 162.409 1121.45 162.58 1122.43 162.58C1123.63 162.58 1124.78 162.352 1125.87 161.896C1126.96 161.424 1127.9 160.692 1128.7 159.699L1132.26 163.776C1131.73 164.558 1130.97 165.314 1129.99 166.047C1129.03 166.763 1127.88 167.349 1126.53 167.805C1125.18 168.26 1123.65 168.488 1121.94 168.488Z" fill="#274C5B"/>
</svg>
